<?xml version="1.0" encoding="iso-8859-1"?>
<!-- Generator: Adobe Illustrator 18.0.0, SVG Export Plug-In . SVG Version: 6.00 Build 0)  -->
<!DOCTYPE svg PUBLIC "-//W3C//DTD SVG 1.1//EN" "http://www.w3.org/Graphics/SVG/1.1/DTD/svg11.dtd">
<svg version="1.1" id="Capa_1" xmlns="http://www.w3.org/2000/svg" xmlns:xlink="http://www.w3.org/1999/xlink" x="0px" y="0px"
	 viewBox="0 0 188.149 188.149" style="enable-background:new 0 0 188.149 188.149;" xml:space="preserve">
<g>
	<defs>
		<circle id="SVGID_1_" cx="94.075" cy="94.075" r="94.074"/>
	</defs>
	<use xlink:href="#SVGID_1_"  style="overflow:visible;fill:#7DDBD4;"/>
	<clipPath id="SVGID_2_">
		<use xlink:href="#SVGID_1_"  style="overflow:visible;"/>
	</clipPath>
	<g style="clip-path:url(#SVGID_2_);">
		<path style="fill:#141720;" d="M151.952,66.682c0,1.625-0.072,3.229-0.195,4.822c-0.227,2.704-0.638,5.346-1.213,7.927
			c-0.802,3.588-1.943,7.043-3.383,10.333c-1.357,3.136-2.992,6.127-4.863,8.934c-1.49,2.242-3.136,4.37-4.914,6.374
			c-0.442,0.494-0.885,0.977-1.337,1.45c-1.48,1.573-3.054,3.043-4.698,4.421c-0.422,0.36-0.843,0.71-1.275,1.049
			c-2.046,1.634-4.215,3.136-6.477,4.472c-0.699,0.422-1.419,0.823-2.139,1.214c-5.799,3.125-12.194,5.284-18.959,6.261
			c-2.745,0.411-5.563,0.617-8.42,0.617c-2.817,0-5.583-0.206-8.287-0.597c-6.827-0.977-13.273-3.146-19.113-6.281
			c-0.956-0.524-1.902-1.06-2.817-1.625c-2.787-1.707-5.408-3.64-7.855-5.788c-0.268-0.227-0.545-0.463-0.802-0.709
			c-1.83-1.655-3.557-3.434-5.161-5.315c-0.298-0.35-0.596-0.699-0.884-1.059c-2.416-2.971-4.545-6.179-6.343-9.592
			c-0.175-0.329-0.339-0.658-0.504-0.987c-1.398-2.786-2.581-5.706-3.527-8.729c-0.185-0.606-0.36-1.213-0.524-1.82
			c-0.864-3.126-1.471-6.354-1.789-9.674c-0.051-0.555-0.103-1.11-0.144-1.676c-0.082-1.327-0.134-2.673-0.134-4.021
			c0-0.812,0.021-1.614,0.052-2.416c0.01-0.401,0.031-0.791,0.062-1.192c0.154-2.622,0.493-5.203,0.997-7.721
			c0.113-0.566,0.236-1.131,0.36-1.687c0.463-2.005,1.028-3.979,1.697-5.891c0.236-0.699,0.493-1.398,0.761-2.077
			c0.812-2.108,1.758-4.154,2.807-6.128c0.833-1.573,1.738-3.105,2.714-4.585c0.627-0.966,1.285-1.902,1.974-2.827
			c0.75-1.018,1.542-2.005,2.365-2.961c1.439-1.697,2.971-3.3,4.585-4.792c0.555-0.524,1.11-1.028,1.686-1.521
			c2.169-1.881,4.472-3.599,6.909-5.13c0.822-0.524,1.655-1.028,2.508-1.501c1.234-0.699,2.498-1.358,3.794-1.964
			c0.802-0.38,1.614-0.74,2.437-1.08c2.426-1.007,4.924-1.851,7.505-2.529c1.295-0.339,2.611-0.627,3.948-0.873
			c2.015-0.38,4.061-0.658,6.148-0.823c1.048-0.082,2.107-0.134,3.177-0.154c0.463-0.01,0.925-0.02,1.398-0.02
			c1.11,0,2.21,0.031,3.3,0.093c0.699,0.041,1.398,0.092,2.087,0.154c2.91,0.268,5.747,0.751,8.503,1.44
			c0.638,0.154,1.265,0.319,1.892,0.494c3.115,0.884,6.117,2.015,8.996,3.382c0.822,0.391,1.625,0.792,2.427,1.224
			c1.501,0.791,2.95,1.655,4.369,2.581c0.247,0.165,0.504,0.329,0.751,0.494c1.974,1.336,3.876,2.796,5.665,4.37
			c1.192,1.018,2.323,2.097,3.413,3.229c1.707,1.737,3.301,3.578,4.761,5.521c0.298,0.38,0.586,0.761,0.852,1.151
			c1.44,1.995,2.745,4.071,3.918,6.241c0.216,0.391,0.421,0.792,0.616,1.182c1.923,3.753,3.444,7.732,4.514,11.896
			c0.545,2.118,0.967,4.277,1.265,6.477C151.768,61.336,151.952,63.989,151.952,66.682z"/>
		<path style="fill:#141720;" d="M58.639,105.803c0,0.051,0,0.103-0.01,0.154c-0.051,1.861-1.09,3.465-2.622,4.308
			c-0.196,0.113-0.391,0.216-0.607,0.288c-0.576,0.237-1.213,0.36-1.871,0.36c-2.817,0-5.1-2.292-5.1-5.11
			c0-0.483,0.072-0.956,0.195-1.408c0.124-0.432,0.309-0.843,0.535-1.213c0.884-1.48,2.509-2.478,4.37-2.478
			c0.462,0,0.905,0.062,1.326,0.175c0.658,0.164,1.254,0.462,1.769,0.863c0.442,0.339,0.822,0.74,1.141,1.203
			C58.32,103.757,58.639,104.744,58.639,105.803z"/>
		<path style="fill:#141720;" d="M44.646,50.767c0,0.987-0.288,1.913-0.782,2.694c-0.895,1.45-2.498,2.406-4.328,2.406
			c-0.802,0-1.553-0.185-2.231-0.514c-0.37-0.175-0.709-0.401-1.018-0.648c-1.131-0.936-1.851-2.354-1.851-3.938
			c0-2.282,1.491-4.205,3.537-4.863c0.494-0.165,1.018-0.247,1.563-0.247c0.195,0,0.391,0.011,0.586,0.042
			c2.282,0.247,4.102,2.005,4.452,4.256C44.625,50.222,44.646,50.489,44.646,50.767z"/>
		<path style="fill:#141720;" d="M73.249,16.664c0,1.11-0.36,2.149-0.957,2.981c-0.699,0.977-1.748,1.696-2.95,1.984
			c-0.381,0.093-0.782,0.144-1.193,0.144c-2.447,0-4.493-1.717-4.986-4.02c-0.082-0.35-0.124-0.72-0.124-1.09
			c0-0.452,0.062-0.884,0.175-1.295c0.566-2.19,2.57-3.804,4.935-3.804c0.545,0,1.059,0.082,1.552,0.237
			c0.853,0.277,1.604,0.761,2.201,1.408C72.735,14.114,73.249,15.327,73.249,16.664z"/>
		<circle style="fill:#141720;" cx="121.308" cy="18.853" r="5.104"/>
		<path style="fill:#141720;" d="M43.597,67.68c0,0.648-0.124,1.275-0.35,1.84c-0.74,1.912-2.591,3.27-4.76,3.27
			c-0.72,0-1.399-0.144-2.015-0.411c-0.422-0.185-0.812-0.432-1.172-0.709c-1.162-0.936-1.912-2.375-1.912-3.989
			c0-1.738,0.864-3.27,2.19-4.195c0.226-0.154,0.473-0.298,0.73-0.411c0.658-0.319,1.398-0.494,2.18-0.494
			c2.159,0,4.01,1.336,4.75,3.229C43.474,66.384,43.597,67.021,43.597,67.68z"/>
		<circle style="fill:#141720;" cx="133.152" cy="107.931" r="5.104"/>
		<circle style="fill:#141720;" cx="138.402" cy="101.993" r="5.104"/>
		<circle style="fill:#141720;" cx="126.407" cy="112.201" r="5.104"/>
		<path style="fill:#141720;" d="M99.579,10.135c0,1.902-1.038,3.558-2.581,4.432c-0.75,0.432-1.614,0.678-2.529,0.678
			c-0.134,0-0.257,0-0.391-0.021c-0.998-0.072-1.913-0.432-2.663-1.007c-1.244-0.925-2.046-2.416-2.046-4.082
			c0-0.401,0.041-0.781,0.134-1.151c0.267-1.193,0.966-2.221,1.912-2.92c0.75-0.576,1.665-0.936,2.663-1.007
			c0.134-0.021,0.257-0.021,0.391-0.021c1.748,0,3.29,0.874,4.205,2.21c0.37,0.535,0.648,1.152,0.792,1.81
			C99.538,9.405,99.579,9.765,99.579,10.135z"/>
		<circle style="fill:#141720;" cx="143.506" cy="35.72" r="5.104"/>
		<path style="fill:#141720;" d="M56.007,96.889c0,0.833-0.134,1.624-0.391,2.375c-0.185,0.576-0.442,1.11-0.761,1.614
			c-1.059,1.696-2.786,2.94-4.812,3.362c-0.452,0.102-0.936,0.154-1.419,0.154c-0.041,0.01-0.092,0.01-0.133,0.01
			c-4.154,0-7.526-3.362-7.526-7.516c0-1.224,0.298-2.386,0.813-3.403c0.154-0.309,0.329-0.606,0.535-0.884
			c1.357-1.954,3.619-3.238,6.179-3.238c0.216,0,0.432,0.01,0.647,0.031c1.552,0.133,2.972,0.74,4.112,1.676
			C54.938,92.447,56.007,94.545,56.007,96.889z"/>
		<path style="fill:#141720;" d="M70.185,108.641c0,3.31-2.138,6.118-5.11,7.115c-0.391,0.134-0.791,0.236-1.213,0.298
			c-0.391,0.072-0.792,0.103-1.203,0.103c-3.496,0-6.426-2.375-7.259-5.603c-0.092-0.318-0.165-0.658-0.195-0.997
			c-0.041-0.298-0.062-0.607-0.062-0.915c0-2.077,0.843-3.948,2.19-5.305c0.144-0.144,0.288-0.278,0.432-0.391
			c1.316-1.152,3.023-1.83,4.894-1.83C66.813,101.115,70.185,104.487,70.185,108.641z"/>
		<path style="fill:#141720;" d="M52.162,42.429c0,4.154-3.362,7.526-7.516,7.526h-0.072c-2.025-0.021-3.866-0.843-5.212-2.18
			c-0.556-0.535-1.028-1.172-1.388-1.871c-0.545-1.039-0.854-2.221-0.854-3.475c0-3.115,1.902-5.788,4.606-6.919
			c0.894-0.391,1.882-0.596,2.92-0.596c0.339,0,0.668,0.021,0.997,0.072c3.331,0.432,5.963,3.043,6.426,6.364
			C52.131,41.699,52.162,42.059,52.162,42.429z"/>
		<circle style="fill:#141720;" cx="113.786" cy="15.242" r="7.521"/>
		<path style="fill:#141720;" d="M84.476,13.744c0,0.966-0.185,1.892-0.524,2.745c-1.09,2.796-3.814,4.781-7.002,4.781
			c-1.758,0-3.383-0.607-4.658-1.625c-1.614-1.265-2.683-3.177-2.827-5.356c-0.021-0.175-0.031-0.36-0.031-0.545
			c0-0.668,0.092-1.326,0.267-1.943c0.843-3.208,3.763-5.573,7.248-5.573c1.162,0,2.262,0.268,3.239,0.74
			c1.316,0.617,2.416,1.604,3.167,2.838C84.065,10.947,84.476,12.294,84.476,13.744z"/>
		<path style="fill:#141720;" d="M48.43,76.666c0,1.789-0.627,3.434-1.676,4.719c-1.378,1.706-3.485,2.796-5.85,2.796
			c-0.73,0-1.45-0.103-2.118-0.309c-0.524-0.144-1.038-0.359-1.511-0.627c-2.313-1.275-3.886-3.742-3.886-6.58
			c0-1.922,0.72-3.671,1.912-4.997c0.298-0.36,0.648-0.689,1.028-0.966c1.265-0.987,2.858-1.563,4.575-1.563
			c0.822,0,1.604,0.134,2.344,0.38C46.25,70.497,48.43,73.335,48.43,76.666z"/>
		<circle style="fill:#141720;" cx="134.066" cy="30.285" r="7.521"/>
		<circle style="fill:#141720;" cx="145.111" cy="46.687" r="7.522"/>
		<path style="fill:#141720;" d="M69.434,22.76c0,4.154-3.372,7.526-7.526,7.526c-0.607,0-1.193-0.072-1.758-0.216
			c-2.776-0.658-4.956-2.868-5.583-5.665c-0.124-0.524-0.185-1.08-0.185-1.645c0-0.133,0-0.267,0.021-0.401
			c0.195-3.968,3.485-7.115,7.505-7.115c0.442,0,0.884,0.041,1.306,0.123c0.884,0.144,1.717,0.453,2.457,0.884
			c1.943,1.121,3.331,3.074,3.671,5.377C69.404,22,69.434,22.37,69.434,22.76z"/>
		<path style="fill:#141720;" d="M49.622,86.885c0,0.884-0.174,1.737-0.483,2.509c-0.997,2.457-3.414,4.195-6.23,4.195h-0.092
			c-0.36-0.01-0.699-0.041-1.039-0.103c-3.167-0.535-5.583-3.29-5.583-6.601c0-1.347,0.391-2.591,1.08-3.64
			c0.278-0.432,0.607-0.832,0.987-1.193c1.203-1.172,2.837-1.881,4.647-1.881c1.429,0,2.755,0.453,3.845,1.213
			C48.492,82.598,49.622,84.603,49.622,86.885z"/>
		<path style="fill:#141720;" d="M55.143,35.715c0,2.365-1.224,4.441-3.074,5.634c-1.049,0.689-2.303,1.079-3.64,1.079
			c-2.272,0-4.277-1.131-5.501-2.858c-0.761-1.09-1.213-2.426-1.213-3.855c0-0.072,0-0.134,0.01-0.206
			c0.083-3.064,2.242-5.604,5.11-6.302c0.504-0.134,1.039-0.196,1.594-0.196c0.535,0,1.059,0.062,1.553,0.186
			c2.899,0.688,5.068,3.249,5.151,6.323C55.143,35.581,55.143,35.653,55.143,35.715z"/>
		<circle style="fill:#141720;" cx="103.253" cy="12.143" r="6.71"/>
		<path style="fill:#141720;" d="M47.679,59.496c0,1.121-0.267,2.169-0.75,3.095c-0.771,1.491-2.087,2.653-3.691,3.218
			c-0.709,0.257-1.48,0.401-2.272,0.401c-1.84,0-3.506-0.74-4.719-1.943c-0.247-0.246-0.473-0.504-0.669-0.781
			c-0.833-1.11-1.316-2.488-1.316-3.989c0-1.881,0.771-3.578,2.025-4.791c0.411-0.411,0.874-0.761,1.377-1.039
			c0.977-0.555,2.098-0.874,3.3-0.874c1.039,0,2.025,0.236,2.899,0.668c0.946,0.442,1.769,1.1,2.406,1.923
			C47.155,56.514,47.679,57.943,47.679,59.496z"/>
		<circle style="fill:#141720;" cx="149.53" cy="65.179" r="6.709"/>
		<circle style="fill:#141720;" cx="145.111" cy="83.371" r="6.709"/>
		<path style="fill:#141720;" d="M60.243,29.011c0,0.36-0.031,0.72-0.093,1.059c-0.411,2.673-2.416,4.812-5.017,5.449
			c-0.514,0.134-1.049,0.195-1.604,0.195c-2.56,0-4.791-1.44-5.912-3.557c-0.483-0.884-0.761-1.882-0.782-2.951
			c-0.01-0.062-0.01-0.134-0.01-0.196c0-3.711,3.002-6.713,6.704-6.713c0.298,0,0.586,0.021,0.874,0.062
			c0.647,0.083,1.275,0.257,1.851,0.524C58.608,23.912,60.243,26.267,60.243,29.011z"/>
		<circle style="fill:#141720;" cx="129.223" cy="23.847" r="6.71"/>
		<path style="fill:#141720;" d="M92.804,10.135c0,1.532-0.514,2.951-1.388,4.082c-1.224,1.604-3.146,2.632-5.315,2.632
			c-0.751,0-1.48-0.124-2.149-0.36c-2.498-0.833-4.328-3.095-4.544-5.809c-0.011-0.185-0.021-0.36-0.021-0.545
			c0-1.141,0.288-2.221,0.802-3.167c1.121-2.107,3.352-3.537,5.912-3.537c2.169,0,4.092,1.028,5.315,2.632
			c0.617,0.792,1.059,1.738,1.265,2.766C92.763,9.251,92.804,9.683,92.804,10.135z"/>
		<path style="fill:#B08874;" d="M148.611,197.626v0.011H39.536v-0.011c0-15.124,6.148-28.798,16.101-38.668
			c0.37-0.37,0.74-0.73,1.121-1.09c1.521-1.419,3.115-2.756,4.781-3.999c0.514-0.381,1.038-0.762,1.563-1.121
			c1.08-0.74,2.19-1.449,3.321-2.107c0.535-0.319,1.08-0.628,1.625-0.926c0.01-0.021,0.031-0.021,0.031-0.021
			c0.442-0.236,0.874-0.493,1.306-0.761c0.329-0.185,0.647-0.38,0.956-0.597c0.946-0.607,1.871-1.265,2.745-1.963v-0.011
			c4.966-3.958,8.811-9.253,10.991-15.35c0.812-2.252,1.388-4.617,1.717-7.054c0.195-1.501,0.298-3.032,0.298-4.585l7.989,0.041
			l8.132,0.041c0,1.522,0.103,3.013,0.288,4.482c0.318,2.427,0.884,4.791,1.676,7.032c2.169,6.107,5.994,11.423,10.949,15.412
			c0.37,0.288,0.74,0.576,1.121,0.854c0,0,0.01,0,0.021,0.011c0.288,0.226,0.586,0.432,0.885,0.627
			c0.082,0.071,0.174,0.134,0.267,0.185c0.082,0.062,0.154,0.113,0.236,0.165c0.031,0.021,0.062,0.041,0.093,0.062
			c0.339,0.226,0.689,0.442,1.038,0.658c0.422,0.257,0.853,0.514,1.285,0.75c0.072,0.021,0.134,0.052,0.186,0.093
			c0.483,0.268,0.967,0.545,1.439,0.833c0.627,0.359,1.244,0.74,1.851,1.131c1.079,0.699,2.118,1.419,3.146,2.2h0.021
			c2.076,1.552,4.04,3.249,5.87,5.079C142.493,168.9,148.611,182.533,148.611,197.626z"/>
		<path style="fill:#EFC7A1;" d="M148.611,197.626H39.536c0-15.124,6.148-28.798,16.101-38.668c0.37-0.37,0.74-0.73,1.121-1.09
			c1.521-1.419,3.115-2.756,4.781-3.999c0.514-0.381,1.038-0.762,1.563-1.121c1.08-0.74,2.18-1.449,3.31-2.118
			c0.535-0.318,1.08-0.627,1.625-0.925c0.021-0.021,0.041-0.011,0.041-0.011v-0.01c0.874-0.483,1.737-1.008,2.57-1.563
			c0.391-0.257,0.771-0.524,1.151-0.812c0.041-0.02,0.072-0.052,0.113-0.072c0.277-0.206,0.555-0.422,0.833-0.647
			c0.103-0.083,0.206-0.165,0.309-0.247h0.01c0.01,0.011,0.01,0.011,0.021,0.02c0.658,0.679,1.357,1.316,2.077,1.933
			c0,0.011,0,0.011,0.01,0.011c1.82,1.532,3.825,2.848,5.984,3.907c3.886,1.912,8.256,2.991,12.882,3.002h0.083
			c8.225,0,15.659-3.394,21.004-8.832l0.011-0.01l0.01-0.011c0.381,0.318,0.771,0.617,1.173,0.915
			c0.267,0.206,0.545,0.401,0.833,0.597c0.082,0.062,0.174,0.123,0.267,0.185c0.082,0.062,0.154,0.113,0.236,0.165
			c0.031,0.021,0.062,0.041,0.093,0.062c0.339,0.226,0.689,0.442,1.038,0.658c0.422,0.257,0.853,0.503,1.285,0.74
			c0.072,0.021,0.124,0.062,0.186,0.092c0.483,0.268,0.977,0.545,1.449,0.833c0.628,0.37,1.244,0.751,1.841,1.142
			c1.079,0.688,2.118,1.419,3.146,2.189h0.021c2.076,1.553,4.04,3.26,5.87,5.09C142.493,168.9,148.611,182.533,148.611,197.626z"/>
		<g>
			<path style="fill:#543E36;" d="M121.704,150.609l-0.01,0.011l-1.121,1.141c-7.053,7.186-16.46,11.135-26.495,11.146
				c-0.01,0-0.01,0-0.021,0c-10.148-0.021-19.545-3.989-26.567-11.166l-1.069-1.1l-0.01-0.011c0.535-0.318,1.08-0.627,1.625-0.925
				c0.021-0.021,0.041-0.011,0.041-0.011v-0.01c0.442-0.247,0.874-0.494,1.306-0.751c0.318-0.195,0.637-0.391,0.956-0.597
				c0.103-0.071,0.206-0.144,0.309-0.216c0.391-0.257,0.781-0.524,1.151-0.812c0.041-0.02,0.072-0.052,0.113-0.072
				c0.277-0.216,0.565-0.432,0.833-0.647c0.103-0.083,0.206-0.165,0.309-0.247c0.01,0.011,0.01,0.011,0.02,0.02h0.01v0.011
				c0.658,0.678,1.347,1.315,2.077,1.922c0,0.011,0,0.011,0.01,0.011c1.82,1.532,3.825,2.858,5.984,3.907
				c3.886,1.912,8.256,2.991,12.882,3.002h0.083c8.225,0,15.659-3.394,21.004-8.832l0.011-0.01l0.01-0.011
				c0.36,0.298,0.72,0.586,1.101,0.874c0,0,0.01,0,0.021,0.011c0.011,0.01,0.031,0.02,0.052,0.03
				c0.267,0.206,0.545,0.401,0.833,0.597c0.082,0.062,0.174,0.123,0.267,0.185c0.082,0.062,0.154,0.113,0.236,0.165
				c0.031,0.021,0.062,0.041,0.093,0.062c0.339,0.226,0.689,0.442,1.038,0.658c0.422,0.257,0.853,0.503,1.285,0.74
				c0.072,0.021,0.124,0.062,0.186,0.092C120.739,150.044,121.232,150.321,121.704,150.609z"/>
		</g>
		<path style="fill:#B08874;" d="M135.934,56.412v24.51c0,2.303-0.164,4.575-0.473,6.806c-0.751,5.552-2.406,10.827-4.688,15.689
			c-0.668,1.429-1.388,2.828-2.159,4.185c-0.175,0.309-0.35,0.617-0.525,0.915c-1.563,2.632-3.3,5.12-5.161,7.413
			c-0.473,0.597-0.966,1.183-1.47,1.748c-5.274,6.056-11.402,10.672-17.283,13.293c-3.526,1.563-6.981,2.417-10.096,2.417
			c-3.095,0-6.508-0.833-10.004-2.375c-5.912-2.612-12.081-7.249-17.396-13.335c-0.545-0.628-1.08-1.265-1.604-1.923
			c-2.395-2.981-4.585-6.271-6.446-9.798c-0.453-0.864-0.884-1.737-1.295-2.622c-0.247-0.524-0.483-1.059-0.709-1.594
			c-0.36-0.812-0.689-1.645-1.008-2.478c-0.987-2.632-1.789-5.377-2.365-8.194c-0.226-1.1-0.421-2.211-0.565-3.342
			c-0.309-2.231-0.473-4.503-0.473-6.806v-24.51H135.934z"/>
		<path style="fill:#141720;" d="M51.189,87.938L51.189,87.938c3.072,0,5.562-2.49,5.562-5.562V55.67h-5.562V87.938z"/>
		<path style="fill:#141720;" d="M131.4,55.67h5.561v32.269l0,0c-3.071,0-5.561-2.49-5.561-5.562V55.67z"/>
		<circle style="fill:#141720;" cx="83.661" cy="57.387" r="6.71"/>
		<circle style="fill:#141720;" cx="68.146" cy="55.868" r="6.71"/>
		<circle style="fill:#141720;" cx="52.217" cy="58.47" r="6.71"/>
		<circle style="fill:#141720;" cx="103.253" cy="56.661" r="6.71"/>
		<circle style="fill:#141720;" cx="123.541" cy="56.661" r="6.71"/>
		<circle style="fill:#141720;" cx="137.462" cy="63.018" r="6.709"/>
		<circle style="fill:#141720;" cx="94.075" cy="57.892" r="5.104"/>
		<circle style="fill:#141720;" cx="59.49" cy="57.387" r="5.104"/>
		<circle style="fill:#141720;" cx="76.951" cy="57.387" r="5.104"/>
		<circle style="fill:#141720;" cx="113.786" cy="58.992" r="5.104"/>
		<circle style="fill:#141720;" cx="130.251" cy="58.992" r="5.104"/>
		<path style="fill:#1A1A1A;" d="M129.303,69.095c0-0.164-0.124-0.308-0.288-0.329c-1.419-0.216-7.783-1.09-14.62-1.09
			c-7.772,0-17.797,2.436-19.545,2.436h-1.553c-0.812,0-3.423-0.535-6.765-1.09c-3.835-0.647-8.627-1.347-12.77-1.347
			c-5.007,0-9.768,0.473-12.502,0.802c-1.007,0.124-1.737,0.226-2.118,0.288c-0.175,0.021-0.298,0.165-0.298,0.329l-0.082,4.174
			c0,0.154,0.092,0.278,0.226,0.339l0.473,0.165c0.699,0.267,0.638,12.841,4.391,15.987c2.231,1.851,4.215,2.91,12.563,2.91
			c4.843,0,7.886-1.306,10.775-5.202c2.087-2.796,3.928-9.418,3.928-9.418c0.565-2.725,2.591-2.941,2.919-2.961
			c0.021,0,0.042,0,0.042,0c0.062,0,2.354,0.041,2.951,2.961c0,0,1.851,6.621,3.928,9.418c2.889,3.896,5.932,5.202,10.774,5.202
			c8.349,0,10.333-1.059,12.563-2.91c3.753-3.146,3.691-15.72,4.391-15.987l0.473-0.165c0.134-0.062,0.226-0.185,0.226-0.339
			L129.303,69.095z"/>
	</g>
	<circle style="clip-path:url(#SVGID_2_);fill:#141720;" cx="144.234" cy="92.913" r="7.521"/>
	<circle style="clip-path:url(#SVGID_2_);fill:#141720;" cx="151.755" cy="55.763" r="5.104"/>
	<circle style="clip-path:url(#SVGID_2_);fill:#141720;" cx="150.561" cy="74.98" r="5.104"/>
</g>
<g>
</g>
<g>
</g>
<g>
</g>
<g>
</g>
<g>
</g>
<g>
</g>
<g>
</g>
<g>
</g>
<g>
</g>
<g>
</g>
<g>
</g>
<g>
</g>
<g>
</g>
<g>
</g>
<g>
</g>
</svg>
