<svg xmlns="http://www.w3.org/2000/svg" xmlns:xlink="http://www.w3.org/1999/xlink" viewBox="0 0 188.149 188.149"><defs><circle id="a" cx="94.075" cy="94.075" r="94.074"/></defs><use fill="#7ddbd4" overflow="visible" xlink:href="#a"/><clipPath id="b"><use overflow="visible" xlink:href="#a"/></clipPath><g clip-path="url(#b)"><path fill="#141720" d="M151.952 66.682c0 1.625-.072 3.229-.195 4.822-.227 2.704-.638 5.346-1.213 7.927-.802 3.588-1.943 7.043-3.383 10.333-1.357 3.136-2.992 6.127-4.863 8.934-1.49 2.242-3.136 4.37-4.914 6.374-.442.494-.885.977-1.337 1.45-1.48 1.573-3.054 3.043-4.698 4.421-.422.36-.843.71-1.275 1.049-2.046 1.634-4.215 3.136-6.477 4.472-.699.422-1.419.823-2.139 1.214-5.799 3.125-12.194 5.284-18.959 6.261-2.745.411-5.563.617-8.42.617-2.817 0-5.583-.206-8.287-.597-6.827-.977-13.273-3.146-19.113-6.281-.956-.524-1.902-1.06-2.817-1.625-2.787-1.707-5.408-3.64-7.855-5.788-.268-.227-.545-.463-.802-.709-1.83-1.655-3.557-3.434-5.161-5.315-.298-.35-.596-.699-.884-1.059-2.416-2.971-4.545-6.179-6.343-9.592-.175-.329-.339-.658-.504-.987-1.398-2.786-2.581-5.706-3.527-8.729-.185-.606-.36-1.213-.524-1.82-.864-3.126-1.471-6.354-1.789-9.674-.051-.555-.103-1.11-.144-1.676-.082-1.327-.134-2.673-.134-4.021 0-.812.021-1.614.052-2.416.01-.401.031-.791.062-1.192.154-2.622.493-5.203.997-7.721.113-.566.236-1.131.36-1.687.463-2.005 1.028-3.979 1.697-5.891.236-.699.493-1.398.761-2.077.812-2.108 1.758-4.154 2.807-6.128.833-1.573 1.738-3.105 2.714-4.585.627-.966 1.285-1.902 1.974-2.827.75-1.018 1.542-2.005 2.365-2.961 1.439-1.697 2.971-3.3 4.585-4.792.555-.524 1.11-1.028 1.686-1.521 2.169-1.881 4.472-3.599 6.909-5.13.822-.524 1.655-1.028 2.508-1.501 1.234-.699 2.498-1.358 3.794-1.964.802-.38 1.614-.74 2.437-1.08 2.426-1.007 4.924-1.851 7.505-2.529 1.295-.339 2.611-.627 3.948-.873 2.015-.38 4.061-.658 6.148-.823 1.048-.082 2.107-.134 3.177-.154.463-.01.925-.02 1.398-.02 1.11 0 2.21.031 3.3.093.699.041 1.398.092 2.087.154 2.91.268 5.747.751 8.503 1.44.638.154 1.265.319 1.892.494 3.115.884 6.117 2.015 8.996 3.382.822.391 1.625.792 2.427 1.224 1.501.791 2.95 1.655 4.369 2.581.247.165.504.329.751.494 1.974 1.336 3.876 2.796 5.665 4.37 1.192 1.018 2.323 2.097 3.413 3.229 1.707 1.737 3.301 3.578 4.761 5.521.298.38.586.761.852 1.151 1.44 1.995 2.745 4.071 3.918 6.241.216.391.421.792.616 1.182 1.923 3.753 3.444 7.732 4.514 11.896.545 2.118.967 4.277 1.265 6.477.36 2.596.544 5.249.544 7.942z"/><path fill="#141720" d="M58.639 105.803c0 .051 0 .103-.01.154-.051 1.861-1.09 3.465-2.622 4.308-.196.113-.391.216-.607.288-.576.237-1.213.36-1.871.36-2.817 0-5.1-2.292-5.1-5.11 0-.483.072-.956.195-1.408.124-.432.309-.843.535-1.213.884-1.48 2.509-2.478 4.37-2.478.462 0 .905.062 1.326.175.658.164 1.254.462 1.769.863.442.339.822.74 1.141 1.203.555.812.874 1.799.874 2.858zM44.646 50.767c0 .987-.288 1.913-.782 2.694-.895 1.45-2.498 2.406-4.328 2.406-.802 0-1.553-.185-2.231-.514-.37-.175-.709-.401-1.018-.648-1.131-.936-1.851-2.354-1.851-3.938 0-2.282 1.491-4.205 3.537-4.863.494-.165 1.018-.247 1.563-.247.195 0 .391.011.586.042 2.282.247 4.102 2.005 4.452 4.256.051.267.072.534.072.812zM73.249 16.664c0 1.11-.36 2.149-.957 2.981-.699.977-1.748 1.696-2.95 1.984-.381.093-.782.144-1.193.144-2.447 0-4.493-1.717-4.986-4.02-.082-.35-.124-.72-.124-1.09 0-.452.062-.884.175-1.295.566-2.19 2.57-3.804 4.935-3.804.545 0 1.059.082 1.552.237.853.277 1.604.761 2.201 1.408.833.905 1.347 2.118 1.347 3.455z"/><circle cx="121.308" cy="18.853" r="5.104" fill="#141720"/><path fill="#141720" d="M43.597 67.68c0 .648-.124 1.275-.35 1.84-.74 1.912-2.591 3.27-4.76 3.27-.72 0-1.399-.144-2.015-.411-.422-.185-.812-.432-1.172-.709-1.162-.936-1.912-2.375-1.912-3.989 0-1.738.864-3.27 2.19-4.195.226-.154.473-.298.73-.411.658-.319 1.398-.494 2.18-.494 2.159 0 4.01 1.336 4.75 3.229.236.574.359 1.211.359 1.87z"/><circle cx="133.152" cy="107.931" r="5.104" fill="#141720"/><circle cx="138.402" cy="101.993" r="5.104" fill="#141720"/><circle cx="126.407" cy="112.201" r="5.104" fill="#141720"/><path fill="#141720" d="M99.579 10.135c0 1.902-1.038 3.558-2.581 4.432-.75.432-1.614.678-2.529.678-.134 0-.257 0-.391-.021-.998-.072-1.913-.432-2.663-1.007-1.244-.925-2.046-2.416-2.046-4.082 0-.401.041-.781.134-1.151.267-1.193.966-2.221 1.912-2.92.75-.576 1.665-.936 2.663-1.007.134-.021.257-.021.391-.021 1.748 0 3.29.874 4.205 2.21.37.535.648 1.152.792 1.81.072.349.113.709.113 1.079z"/><circle cx="143.506" cy="35.72" r="5.104" fill="#141720"/><path fill="#141720" d="M56.007 96.889c0 .833-.134 1.624-.391 2.375-.185.576-.442 1.11-.761 1.614-1.059 1.696-2.786 2.94-4.812 3.362-.452.102-.936.154-1.419.154-.041.01-.092.01-.133.01-4.154 0-7.526-3.362-7.526-7.516 0-1.224.298-2.386.813-3.403.154-.309.329-.606.535-.884 1.357-1.954 3.619-3.238 6.179-3.238.216 0 .432.01.647.031 1.552.133 2.972.74 4.112 1.676 1.687 1.377 2.756 3.475 2.756 5.819zM70.185 108.641c0 3.31-2.138 6.118-5.11 7.115-.391.134-.791.236-1.213.298-.391.072-.792.103-1.203.103-3.496 0-6.426-2.375-7.259-5.603-.092-.318-.165-.658-.195-.997-.041-.298-.062-.607-.062-.915 0-2.077.843-3.948 2.19-5.305.144-.144.288-.278.432-.391 1.316-1.152 3.023-1.83 4.894-1.83 4.154-.001 7.526 3.371 7.526 7.525zM52.162 42.429c0 4.154-3.362 7.526-7.516 7.526h-.072c-2.025-.021-3.866-.843-5.212-2.18-.556-.535-1.028-1.172-1.388-1.871-.545-1.039-.854-2.221-.854-3.475 0-3.115 1.902-5.788 4.606-6.919.894-.391 1.882-.596 2.92-.596.339 0 .668.021.997.072 3.331.432 5.963 3.043 6.426 6.364.062.349.093.709.093 1.079z"/><circle cx="113.786" cy="15.242" r="7.521" fill="#141720"/><path fill="#141720" d="M84.476 13.744c0 .966-.185 1.892-.524 2.745-1.09 2.796-3.814 4.781-7.002 4.781-1.758 0-3.383-.607-4.658-1.625-1.614-1.265-2.683-3.177-2.827-5.356-.021-.175-.031-.36-.031-.545 0-.668.092-1.326.267-1.943.843-3.208 3.763-5.573 7.248-5.573 1.162 0 2.262.268 3.239.74 1.316.617 2.416 1.604 3.167 2.838.71 1.141 1.121 2.488 1.121 3.938zM48.43 76.666c0 1.789-.627 3.434-1.676 4.719-1.378 1.706-3.485 2.796-5.85 2.796-.73 0-1.45-.103-2.118-.309-.524-.144-1.038-.359-1.511-.627-2.313-1.275-3.886-3.742-3.886-6.58 0-1.922.72-3.671 1.912-4.997.298-.36.648-.689 1.028-.966 1.265-.987 2.858-1.563 4.575-1.563.822 0 1.604.134 2.344.38 3.002.978 5.182 3.816 5.182 7.147z"/><circle cx="134.066" cy="30.285" r="7.521" fill="#141720"/><circle cx="145.111" cy="46.687" r="7.522" fill="#141720"/><path fill="#141720" d="M69.434 22.76c0 4.154-3.372 7.526-7.526 7.526-.607 0-1.193-.072-1.758-.216-2.776-.658-4.956-2.868-5.583-5.665-.124-.524-.185-1.08-.185-1.645 0-.133 0-.267.021-.401.195-3.968 3.485-7.115 7.505-7.115.442 0 .884.041 1.306.123.884.144 1.717.453 2.457.884 1.943 1.121 3.331 3.074 3.671 5.377.062.372.092.742.092 1.132zM49.622 86.885c0 .884-.174 1.737-.483 2.509-.997 2.457-3.414 4.195-6.23 4.195h-.092c-.36-.01-.699-.041-1.039-.103-3.167-.535-5.583-3.29-5.583-6.601 0-1.347.391-2.591 1.08-3.64.278-.432.607-.832.987-1.193 1.203-1.172 2.837-1.881 4.647-1.881 1.429 0 2.755.453 3.845 1.213 1.738 1.214 2.868 3.219 2.868 5.501zM55.143 35.715c0 2.365-1.224 4.441-3.074 5.634-1.049.689-2.303 1.079-3.64 1.079-2.272 0-4.277-1.131-5.501-2.858-.761-1.09-1.213-2.426-1.213-3.855 0-.072 0-.134.01-.206.083-3.064 2.242-5.604 5.11-6.302.504-.134 1.039-.196 1.594-.196.535 0 1.059.062 1.553.186 2.899.688 5.068 3.249 5.151 6.323.01.061.01.133.01.195z"/><circle cx="103.253" cy="12.143" r="6.71" fill="#141720"/><path fill="#141720" d="M47.679 59.496c0 1.121-.267 2.169-.75 3.095-.771 1.491-2.087 2.653-3.691 3.218-.709.257-1.48.401-2.272.401-1.84 0-3.506-.74-4.719-1.943-.247-.246-.473-.504-.669-.781-.833-1.11-1.316-2.488-1.316-3.989 0-1.881.771-3.578 2.025-4.791.411-.411.874-.761 1.377-1.039.977-.555 2.098-.874 3.3-.874 1.039 0 2.025.236 2.899.668.946.442 1.769 1.1 2.406 1.923.886 1.13 1.41 2.559 1.41 4.112z"/><circle cx="149.53" cy="65.179" r="6.709" fill="#141720"/><circle cx="145.111" cy="83.371" r="6.709" fill="#141720"/><path fill="#141720" d="M60.243 29.011c0 .36-.031.72-.093 1.059-.411 2.673-2.416 4.812-5.017 5.449-.514.134-1.049.195-1.604.195-2.56 0-4.791-1.44-5.912-3.557-.483-.884-.761-1.882-.782-2.951-.01-.062-.01-.134-.01-.196 0-3.711 3.002-6.713 6.704-6.713.298 0 .586.021.874.062.647.083 1.275.257 1.851.524 2.354 1.029 3.989 3.384 3.989 6.128z"/><circle cx="129.223" cy="23.847" r="6.71" fill="#141720"/><path fill="#141720" d="M92.804 10.135c0 1.532-.514 2.951-1.388 4.082-1.224 1.604-3.146 2.632-5.315 2.632-.751 0-1.48-.124-2.149-.36-2.498-.833-4.328-3.095-4.544-5.809-.011-.185-.021-.36-.021-.545 0-1.141.288-2.221.802-3.167 1.121-2.107 3.352-3.537 5.912-3.537 2.169 0 4.092 1.028 5.315 2.632.617.792 1.059 1.738 1.265 2.766.082.422.123.854.123 1.306z"/><path fill="#b08874" d="M148.611 197.626v.011H39.536v-.011c0-15.124 6.148-28.798 16.101-38.668.37-.37.74-.73 1.121-1.09 1.521-1.419 3.115-2.756 4.781-3.999.514-.381 1.038-.762 1.563-1.121 1.08-.74 2.19-1.449 3.321-2.107.535-.319 1.08-.628 1.625-.926.01-.021.031-.021.031-.021.442-.236.874-.493 1.306-.761.329-.185.647-.38.956-.597.946-.607 1.871-1.265 2.745-1.963v-.011c4.966-3.958 8.811-9.253 10.991-15.35.812-2.252 1.388-4.617 1.717-7.054.195-1.501.298-3.032.298-4.585l7.989.041 8.132.041c0 1.522.103 3.013.288 4.482.318 2.427.884 4.791 1.676 7.032 2.169 6.107 5.994 11.423 10.949 15.412.37.288.74.576 1.121.854 0 0 .01 0 .021.011.288.226.586.432.885.627.082.071.174.134.267.185.082.062.154.113.236.165l.093.062c.339.226.689.442 1.038.658.422.257.853.514 1.285.75.072.021.134.052.186.093.483.268.967.545 1.439.833.627.359 1.244.74 1.851 1.131 1.079.699 2.118 1.419 3.146 2.2h.021c2.076 1.552 4.04 3.249 5.87 5.079 9.908 9.871 16.026 23.504 16.026 38.597z"/><path fill="#efc7a1" d="M148.611 197.626H39.536c0-15.124 6.148-28.798 16.101-38.668.37-.37.74-.73 1.121-1.09 1.521-1.419 3.115-2.756 4.781-3.999.514-.381 1.038-.762 1.563-1.121 1.08-.74 2.18-1.449 3.31-2.118.535-.318 1.08-.627 1.625-.925.021-.021.041-.011.041-.011v-.01c.874-.483 1.737-1.008 2.57-1.563.391-.257.771-.524 1.151-.812.041-.02.072-.052.113-.072.277-.206.555-.422.833-.647l.309-.247h.01c.01.011.01.011.021.02.658.679 1.357 1.316 2.077 1.933 0 .011 0 .011.01.011 1.82 1.532 3.825 2.848 5.984 3.907 3.886 1.912 8.256 2.991 12.882 3.002h.083c8.225 0 15.659-3.394 21.004-8.832l.011-.01.01-.011c.381.318.771.617 1.173.915.267.206.545.401.833.597.082.062.174.123.267.185.082.062.154.113.236.165l.093.062c.339.226.689.442 1.038.658.422.257.853.503 1.285.74.072.021.124.062.186.092.483.268.977.545 1.449.833.628.37 1.244.751 1.841 1.142 1.079.688 2.118 1.419 3.146 2.189h.021c2.076 1.553 4.04 3.26 5.87 5.09 9.909 9.869 16.027 23.502 16.027 38.595z"/><path fill="#543e36" d="M121.704 150.609l-.01.011-1.121 1.141c-7.053 7.186-16.46 11.135-26.495 11.146h-.021c-10.148-.021-19.545-3.989-26.567-11.166l-1.069-1.1-.01-.011c.535-.318 1.08-.627 1.625-.925.021-.021.041-.011.041-.011v-.01c.442-.247.874-.494 1.306-.751.318-.195.637-.391.956-.597l.309-.216c.391-.257.781-.524 1.151-.812.041-.02.072-.052.113-.072.277-.216.565-.432.833-.647l.309-.247.02.02h.01v.011c.658.678 1.347 1.315 2.077 1.922 0 .011 0 .011.01.011 1.82 1.532 3.825 2.858 5.984 3.907 3.886 1.912 8.256 2.991 12.882 3.002h.083c8.225 0 15.659-3.394 21.004-8.832l.011-.01.01-.011c.36.298.72.586 1.101.874 0 0 .01 0 .021.011.011.01.031.02.052.03.267.206.545.401.833.597.082.062.174.123.267.185.082.062.154.113.236.165l.093.062c.339.226.689.442 1.038.658.422.257.853.503 1.285.74.072.021.124.062.186.092.482.268.975.545 1.447.833z"/><path fill="#b08874" d="M135.934 56.412v24.51c0 2.303-.164 4.575-.473 6.806-.751 5.552-2.406 10.827-4.688 15.689-.668 1.429-1.388 2.828-2.159 4.185-.175.309-.35.617-.525.915-1.563 2.632-3.3 5.12-5.161 7.413-.473.597-.966 1.183-1.47 1.748-5.274 6.056-11.402 10.672-17.283 13.293-3.526 1.563-6.981 2.417-10.096 2.417-3.095 0-6.508-.833-10.004-2.375-5.912-2.612-12.081-7.249-17.396-13.335-.545-.628-1.08-1.265-1.604-1.923-2.395-2.981-4.585-6.271-6.446-9.798-.453-.864-.884-1.737-1.295-2.622-.247-.524-.483-1.059-.709-1.594-.36-.812-.689-1.645-1.008-2.478-.987-2.632-1.789-5.377-2.365-8.194-.226-1.1-.421-2.211-.565-3.342-.309-2.231-.473-4.503-.473-6.806v-24.51h83.72z"/><path fill="#141720" d="M51.189 87.938c3.072 0 5.562-2.49 5.562-5.562V55.67h-5.562v32.268zM131.4 55.67h5.561v32.269c-3.071 0-5.561-2.49-5.561-5.562V55.67z"/><circle cx="83.661" cy="57.387" r="6.71" fill="#141720"/><circle cx="68.146" cy="55.868" r="6.71" fill="#141720"/><circle cx="52.217" cy="58.47" r="6.71" fill="#141720"/><circle cx="103.253" cy="56.661" r="6.71" fill="#141720"/><circle cx="123.541" cy="56.661" r="6.71" fill="#141720"/><circle cx="137.462" cy="63.018" r="6.709" fill="#141720"/><circle cx="94.075" cy="57.892" r="5.104" fill="#141720"/><circle cx="59.49" cy="57.387" r="5.104" fill="#141720"/><circle cx="76.951" cy="57.387" r="5.104" fill="#141720"/><circle cx="113.786" cy="58.992" r="5.104" fill="#141720"/><circle cx="130.251" cy="58.992" r="5.104" fill="#141720"/><path fill="#1a1a1a" d="M129.303 69.095c0-.164-.124-.308-.288-.329-1.419-.216-7.783-1.09-14.62-1.09-7.772 0-17.797 2.436-19.545 2.436h-1.553c-.812 0-3.423-.535-6.765-1.09-3.835-.647-8.627-1.347-12.77-1.347-5.007 0-9.768.473-12.502.802-1.007.124-1.737.226-2.118.288-.175.021-.298.165-.298.329l-.082 4.174c0 .154.092.278.226.339l.473.165c.699.267.638 12.841 4.391 15.987 2.231 1.851 4.215 2.91 12.563 2.91 4.843 0 7.886-1.306 10.775-5.202 2.087-2.796 3.928-9.418 3.928-9.418.565-2.725 2.591-2.941 2.919-2.961h.042c.062 0 2.354.041 2.951 2.961 0 0 1.851 6.621 3.928 9.418 2.889 3.896 5.932 5.202 10.774 5.202 8.349 0 10.333-1.059 12.563-2.91 3.753-3.146 3.691-15.72 4.391-15.987l.473-.165c.134-.062.226-.185.226-.339l-.082-4.173z"/></g><circle cx="144.234" cy="92.913" r="7.521" fill="#141720" clip-path="url(#b)"/><circle cx="151.755" cy="55.763" r="5.104" fill="#141720" clip-path="url(#b)"/><circle cx="150.561" cy="74.98" r="5.104" fill="#141720" clip-path="url(#b)"/></svg>