<svg xmlns="http://www.w3.org/2000/svg" width="168" height="29" viewBox="0 0 168 29">
  <g fill="#FFFFFF" fill-rule="evenodd" transform="translate(-1 -7)">
    <path d="M1.8159375,18.1017969 C1.8159375,24.3717969 6.3159375,29.2017969 12.8259375,29.2017969 C18.2559375,29.2017969 21.1959375,25.7517969 21.1959375,25.7517969 L19.1559375,22.9617969 C19.1559375,22.9617969 16.6659375,25.6617969 12.9759375,25.6617969 C8.5359375,25.6617969 5.8059375,22.0917969 5.8059375,18.0417969 C5.8059375,14.0817969 8.4459375,10.7217969 12.9459375,10.7217969 C16.3359375,10.7217969 18.7659375,12.9717969 18.7659375,12.9717969 L20.6259375,10.0917969 C20.6259375,10.0917969 17.9559375,7.18179687 12.7659375,7.18179687 C6.4959375,7.18179687 1.8159375,11.9217969 1.8159375,18.1017969 Z M22.0259376,21.1917969 C22.0259376,16.5117969 25.7759376,13.1817969 30.4259376,13.1817969 C35.1059376,13.1817969 38.8559376,16.5117969 38.8559376,21.1917969 C38.8559376,25.9017969 35.1059376,29.2017969 30.4559376,29.2017969 C25.7759376,29.2017969 22.0259376,25.9017969 22.0259376,21.1917969 Z M25.8959376,21.1917969 C25.8959376,24.0417969 27.9659376,25.9617969 30.4559376,25.9617969 C32.9159376,25.9617969 34.9859376,24.0417969 34.9859376,21.1917969 C34.9859376,18.3717969 32.9159376,16.4217969 30.4559376,16.4217969 C27.9659376,16.4217969 25.8959376,18.3717969 25.8959376,21.1917969 Z M44.3659376,28.8417969 L38.8159376,13.5417969 L42.8359376,13.5417969 L46.0159376,23.0217969 C46.3159376,23.9217969 46.5259376,25.3317969 46.5559376,25.3317969 L46.6159376,25.3317969 C46.6459376,25.3317969 46.8559376,23.9217969 47.1559376,23.0217969 L50.3359376,13.5417969 L54.3559376,13.5417969 L48.8659376,28.8417969 L44.3659376,28.8417969 Z M54.4059377,21.1917969 C54.4059377,16.4817969 57.6159377,13.1817969 62.1759377,13.1817969 C66.5859377,13.1817969 68.9559377,16.3917969 68.9559377,20.4417969 C68.9559377,20.8917969 68.8659377,21.9117969 68.8659377,21.9117969 L58.3059377,21.9117969 C58.5459377,24.5817969 60.6159377,25.9617969 62.8959377,25.9617969 C65.3559377,25.9617969 67.3059377,24.2817969 67.3059377,24.2817969 L68.7759377,27.0117969 C68.7759377,27.0117969 66.4359377,29.2017969 62.6259377,29.2017969 C57.5559377,29.2017969 54.4059377,25.5417969 54.4059377,21.1917969 Z M58.4259377,19.3017969 L65.1159377,19.3017969 C65.0559377,17.2317969 63.7659377,16.1217969 62.0859377,16.1217969 C60.1359377,16.1217969 58.7859377,17.3217969 58.4259377,19.3017969 Z M75.1197933,16.3745499 L74.7659377,15.7756858 L74.7659377,16.1817969 C74.7659377,16.7517969 74.7059377,17.2617969 74.7059377,17.2617969 L74.7659377,17.2617969 C74.8622497,16.956111 74.9807727,16.6591926 75.1197933,16.3745499 Z M74.7659377,15.7756858 L75.1197933,16.3745499 C75.9767465,14.6199504 77.612561,13.3317969 79.6259377,13.3317969 C79.9859377,13.3317969 80.3159377,13.3917969 80.3159377,13.3917969 L80.3159377,17.1417969 C80.3159377,17.1417969 79.9259377,17.0817969 79.4159377,17.0817969 C77.7959377,17.0817969 75.9659377,18.0117969 75.2459377,20.2917969 C75.0059377,21.0417969 74.9159377,21.8817969 74.9159377,22.7817969 L74.9159377,28.8417969 L71.1059377,28.8417969 L71.1059377,13.5417969 L74.7659377,13.5417969 L74.7659377,15.7756858 Z"/>
    <path d="M84.6459375,28.8417969 L96.4959375,28.8417969 L96.4959375,26.9817969 L86.7159375,26.9817969 L86.7159375,7.75179688 L84.6459375,7.75179688 L84.6459375,28.8417969 Z M97.3559376,24.7317969 C97.3559376,19.6317969 103.985938,19.5117969 106.595938,19.5117969 L107.435938,19.5117969 L107.435938,19.1217969 C107.435938,16.2117969 105.845938,15.2217969 103.685938,15.2217969 C101.195938,15.2217969 99.4259376,16.6617969 99.4259376,16.6617969 L98.4659376,15.1017969 C98.4659376,15.1017969 100.445938,13.3917969 103.835938,13.3917969 C107.465938,13.3917969 109.475938,15.4017969 109.475938,19.1817969 L109.475938,28.8417969 L107.525938,28.8417969 L107.525938,27.1917969 C107.525938,26.4417969 107.585938,25.9317969 107.585938,25.9317969 L107.525938,25.9317969 C107.525938,25.9317969 106.265938,29.2017969 102.485938,29.2017969 C99.9659376,29.2017969 97.3559376,27.7317969 97.3559376,24.7317969 Z M99.4559376,24.6117969 C99.4559376,26.0217969 100.565938,27.4617969 102.815938,27.4617969 C105.695938,27.4617969 107.435938,24.4617969 107.435938,21.8517969 L107.435938,21.1917969 L106.565938,21.1917969 C104.195938,21.1917969 99.4559376,21.2817969 99.4559376,24.6117969 Z M110.935938,34.2417969 C110.935938,34.2417969 112.015938,35.1417969 113.575938,35.1417969 C115.585938,35.1417969 117.145938,33.9117969 117.925938,31.9917969 L125.365938,13.7517969 L123.145938,13.7517969 L118.795938,24.7617969 C118.495938,25.5117969 118.285938,26.3517969 118.285938,26.3517969 L118.225938,26.3517969 C118.225938,26.3517969 117.985938,25.5117969 117.685938,24.7617969 L113.245938,13.7517969 L110.995938,13.7517969 L117.295938,28.7217969 L116.365938,30.8517969 C115.765938,32.2317969 114.835938,33.3117969 113.515938,33.3117969 C112.555938,33.3117969 111.715938,32.6217969 111.715938,32.6217969 L110.935938,34.2417969 Z M126.045938,21.2217969 C126.045938,16.7517969 129.615938,13.3917969 134.025938,13.3917969 C138.435938,13.3917969 142.005938,16.7517969 142.005938,21.2217969 C142.005938,25.7817969 138.435938,29.2017969 134.025938,29.2017969 C129.615938,29.2017969 126.045938,25.7817969 126.045938,21.2217969 Z M128.145938,21.2217969 C128.145938,24.7317969 130.785938,27.3717969 134.025938,27.3717969 C137.265938,27.3717969 139.905938,24.7317969 139.905938,21.2217969 C139.905938,17.8017969 137.265938,15.2517969 134.025938,15.2517969 C130.785938,15.2517969 128.145938,17.8017969 128.145938,21.2217969 Z M155.128792,26.2037329 L155.555938,27.0651725 L155.555938,26.5917969 C155.555938,25.9317969 155.615938,25.3917969 155.615938,25.3917969 L155.555938,25.3917969 C155.45363,25.6424518 155.311198,25.9184018 155.128792,26.2037329 Z M155.555938,27.0651725 L155.128792,26.2037329 C154.241453,27.5917651 152.408128,29.2017969 149.645938,29.2017969 C146.105938,29.2017969 144.605938,27.2817969 144.605938,23.3517969 L144.605938,13.7517969 L146.645938,13.7517969 L146.645938,22.8117969 C146.645938,25.1817969 147.005938,27.2817969 149.915938,27.2817969 C153.365938,27.2817969 155.495938,24.2517969 155.495938,20.9817969 L155.495938,13.7517969 L157.535938,13.7517969 L157.535938,28.8417969 L155.555938,28.8417969 L155.555938,27.0651725 Z M162.025938,23.3517969 C162.025938,28.3917969 165.535938,28.9617969 167.275938,28.9617969 C167.815938,28.9617969 168.145938,28.9017969 168.145938,28.9017969 L168.145938,27.0717969 C168.145938,27.0717969 167.875938,27.1317969 167.455938,27.1317969 C166.315938,27.1317969 164.065938,26.6817969 164.065938,23.1417969 L164.065938,15.6417969 L167.845938,15.6417969 L167.845938,13.9317969 L164.065938,13.9317969 L164.065938,9.58179688 L162.055938,9.58179688 L162.055938,13.9317969 L160.045938,13.9317969 L160.045938,15.6417969 L162.025938,15.6417969 L162.025938,23.3517969 Z" opacity=".527"/>
  </g>
</svg>
