<svg xmlns="http://www.w3.org/2000/svg" width="168" height="29" viewBox="0 0 168 29"><g fill="#FFF" fill-rule="evenodd"><path d="M.816 11.102c0 6.27 4.5 11.1 11.01 11.1 5.43 0 8.37-3.45 8.37-3.45l-2.04-2.79s-2.49 2.7-6.18 2.7c-4.44 0-7.17-3.57-7.17-7.62 0-3.96 2.64-7.32 7.14-7.32 3.39 0 5.82 2.25 5.82 2.25l1.86-2.88s-2.67-2.91-7.86-2.91c-6.27 0-10.95 4.74-10.95 10.92zm20.21 3.09c0-4.68 3.75-8.01 8.4-8.01 4.68 0 8.43 3.33 8.43 8.01 0 4.71-3.75 8.01-8.4 8.01-4.68 0-8.43-3.3-8.43-8.01zm3.87 0c0 2.85 2.07 4.77 4.56 4.77 2.46 0 4.53-1.92 4.53-4.77 0-2.82-2.07-4.77-4.53-4.77-2.49 0-4.56 1.95-4.56 4.77zm18.47 7.65l-5.55-15.3h4.02l3.18 9.48c.3.9.51 2.31.54 2.31h.06c.03 0 .24-1.41.54-2.31l3.18-9.48h4.02l-5.49 15.3h-4.5zm10.04-7.65c0-4.71 3.21-8.01 7.77-8.01 4.41 0 6.78 3.21 6.78 7.26 0 .45-.09 1.47-.09 1.47h-10.56c.24 2.67 2.31 4.05 4.59 4.05 2.46 0 4.41-1.68 4.41-1.68l1.47 2.73s-2.34 2.19-6.15 2.19c-5.07 0-8.22-3.66-8.22-8.01zm4.02-1.89h6.69c-.06-2.07-1.35-3.18-3.03-3.18-1.95 0-3.3 1.2-3.66 3.18zM74.12 9.375l-.354-.6v.407c0 .57-.06 1.08-.06 1.08h.06c.096-.306.215-.603.354-.887zm-.354-.6l.354.6c.857-1.755 2.493-3.043 4.506-3.043.36 0 .69.06.69.06v3.75s-.39-.06-.9-.06c-1.62 0-3.45.93-4.17 3.21-.24.75-.33 1.59-.33 2.49v6.06h-3.81v-15.3h3.66v2.234z"/><path d="M83.646 21.842h11.85v-1.86h-9.78V.752h-2.07v21.09zm12.71-4.11c0-5.1 6.63-5.22 9.24-5.22h.84v-.39c0-2.91-1.59-3.9-3.75-3.9-2.49 0-4.26 1.44-4.26 1.44l-.96-1.56s1.98-1.71 5.37-1.71c3.63 0 5.64 2.01 5.64 5.79v9.66h-1.95v-1.65c0-.75.06-1.26.06-1.26h-.06s-1.26 3.27-5.04 3.27c-2.52 0-5.13-1.47-5.13-4.47zm2.1-.12c0 1.41 1.11 2.85 3.36 2.85 2.88 0 4.62-3 4.62-5.61v-.66h-.87c-2.37 0-7.11.09-7.11 3.42zm11.48 9.63s1.08.9 2.64.9c2.01 0 3.57-1.23 4.35-3.15l7.44-18.24h-2.22l-4.35 11.01c-.3.75-.51 1.59-.51 1.59h-.06s-.24-.84-.54-1.59l-4.44-11.01h-2.25l6.3 14.97-.93 2.13c-.6 1.38-1.53 2.46-2.85 2.46-.96 0-1.8-.69-1.8-.69l-.78 1.62zm15.11-13.02c0-4.47 3.57-7.83 7.98-7.83s7.98 3.36 7.98 7.83c0 4.56-3.57 7.98-7.98 7.98s-7.98-3.42-7.98-7.98zm2.1 0c0 3.51 2.64 6.15 5.88 6.15 3.24 0 5.88-2.64 5.88-6.15 0-3.42-2.64-5.97-5.88-5.97-3.24 0-5.88 2.55-5.88 5.97zm26.983 4.982l.427.861v-.473c0-.66.06-1.2.06-1.2h-.06c-.102.25-.245.526-.427.812zm.427.861l-.427-.861c-.888 1.388-2.72 2.998-5.483 2.998-3.54 0-5.04-1.92-5.04-5.85v-9.6h2.04v9.06c0 2.37.36 4.47 3.27 4.47 3.45 0 5.58-3.03 5.58-6.3v-7.23h2.04v15.09h-1.98v-1.777zm6.47-3.713c0 5.04 3.51 5.61 5.25 5.61.54 0 .87-.06.87-.06v-1.83s-.27.06-.69.06c-1.14 0-3.39-.45-3.39-3.99v-7.5h3.78v-1.71h-3.78v-4.35h-2.01v4.35h-2.01v1.71h1.98v7.71z" opacity=".527"/></g></svg>