<svg xmlns="http://www.w3.org/2000/svg" width="181" height="42" viewBox="0 0 181 42"><defs><linearGradient id="a" x1="102.454%" x2="-2.592%" y1="69.595%" y2="12.26%"><stop offset="0%" stop-color="#1E87F0"/><stop offset="100%" stop-color="#2AC4EE"/></linearGradient><linearGradient id="b" x1="27.337%" x2="86.222%" y1="25.624%" y2="74.536%"><stop offset="0%" stop-color="#42BEF9"/><stop offset="100%" stop-color="#1F8AF0"/></linearGradient></defs><g fill="none" fill-rule="evenodd"><path fill="#FFF" d="M62.948 28.308V10.733h5.675c5.275 0 8.825 3.225 8.825 8.775 0 5.6-3.55 8.8-8.825 8.8h-5.675zm1.725-1.55h3.775c4.325 0 7.2-2.55 7.2-7.25 0-4.675-2.9-7.225-7.2-7.225h-3.775v14.475zm14.42-1.875c0-4.25 5.525-4.35 7.7-4.35h.7v-.325c0-2.425-1.325-3.25-3.125-3.25-2.075 0-3.55 1.2-3.55 1.2l-.8-1.3s1.65-1.425 4.475-1.425c3.025 0 4.7 1.675 4.7 4.825v8.05h-1.625v-1.375c0-.625.05-1.05.05-1.05h-.05s-1.05 2.725-4.2 2.725c-2.1 0-4.275-1.225-4.275-3.725zm1.75-.1c0 1.175.925 2.375 2.8 2.375 2.4 0 3.85-2.5 3.85-4.675v-.55h-.725c-1.975 0-5.925.075-5.925 2.85zm10.42 2s1.6 1.825 4.65 1.825c2.525 0 4.3-1.475 4.3-3.525 0-4.15-6.775-3.4-6.775-6.175 0-1.4 1.225-1.95 2.5-1.95 2.075 0 3.15 1.15 3.15 1.15l.775-1.3s-1.225-1.375-3.875-1.375c-2.275 0-4.3 1.225-4.3 3.475 0 4.1 6.775 3.425 6.775 6.175 0 1.325-1.175 2-2.525 2-2.35 0-3.75-1.525-3.75-1.525l-.925 1.225zm13.333-8.912l-.363-.716v.378c0 .575-.05 1.025-.05 1.025h.05c.084-.211.205-.445.363-.687zm-.363-.716l.363.716c.739-1.13 2.29-2.438 4.637-2.438 3.1 0 4.2 1.775 4.2 4.875v8h-1.7v-7.55c0-1.975-.3-3.725-2.725-3.725-2.15 0-4 1.475-4.575 3.575-.15.5-.2 1.075-.2 1.675v6.025h-1.7V10.733h1.7v6.422zm12.295 11.153V10.733h1.7v6.1c0 .575-.05 1.025-.05 1.025h.05s1.05-2.425 4.275-2.425c3.375 0 5.475 2.7 5.475 6.6 0 3.975-2.375 6.575-5.675 6.575-3 0-4.125-2.45-4.125-2.45h-.05s.05.425.05 1.025v1.125h-1.65zm1.65-6.25c0 2.525 1.3 5.05 4 5.05 2.225 0 4.05-1.875 4.05-5.075 0-3.075-1.625-5.05-3.975-5.05-2.1 0-4.075 1.5-4.075 5.075zm11.32-.1c0-3.725 2.975-6.525 6.65-6.525 3.675 0 6.65 2.8 6.65 6.525 0 3.8-2.975 6.65-6.65 6.65-3.675 0-6.65-2.85-6.65-6.65zm1.75 0c0 2.925 2.2 5.125 4.9 5.125s4.9-2.2 4.9-5.125c0-2.85-2.2-4.975-4.9-4.975s-4.9 2.125-4.9 4.975zm12.87 2.925c0-4.25 5.525-4.35 7.7-4.35h.7v-.325c0-2.425-1.325-3.25-3.125-3.25-2.075 0-3.55 1.2-3.55 1.2l-.8-1.3s1.65-1.425 4.475-1.425c3.025 0 4.7 1.675 4.7 4.825v8.05h-1.625v-1.375c0-.625.05-1.05.05-1.05h-.05s-1.05 2.725-4.2 2.725c-2.1 0-4.275-1.225-4.275-3.725zm1.75-.1c0 1.175.925 2.375 2.8 2.375 2.4 0 3.85-2.5 3.85-4.675v-.55h-.725c-1.975 0-5.925.075-5.925 2.85zm13.437-6.632l-.317-.525v.332c0 .55-.05 1-.05 1h.05c.089-.28.195-.55.317-.807zm-.317-.525l.317.525c.708-1.489 1.974-2.543 3.658-2.543.35 0 .675.075.675.075v1.675s-.3-.05-.625-.05c-1.775 0-3.1 1.4-3.65 3.25-.25.8-.35 1.65-.35 2.45v5.3h-1.7V15.733h1.675v1.893zm5.57 4.382c0-3.975 2.35-6.575 5.65-6.575 3.05 0 4.1 2.375 4.1 2.375h.05s-.05-.425-.05-.95v-6.125h1.7v17.575h-1.65v-1.325c0-.55.05-.9.05-.9h-.05s-1.025 2.525-4.325 2.525c-3.375 0-5.475-2.7-5.475-6.6zm1.75 0c0 3.1 1.625 5.075 3.975 5.075 2.1 0 4.075-1.5 4.075-5.075 0-2.55-1.3-5.05-4-5.05-2.225 0-4.05 1.875-4.05 5.05z"/><g fill-rule="nonzero"><path fill="url(#a)" d="M35.781 11.218l-7.499-4.242-7.825 4.732 7.603 4.09 7.721-4.58zm3.586 1.827l-7.744 4.585L40.4 22.57v13.047l-11.836 6.548-11.7-6.548V25.433L9.02 21.64v18.43l19.263 11.138 19.963-11.055V18.038l-8.878-4.993z" opacity=".139" transform="rotate(-31 10.07 36.757)"/><path fill="url(#a)" d="M38.348 11.218l-7.5-4.242-7.825 4.732 7.604 4.09 7.72-4.58zm3.586 1.827L34.19 17.63l8.776 4.939v13.047L31.13 42.164l-11.699-6.548V25.433l-7.845-3.793v18.43l19.263 11.138 19.963-11.055V18.038l-8.878-4.993z" opacity=".284" transform="rotate(-31 12.638 36.757)"/><path fill="url(#b)" d="M40.914 11.218l-7.499-4.242-7.825 4.732 7.603 4.09 7.721-4.58zm3.586 1.827l-7.744 4.585 8.777 4.939v13.047l-11.837 6.548-11.699-6.548V25.433l-7.845-3.793v18.43l19.263 11.138 19.963-11.055V18.038L44.5 13.045z" transform="rotate(-31 15.204 36.757)"/></g></g></svg>