<svg xmlns="http://www.w3.org/2000/svg" width="181" height="42" viewBox="0 0 181 42">
  <defs>
    <linearGradient id="a" x1="102.454%" x2="-2.592%" y1="69.595%" y2="12.26%">
      <stop stop-color="#1E87F0" offset="0%"/>
      <stop stop-color="#2AC4EE" offset="100%"/>
    </linearGradient>
    <linearGradient id="b" x1="27.337%" x2="86.222%" y1="25.624%" y2="74.536%">
      <stop stop-color="#42BEF9" offset="0%"/>
      <stop stop-color="#1F8AF0" offset="100%"/>
    </linearGradient>
  </defs>
  <g fill="none" fill-rule="evenodd" transform="translate(-127 -237)">
    <path fill="#FFFFFF" d="M189.948333,265.308284 L189.948333,247.733284 L195.623333,247.733284 C200.898333,247.733284 204.448333,250.958284 204.448333,256.508284 C204.448333,262.108284 200.898333,265.308284 195.623333,265.308284 L189.948333,265.308284 Z M191.673333,263.758284 L195.448333,263.758284 C199.773333,263.758284 202.648333,261.208284 202.648333,256.508284 C202.648333,251.833284 199.748333,249.283284 195.448333,249.283284 L191.673333,249.283284 L191.673333,263.758284 Z M206.093333,261.883284 C206.093333,257.633284 211.618333,257.533284 213.793333,257.533284 L214.493333,257.533284 L214.493333,257.208284 C214.493333,254.783284 213.168333,253.958284 211.368333,253.958284 C209.293333,253.958284 207.818333,255.158284 207.818333,255.158284 L207.018333,253.858284 C207.018333,253.858284 208.668333,252.433284 211.493333,252.433284 C214.518333,252.433284 216.193333,254.108284 216.193333,257.258284 L216.193333,265.308284 L214.568333,265.308284 L214.568333,263.933284 C214.568333,263.308284 214.618333,262.883284 214.618333,262.883284 L214.568333,262.883284 C214.568333,262.883284 213.518333,265.608284 210.368333,265.608284 C208.268333,265.608284 206.093333,264.383284 206.093333,261.883284 Z M207.843333,261.783284 C207.843333,262.958284 208.768333,264.158284 210.643333,264.158284 C213.043333,264.158284 214.493333,261.658284 214.493333,259.483284 L214.493333,258.933284 L213.768333,258.933284 C211.793333,258.933284 207.843333,259.008284 207.843333,261.783284 Z M218.263333,263.783284 C218.263333,263.783284 219.863333,265.608284 222.913333,265.608284 C225.438333,265.608284 227.213333,264.133284 227.213333,262.083284 C227.213333,257.933284 220.438333,258.683284 220.438333,255.908284 C220.438333,254.508284 221.663333,253.958284 222.938333,253.958284 C225.013333,253.958284 226.088333,255.108284 226.088333,255.108284 L226.863333,253.808284 C226.863333,253.808284 225.638333,252.433284 222.988333,252.433284 C220.713333,252.433284 218.688333,253.658284 218.688333,255.908284 C218.688333,260.008284 225.463333,259.333284 225.463333,262.083284 C225.463333,263.408284 224.288333,264.083284 222.938333,264.083284 C220.588333,264.083284 219.188333,262.558284 219.188333,262.558284 L218.263333,263.783284 Z M231.595723,254.871432 L231.233333,254.155159 L231.233333,254.533284 C231.233333,255.108284 231.183333,255.558284 231.183333,255.558284 L231.233333,255.558284 C231.31697,255.346989 231.437813,255.113216 231.595723,254.871432 Z M231.233333,254.155159 L231.595723,254.871432 C232.334628,253.740061 233.885159,252.433284 236.233333,252.433284 C239.333333,252.433284 240.433333,254.208284 240.433333,257.308284 L240.433333,265.308284 L238.733333,265.308284 L238.733333,257.758284 C238.733333,255.783284 238.433333,254.033284 236.008333,254.033284 C233.858333,254.033284 232.008333,255.508284 231.433333,257.608284 C231.283333,258.108284 231.233333,258.683284 231.233333,259.283284 L231.233333,265.308284 L229.533333,265.308284 L229.533333,247.733284 L231.233333,247.733284 L231.233333,254.155159 Z M243.528333,265.308284 L243.528333,247.733284 L245.228333,247.733284 L245.228333,253.833284 C245.228333,254.408284 245.178333,254.858284 245.178333,254.858284 L245.228333,254.858284 C245.228333,254.858284 246.278333,252.433284 249.503333,252.433284 C252.878333,252.433284 254.978333,255.133284 254.978333,259.033284 C254.978333,263.008284 252.603333,265.608284 249.303333,265.608284 C246.303333,265.608284 245.178333,263.158284 245.178333,263.158284 L245.128333,263.158284 C245.128333,263.158284 245.178333,263.583284 245.178333,264.183284 L245.178333,265.308284 L243.528333,265.308284 Z M245.178333,259.058284 C245.178333,261.583284 246.478333,264.108284 249.178333,264.108284 C251.403333,264.108284 253.228333,262.233284 253.228333,259.033284 C253.228333,255.958284 251.603333,253.983284 249.253333,253.983284 C247.153333,253.983284 245.178333,255.483284 245.178333,259.058284 Z M256.498333,258.958284 C256.498333,255.233284 259.473333,252.433284 263.148333,252.433284 C266.823333,252.433284 269.798333,255.233284 269.798333,258.958284 C269.798333,262.758284 266.823333,265.608284 263.148333,265.608284 C259.473333,265.608284 256.498333,262.758284 256.498333,258.958284 Z M258.248333,258.958284 C258.248333,261.883284 260.448333,264.083284 263.148333,264.083284 C265.848333,264.083284 268.048333,261.883284 268.048333,258.958284 C268.048333,256.108284 265.848333,253.983284 263.148333,253.983284 C260.448333,253.983284 258.248333,256.108284 258.248333,258.958284 Z M271.118333,261.883284 C271.118333,257.633284 276.643333,257.533284 278.818333,257.533284 L279.518333,257.533284 L279.518333,257.208284 C279.518333,254.783284 278.193333,253.958284 276.393333,253.958284 C274.318333,253.958284 272.843333,255.158284 272.843333,255.158284 L272.043333,253.858284 C272.043333,253.858284 273.693333,252.433284 276.518333,252.433284 C279.543333,252.433284 281.218333,254.108284 281.218333,257.258284 L281.218333,265.308284 L279.593333,265.308284 L279.593333,263.933284 C279.593333,263.308284 279.643333,262.883284 279.643333,262.883284 L279.593333,262.883284 C279.593333,262.883284 278.543333,265.608284 275.393333,265.608284 C273.293333,265.608284 271.118333,264.383284 271.118333,261.883284 Z M272.868333,261.783284 C272.868333,262.958284 273.793333,264.158284 275.668333,264.158284 C278.068333,264.158284 279.518333,261.658284 279.518333,259.483284 L279.518333,258.933284 L278.793333,258.933284 C276.818333,258.933284 272.868333,259.008284 272.868333,261.783284 Z M286.304976,255.150849 L285.988333,254.626052 L285.988333,254.958284 C285.988333,255.508284 285.938333,255.958284 285.938333,255.958284 L285.988333,255.958284 C286.076749,255.678301 286.182536,255.408089 286.304976,255.150849 Z M285.988333,254.626052 L286.304976,255.150849 C287.013426,253.662428 288.279368,252.608284 289.963333,252.608284 C290.313333,252.608284 290.638333,252.683284 290.638333,252.683284 L290.638333,254.358284 C290.638333,254.358284 290.338333,254.308284 290.013333,254.308284 C288.238333,254.308284 286.913333,255.708284 286.363333,257.558284 C286.113333,258.358284 286.013333,259.208284 286.013333,260.008284 L286.013333,265.308284 L284.313333,265.308284 L284.313333,252.733284 L285.988333,252.733284 L285.988333,254.626052 Z M291.558333,259.008284 C291.558333,255.033284 293.908333,252.433284 297.208333,252.433284 C300.258333,252.433284 301.308333,254.808284 301.308333,254.808284 L301.358333,254.808284 C301.358333,254.808284 301.308333,254.383284 301.308333,253.858284 L301.308333,247.733284 L303.008333,247.733284 L303.008333,265.308284 L301.358333,265.308284 L301.358333,263.983284 C301.358333,263.433284 301.408333,263.083284 301.408333,263.083284 L301.358333,263.083284 C301.358333,263.083284 300.333333,265.608284 297.033333,265.608284 C293.658333,265.608284 291.558333,262.908284 291.558333,259.008284 Z M293.308333,259.008284 C293.308333,262.108284 294.933333,264.083284 297.283333,264.083284 C299.383333,264.083284 301.358333,262.583284 301.358333,259.008284 C301.358333,256.458284 300.058333,253.958284 297.358333,253.958284 C295.133333,253.958284 293.308333,255.833284 293.308333,259.008284 Z"/>
    <g fill-rule="nonzero" transform="translate(120.401 228.535)">
      <path fill="url(#a)" d="M35.7811626,11.2182011 L28.2824599,6.97648139 L20.4569272,11.7083475 L28.0602829,15.7973253 L35.7811626,11.2182011 Z M39.367099,13.0448389 L31.6232355,17.630228 L40.3999921,22.5689817 L40.3999921,35.615585 L28.5636287,42.1643934 L16.8645553,35.615585 L16.8645553,25.4327429 L9.01940971,21.6397024 L9.01940971,40.0706064 L28.2824599,51.2079362 L48.2451377,40.1532422 L48.2451377,18.0375894 L39.367099,13.0448389 Z" opacity=".139" transform="rotate(-31 28.632 29.092)"/>
      <path fill="url(#a)" d="M38.3475755,11.2181806 L30.8488728,6.97646081 L23.0233401,11.7083269 L30.6266958,15.7973047 L38.3475755,11.2181806 Z M41.9335119,13.0448184 L34.1896484,17.6302074 L42.966405,22.5689611 L42.966405,35.6155645 L31.1300416,42.1643728 L19.4309682,35.6155645 L19.4309682,25.4327223 L11.5858226,21.6396818 L11.5858226,40.0705858 L30.8488728,51.2079156 L50.8115506,40.1532216 L50.8115506,18.0375688 L41.9335119,13.0448184 Z" opacity=".284" transform="rotate(-31 31.199 29.092)"/>
      <path fill="url(#b)" d="M40.9139884,11.21816 L33.4152857,6.97644024 L25.589753,11.7083063 L33.1931087,15.7972842 L40.9139884,11.21816 Z M44.4999249,13.0447978 L36.7560613,17.6301868 L45.5328179,22.5689405 L45.5328179,35.6155439 L33.6964545,42.1643522 L21.9973811,35.6155439 L21.9973811,25.4327017 L14.1522355,21.6396613 L14.1522355,40.0705653 L33.4152857,51.207895 L53.3779635,40.153201 L53.3779635,18.0375482 L44.4999249,13.0447978 Z" transform="rotate(-31 33.765 29.092)"/>
    </g>
  </g>
</svg>
