<svg xmlns="http://www.w3.org/2000/svg" width="359" height="115" viewBox="0 0 359 115">
  <defs>
    <linearGradient id="a" x1="27.337%" x2="86.222%" y1="16.62%" y2="83.6%">
      <stop stop-color="#42BEF9" offset="0%"/>
      <stop stop-color="#1F8AF0" offset="100%"/>
    </linearGradient>
  </defs>
  <g fill="none" fill-rule="evenodd" transform="translate(3 -14)">
    <path fill="#EEF7FF" fill-rule="nonzero" d="M52.1400038,8.57636177 L37.5302587,1.13686838e-13 L22.2837497,9.56739194 L37.0973906,17.8349239 L52.1400038,8.57636177 Z M59.1264945,12.2696531 L44.0391018,21.5408821 L61.1388832,31.5265816 L61.1388832,57.905597 L38.0780607,71.1466768 L15.2847208,57.905597 L15.2847208,37.3168397 L0,29.6476656 L0,66.9132348 L37.5302587,89.431877 L76.423604,67.0803166 L76.423604,22.3645289 L59.1264945,12.2696531 Z" transform="rotate(-31 153.43 -271.99)"/>
    <path fill="#CCE7FF" fill-rule="nonzero" d="M52.1400038,8.57636177 L37.5302587,1.13686838e-13 L22.2837497,9.56739194 L37.0973906,17.8349239 L52.1400038,8.57636177 Z M59.1264945,12.2696531 L44.0391018,21.5408821 L61.1388832,31.5265816 L61.1388832,57.905597 L38.0780607,71.1466768 L15.2847208,57.905597 L15.2847208,37.3168397 L0,29.6476656 L0,66.9132348 L37.5302587,89.431877 L76.423604,67.0803166 L76.423604,22.3645289 L59.1264945,12.2696531 Z" transform="rotate(-31 155.93 -281.005)"/>
    <path fill="url(#a)" fill-rule="nonzero" d="M52.1400038,8.57636177 L37.5302587,1.13686838e-13 L22.2837497,9.56739194 L37.0973906,17.8349239 L52.1400038,8.57636177 Z M59.1264945,12.2696531 L44.0391018,21.5408821 L61.1388832,31.5265816 L61.1388832,57.905597 L38.0780607,71.1466768 L15.2847208,57.905597 L15.2847208,37.3168397 L0,29.6476656 L0,66.9132348 L37.5302587,89.431877 L76.423604,67.0803166 L76.423604,22.3645289 L59.1264945,12.2696531 Z" transform="rotate(-31 158.43 -290.02)"/>
    <path fill="#2C2C2C" d="M57.9000001 98L31.6920001 63.92 56.5560001 33.968 36.2040001 33.968 16.5240001 60.272 16.5240001 33.968.0120000644 33.968.0120000644 98 16.5240001 98 16.5240001 79.28 20.8440001 73.904 37.6440001 98 57.9000001 98zM68.724 47.504C73.428 47.504 77.172 43.664 77.172 38.96 77.172 34.256 73.428 30.512 68.724 30.512 64.02 30.512 60.276 34.256 60.276 38.96 60.276 43.664 64.02 47.504 68.724 47.504zM76.116 98L76.116 51.632 61.332 51.632 61.332 98 76.116 98zM108.06 99.152C118.044 99.152 124.284 94.64 127.068 90.608L117.468 81.584C115.644 84.176 112.668 86.096 108.732 86.096 102.588 86.096 97.884 81.776 97.884 74.768 97.884 67.76 102.588 63.536 108.732 63.536 112.668 63.536 115.644 65.264 117.468 67.952L127.068 59.024C124.284 54.896 118.044 50.48 108.06 50.48 93.564 50.48 82.716 60.272 82.716 74.768 82.716 89.36 93.564 99.152 108.06 99.152zM180.324 98L162.372 72.752 179.46 51.632 161.604 51.632 147.492 70.16 147.492 33.968 132.708 33.968 132.708 98 147.492 98 147.492 86.864 151.908 81.584 162.084 98 180.324 98zM45.4719999 122.192C42.2559999 122.192 39.9039999 119.888 39.9039999 116.672 39.9039999 113.456 42.2559999 111.152 45.4719999 111.152 48.7039999 111.152 51.0559999 113.456 51.0559999 116.672 51.0559999 118.176 50.5439999 119.488 49.6639999 120.448L50.4479999 121.36 48.8639999 122.656 47.9999999 121.664C47.2479999 122 46.3999999 122.192 45.4719999 122.192zM45.4719999 120.176C45.8719999 120.176 46.2399999 120.112 46.5919999 120L45.4239999 118.624 46.9919999 117.328 48.1759999 118.72C48.5279999 118.144 48.7199999 117.44 48.7199999 116.672 48.7199999 114.672 47.4399999 113.168 45.4719999 113.168 43.5039999 113.168 42.2399999 114.672 42.2399999 116.672 42.2399999 118.656 43.5039999 120.176 45.4719999 120.176zM58.1519999 122.192C61.3999999 122.192 62.9679999 120.384 62.9679999 117.728L62.9679999 111.328 60.6479999 111.328 60.6479999 117.664C60.6479999 119.152 59.7999999 120.176 58.1519999 120.176 56.5039999 120.176 55.6399999 119.152 55.6399999 117.664L55.6399999 111.328 53.3359999 111.328 53.3359999 117.744C53.3359999 120.368 54.9039999 122.192 58.1519999 122.192zM68.0159999 122L68.0159999 111.328 65.7439999 111.328 65.7439999 122 68.0159999 122zM75.9759999 122.192C78.3279999 122.192 79.6719999 120.896 80.4399999 119.568L78.4879999 118.624C78.0399999 119.504 77.0799999 120.176 75.9759999 120.176 74.0399999 120.176 72.6319999 118.688 72.6319999 116.672 72.6319999 114.656 74.0399999 113.168 75.9759999 113.168 77.0799999 113.168 78.0399999 113.856 78.4879999 114.72L80.4399999 113.76C79.6879999 112.432 78.3279999 111.152 75.9759999 111.152 72.7759999 111.152 70.2959999 113.392 70.2959999 116.672 70.2959999 119.952 72.7759999 122.192 75.9759999 122.192zM91.6159999 122L87.0879999 116.336 91.3279999 111.328 88.5279999 111.328 84.7519999 116.096 84.7519999 111.328 82.4799999 111.328 82.4799999 122 84.7519999 122 84.7519999 118.72 85.5839999 117.728 88.8159999 122 91.6159999 122zM97.1279999 122.192C100.008 122.192 101.4 120.72 101.4 118.768 101.4 114.784 95.2719999 115.92 95.2719999 114.224 95.2719999 113.584 95.8159999 113.152 96.7919999 113.152 97.8799999 113.152 99.0319999 113.52 99.8959999 114.32L101.16 112.656C100.104 111.68 98.6959999 111.168 96.9999999 111.168 94.4879999 111.168 92.9519999 112.64 92.9519999 114.416 92.9519999 118.432 99.0959999 117.136 99.0959999 119.024 99.0959999 119.632 98.4879999 120.208 97.2399999 120.208 95.7679999 120.208 94.5999999 119.552 93.8479999 118.768L92.6159999 120.496C93.6079999 121.504 95.0799999 122.192 97.1279999 122.192zM108.16 122L105.872 122 105.872 113.328 102.752 113.328 102.752 111.328 111.264 111.328 111.264 113.328 108.16 113.328 108.16 122zM122.328 122L119.736 122 119.08 120.192 114.504 120.192 113.832 122 111.24 122 115.368 111.328 118.216 111.328 122.328 122zM118.456 118.192L116.792 113.6 115.128 118.192 118.456 118.192zM132.64 122L130.032 122 127.936 118.208 126.272 118.208 126.272 122 124 122 124 111.328 128.992 111.328C131.216 111.328 132.576 112.784 132.576 114.768 132.576 116.656 131.392 117.664 130.24 117.936L132.64 122zM128.656 116.208C129.568 116.208 130.256 115.664 130.256 114.768 130.256 113.872 129.568 113.328 128.656 113.328L126.272 113.328 126.272 116.208 128.656 116.208zM139.56 122L139.56 113.328 142.664 113.328 142.664 111.328 134.152 111.328 134.152 113.328 137.272 113.328 137.272 122 139.56 122zM154.824 122L154.824 117.632 158.904 111.328 156.312 111.328 153.688 115.616 151.032 111.328 148.44 111.328 152.552 117.632 152.552 122 154.824 122zM164.992 122.192C161.776 122.192 159.424 119.888 159.424 116.672 159.424 113.456 161.776 111.152 164.992 111.152 168.224 111.152 170.576 113.456 170.576 116.672 170.576 119.888 168.224 122.192 164.992 122.192zM164.992 120.176C166.96 120.176 168.24 118.656 168.24 116.672 168.24 114.672 166.96 113.168 164.992 113.168 163.024 113.168 161.76 114.672 161.76 116.672 161.76 118.656 163.024 120.176 164.992 120.176zM177.672 122.192C180.92 122.192 182.488 120.384 182.488 117.728L182.488 111.328 180.168 111.328 180.168 117.664C180.168 119.152 179.32 120.176 177.672 120.176 176.024 120.176 175.16 119.152 175.16 117.664L175.16 111.328 172.856 111.328 172.856 117.744C172.856 120.368 174.424 122.192 177.672 122.192zM193.904 122L191.296 122 189.2 118.208 187.536 118.208 187.536 122 185.264 122 185.264 111.328 190.256 111.328C192.48 111.328 193.84 112.784 193.84 114.768 193.84 116.656 192.656 117.664 191.504 117.936L193.904 122zM189.92 116.208C190.832 116.208 191.52 115.664 191.52 114.768 191.52 113.872 190.832 113.328 189.92 113.328L187.536 113.328 187.536 116.208 189.92 116.208zM266.288 122L264.016 122 264.016 111.328 269.008 111.328C271.328 111.328 272.592 112.896 272.592 114.768 272.592 116.624 271.312 118.208 269.008 118.208L266.288 118.208 266.288 122zM268.704 116.208C269.6 116.208 270.272 115.648 270.272 114.768 270.272 113.872 269.6 113.328 268.704 113.328L266.288 113.328 266.288 116.208 268.704 116.208zM283.32 122L280.712 122 278.616 118.208 276.952 118.208 276.952 122 274.68 122 274.68 111.328 279.672 111.328C281.896 111.328 283.256 112.784 283.256 114.768 283.256 116.656 282.072 117.664 280.92 117.936L283.32 122zM279.336 116.208C280.248 116.208 280.936 115.664 280.936 114.768 280.936 113.872 280.248 113.328 279.336 113.328L276.952 113.328 276.952 116.208 279.336 116.208zM290.704 122.192C287.488 122.192 285.136 119.888 285.136 116.672 285.136 113.456 287.488 111.152 290.704 111.152 293.936 111.152 296.288 113.456 296.288 116.672 296.288 119.888 293.936 122.192 290.704 122.192zM290.704 120.176C292.672 120.176 293.952 118.656 293.952 116.672 293.952 114.672 292.672 113.168 290.704 113.168 288.736 113.168 287.472 114.672 287.472 116.672 287.472 118.656 288.736 120.176 290.704 120.176zM300.152 122.192C302.344 122.192 303.912 121.024 303.912 118.496L303.912 111.328 301.64 111.328 301.64 118.464C301.64 119.504 300.984 120.176 299.976 120.176 299.24 120.176 298.696 119.808 298.28 119.408L297.288 121.152C298.056 121.904 299.08 122.192 300.152 122.192zM314.256 122L314.256 120 308.976 120 308.976 117.584 314.144 117.584 314.144 115.584 308.976 115.584 308.976 113.328 314.256 113.328 314.256 111.328 306.704 111.328 306.704 122 314.256 122zM321.88 122.192C324.232 122.192 325.576 120.896 326.344 119.568L324.392 118.624C323.944 119.504 322.984 120.176 321.88 120.176 319.944 120.176 318.536 118.688 318.536 116.672 318.536 114.656 319.944 113.168 321.88 113.168 322.984 113.168 323.944 113.856 324.392 114.72L326.344 113.76C325.592 112.432 324.232 111.152 321.88 111.152 318.68 111.152 316.2 113.392 316.2 116.672 316.2 119.952 318.68 122.192 321.88 122.192zM333.136 122L333.136 113.328 336.24 113.328 336.24 111.328 327.728 111.328 327.728 113.328 330.848 113.328 330.848 122 333.136 122z"/>
    <path fill="#36ADF6" d="M205.824,122.192 C209.072,122.192 210.64,120.384 210.64,117.728 L210.64,111.328 L208.32,111.328 L208.32,117.664 C208.32,119.152 207.472,120.176 205.824,120.176 C204.176,120.176 203.312,119.152 203.312,117.664 L203.312,111.328 L201.008,111.328 L201.008,117.744 C201.008,120.368 202.576,122.192 205.824,122.192 Z"/>
    <polygon fill="#36ADF6" points="215.688 122 215.688 111.328 213.416 111.328 213.416 122"/>
    <polygon fill="#36ADF6" points="227.616 122 223.088 116.336 227.328 111.328 224.528 111.328 220.752 116.096 220.752 111.328 218.48 111.328 218.48 122 220.752 122 220.752 118.72 221.584 117.728 224.816 122"/>
    <polygon fill="#36ADF6" points="231.608 122 231.608 111.328 229.336 111.328 229.336 122"/>
    <polygon fill="#36ADF6" points="239.152 122 239.152 113.328 242.256 113.328 242.256 111.328 233.744 111.328 233.744 113.328 236.864 113.328 236.864 122"/>
    <path fill="#36ADF6" d="M252.64,122.192 C255.2,122.192 256.848,120.896 256.848,119.056 C256.848,117.456 255.44,116.608 254.352,116.496 C255.536,116.288 256.688,115.408 256.688,114.064 C256.688,112.288 255.152,111.168 252.656,111.168 C250.784,111.168 249.44,111.888 248.576,112.864 L249.712,114.288 C250.464,113.568 251.392,113.184 252.416,113.184 C253.536,113.184 254.4,113.6 254.4,114.448 C254.4,115.232 253.616,115.584 252.432,115.584 C252.032,115.584 251.296,115.584 251.104,115.568 L251.104,117.616 C251.264,117.6 251.984,117.584 252.432,117.584 C253.92,117.584 254.576,117.968 254.576,118.816 C254.576,119.616 253.856,120.176 252.56,120.176 C251.52,120.176 250.352,119.728 249.616,118.96 L248.432,120.48 C249.216,121.44 250.672,122.192 252.64,122.192 Z"/>
    <path fill="#2C2C2C" d="M301.864,96 L287.08,96 L287.08,62.496 L279.4,62.496 L279.4,49.632 L287.08,49.632 L287.08,47.328 C287.08,37.536 293.992,31.008 303.688,31.008 C308.68,31.008 313.864,32.352 317.032,35.616 L311.56,44.064 C310.408,42.816 309.064,42.24 306.952,42.24 C304.168,42.24 301.864,44.064 301.864,47.328 L301.864,49.632 L311.272,49.632 L311.272,62.496 L301.864,62.496 L301.864,96 Z M337.288,96 L322.504,96 L322.504,62.496 L314.824,62.496 L314.824,49.632 L322.504,49.632 L322.504,47.328 C322.504,37.536 329.416,31.008 339.112,31.008 C344.104,31.008 349.288,32.352 352.456,35.616 L346.984,44.064 C345.832,42.816 344.488,42.24 342.376,42.24 C339.592,42.24 337.288,44.064 337.288,47.328 L337.288,49.632 L346.696,49.632 L346.696,62.496 L337.288,62.496 L337.288,96 Z"/>
  </g>
</svg>
