<svg xmlns="http://www.w3.org/2000/svg" width="330" height="102" viewBox="0 0 330 102">
  <defs>
    <linearGradient id="a" x1="27.337%" x2="86.222%" y1="16.62%" y2="83.6%">
      <stop stop-color="#42BEF9" offset="0%"/>
      <stop stop-color="#1F8AF0" offset="100%"/>
    </linearGradient>
  </defs>
  <g fill="none" fill-rule="evenodd" transform="translate(2 -16)">
    <path fill="url(#a)" fill-rule="nonzero" d="M48.7976959,8.00460432 L35.1244729,1.13686838e-13 L20.8553042,8.92956581 L34.7193527,16.6459289 L48.7976959,8.00460432 Z M55.3363346,11.4516763 L41.2160824,20.1048233 L57.219724,29.4248095 L57.219724,54.0452238 L35.6371594,66.403565 L14.304931,54.0452238 L14.304931,34.8290504 L0,27.6711546 L0,62.4523525 L35.1244729,83.4697519 L71.524655,62.6082955 L71.524655,20.8735603 L55.3363346,11.4516763 Z" transform="rotate(-31 146.938 -265.212)"/>
    <path fill="#2C2C2C" d="M54.2563557 91.9258741L29.692533 60.1496503 52.9966725 32.2223776 33.9214695 32.2223776 15.4761081 56.7482517 15.4761081 32.2223776 0 32.2223776 0 91.9258741 15.4761081 91.9258741 15.4761081 74.4713287 19.5250899 69.4587413 35.2711301 91.9258741 54.2563557 91.9258741zM64.4013044 44.8433566C68.8101957 44.8433566 72.3193132 41.2629371 72.3193132 36.8769231 72.3193132 32.4909091 68.8101957 29 64.4013044 29 59.9924132 29 56.4832956 32.4909091 56.4832956 36.8769231 56.4832956 41.2629371 59.9924132 44.8433566 64.4013044 44.8433566zM71.3295621 91.9258741L71.3295621 48.6923077 57.4730467 48.6923077 57.4730467 91.9258741 71.3295621 91.9258741zM101.269533 93C110.62718 93 116.475709 88.793007 119.085053 85.0335664L110.087315 76.6195804C108.377745 79.0363636 105.588447 80.8265734 101.899374 80.8265734 96.1408226 80.8265734 91.7319313 76.7986014 91.7319313 70.2643357 91.7319313 63.7300699 96.1408226 59.7916084 101.899374 59.7916084 105.588447 59.7916084 108.377745 61.4027972 110.087315 63.9090909L119.085053 55.5846154C116.475709 51.7356643 110.62718 47.6181818 101.269533 47.6181818 87.6829495 47.6181818 77.5155064 56.7482517 77.5155064 70.2643357 77.5155064 83.8699301 87.6829495 93 101.269533 93zM169 91.9258741L152.174231 68.3846154 168.190204 48.6923077 151.454412 48.6923077 138.227739 65.9678322 138.227739 32.2223776 124.371223 32.2223776 124.371223 91.9258741 138.227739 91.9258741 138.227739 81.5426573 142.366698 76.6195804 151.904299 91.9258741 169 91.9258741zM35.0243914 114.543568C32.1533106 114.543568 30 112.57953 30 109.771784 30 106.964039 32.1533106 105 35.0243914 105 37.8954723 105 40.034709 106.964039 40.034709 109.771784 40.034709 111.04426 39.5984173 112.150761 38.8524992 112.966805L39.4436041 113.672199 37.754733 115 37.0651107 114.170124C36.4458579 114.405256 35.7562356 114.543568 35.0243914 114.543568zM35.0243914 112.441217C35.2073525 112.441217 35.3903135 112.427386 35.5732745 112.385892L34.7147651 111.362379 36.3895622 110.034578 37.2762195 111.085754C37.4591806 110.698479 37.571772 110.255878 37.571772 109.771784 37.571772 108.264177 36.5725233 107.102351 35.0243914 107.102351 33.4621857 107.102351 32.462937 108.264177 32.462937 109.771784 32.462937 111.26556 33.4621857 112.441217 35.0243914 112.441217zM46.8324151 114.543568C49.8301612 114.543568 51.2516277 112.925311 51.2516277 110.629322L51.2516277 105.152144 48.8027647 105.152144 48.8027647 110.560166C48.8027647 111.652835 48.1272162 112.441217 46.8324151 112.441217 45.5094661 112.441217 44.8479916 111.652835 44.8479916 110.560166L44.8479916 105.152144 42.3850546 105.152144 42.3850546 110.643154C42.3850546 112.91148 43.8065211 114.543568 46.8324151 114.543568zM56.4871281 114.377593L56.4871281 105.152144 54.0664129 105.152144 54.0664129 114.377593 56.4871281 114.377593zM63.9040869 114.543568C66.1699889 114.543568 67.3944205 113.257261 67.9995993 112.067773L65.9166583 111.099585C65.6070319 111.832642 64.8048182 112.441217 63.9040869 112.441217 62.370029 112.441217 61.2863368 111.279391 61.2863368 109.771784 61.2863368 108.264177 62.370029 107.102351 63.9040869 107.102351 64.8048182 107.102351 65.6070319 107.710927 65.9166583 108.443983L67.9995993 107.475795C67.3803465 106.258645 66.1699889 105 63.9040869 105 61.0189322 105 58.8233998 106.922545 58.8233998 109.771784 58.8233998 112.607192 61.0189322 114.543568 63.9040869 114.543568zM78.653561 114.377593L74.8113793 109.467497 78.456526 105.152144 75.4728538 105.152144 72.5876991 108.941909 72.5876991 105.152144 70.1669839 105.152144 70.1669839 114.377593 72.5876991 114.377593 72.5876991 111.680498 73.2210257 110.905947 75.6839627 114.377593 78.653561 114.377593zM83.9875788 114.543568C86.5068115 114.543568 87.9001302 113.312586 87.9001302 111.459198 87.9001302 108.029046 82.5942602 108.886584 82.5942602 107.710927 82.5942602 107.323651 82.9038866 107.047026 83.6075829 107.047026 84.5364619 107.047026 85.5638585 107.365145 86.3519984 108.001383L87.6749474 106.300138C86.6756986 105.456432 85.3668236 105.013831 83.8609135 105.013831 81.4542722 105.013831 80.1172493 106.396957 80.1172493 107.946058 80.1172493 111.500692 85.4371932 110.49101 85.4371932 111.749654 85.4371932 112.192254 84.9305319 112.510373 84.1001703 112.510373 82.819443 112.510373 81.7779725 111.957123 81.1024241 111.293223L79.8216969 113.077455C80.7646499 113.962656 82.0875989 114.543568 83.9875788 114.543568zM94.4304317 114.377593L94.4304317 107.226833 97.0481819 107.226833 97.0481819 105.152144 89.3778924 105.152144 89.3778924 107.226833 92.0097165 107.226833 92.0097165 114.377593 94.4304317 114.377593zM107.575478 114.377593L104.831063 114.377593 104.366623 113.049793 100.665181 113.049793 100.200741 114.377593 97.4563257 114.377593 100.988881 105.152144 104.028849 105.152144 107.575478 114.377593zM103.705149 110.975104L102.508865 107.503458 101.312581 110.975104 103.705149 110.975104zM117.399078 114.377593L114.626515 114.377593 113.050235 111.279391 111.81173 111.279391 111.81173 114.377593 109.391015 114.377593 109.391015 105.152144 114.091706 105.152144C116.174647 105.152144 117.356857 106.507607 117.356857 108.222683 117.356857 109.827109 116.357608 110.684647 115.485024 110.988935L117.399078 114.377593zM113.725784 109.204703C114.35911 109.204703 114.89392 108.858921 114.89392 108.208852 114.89392 107.586445 114.35911 107.226833 113.725784 107.226833L111.81173 107.226833 111.81173 109.204703 113.725784 109.204703zM124.196784 114.377593L124.196784 107.226833 126.814535 107.226833 126.814535 105.152144 119.144245 105.152144 119.144245 107.226833 121.776069 107.226833 121.776069 114.377593 124.196784 114.377593zM138.805519 114.377593L138.805519 110.656985 142.352149 105.152144 139.607733 105.152144 137.595162 108.554633 135.554443 105.152144 132.824101 105.152144 136.384804 110.656985 136.384804 114.377593 138.805519 114.377593zM148.150606 114.543568C145.279525 114.543568 143.126215 112.57953 143.126215 109.771784 143.126215 106.964039 145.279525 105 148.150606 105 151.021687 105 153.160924 106.964039 153.160924 109.771784 153.160924 112.57953 151.021687 114.543568 148.150606 114.543568zM148.150606 112.441217C149.698738 112.441217 150.697987 111.26556 150.697987 109.771784 150.697987 108.264177 149.698738 107.102351 148.150606 107.102351 146.5884 107.102351 145.589152 108.264177 145.589152 109.771784 145.589152 111.26556 146.5884 112.441217 148.150606 112.441217zM159.95863 114.543568C162.956376 114.543568 164.377842 112.925311 164.377842 110.629322L164.377842 105.152144 161.928979 105.152144 161.928979 110.560166C161.928979 111.652835 161.253431 112.441217 159.95863 112.441217 158.635681 112.441217 157.974206 111.652835 157.974206 110.560166L157.974206 105.152144 155.511269 105.152144 155.511269 110.643154C155.511269 112.91148 156.932736 114.543568 159.95863 114.543568zM175.200691 114.377593L172.428128 114.377593 170.851848 111.279391 169.613343 111.279391 169.613343 114.377593 167.192627 114.377593 167.192627 105.152144 171.893319 105.152144C173.97626 105.152144 175.158469 106.507607 175.158469 108.222683 175.158469 109.827109 174.159221 110.684647 173.286637 110.988935L175.200691 114.377593zM171.527397 109.204703C172.160723 109.204703 172.695532 108.858921 172.695532 108.208852 172.695532 107.586445 172.160723 107.226833 171.527397 107.226833L169.613343 107.226833 169.613343 109.204703 171.527397 109.204703zM245.725133 114.377593L243.304418 114.377593 243.304418 105.152144 248.005109 105.152144C250.116198 105.152144 251.270259 106.549101 251.270259 108.222683 251.270259 109.882434 250.116198 111.279391 248.005109 111.279391L245.725133 111.279391 245.725133 114.377593zM247.681408 109.204703C248.328809 109.204703 248.807322 108.84509 248.807322 108.222683 248.807322 107.586445 248.328809 107.226833 247.681408 107.226833L245.725133 107.226833 245.725133 109.204703 247.681408 109.204703zM261.487929 114.377593L258.715366 114.377593 257.139086 111.279391 255.900581 111.279391 255.900581 114.377593 253.479866 114.377593 253.479866 105.152144 258.180557 105.152144C260.263498 105.152144 261.445708 106.507607 261.445708 108.222683 261.445708 109.827109 260.446459 110.684647 259.573876 110.988935L261.487929 114.377593zM257.814635 109.204703C258.447962 109.204703 258.982771 108.858921 258.982771 108.208852 258.982771 107.586445 258.447962 107.226833 257.814635 107.226833L255.900581 107.226833 255.900581 109.204703 257.814635 109.204703zM268.454523 114.543568C265.583442 114.543568 263.430131 112.57953 263.430131 109.771784 263.430131 106.964039 265.583442 105 268.454523 105 271.325604 105 273.46484 106.964039 273.46484 109.771784 273.46484 112.57953 271.325604 114.543568 268.454523 114.543568zM268.454523 112.441217C270.002655 112.441217 271.001903 111.26556 271.001903 109.771784 271.001903 108.264177 270.002655 107.102351 268.454523 107.102351 266.892317 107.102351 265.893068 108.264177 265.893068 109.771784 265.893068 111.26556 266.892317 112.441217 268.454523 112.441217zM277.307022 114.543568C279.361815 114.543568 280.769208 113.492393 280.769208 111.210235L280.769208 105.152144 278.348492 105.152144 278.348492 111.182573C278.348492 111.957123 277.855905 112.441217 277.095913 112.441217 276.532956 112.441217 276.08259 112.178423 275.744816 111.901798L274.731494 113.713693C275.43519 114.322268 276.364069 114.543568 277.307022 114.543568zM290.466142 114.377593L290.466142 112.302905 286.004708 112.302905 286.004708 110.739972 290.367625 110.739972 290.367625 108.665284 286.004708 108.665284 286.004708 107.226833 290.466142 107.226833 290.466142 105.152144 283.583993 105.152144 283.583993 114.377593 290.466142 114.377593zM297.601623 114.543568C299.867525 114.543568 301.091956 113.257261 301.697135 112.067773L299.614194 111.099585C299.304568 111.832642 298.502354 112.441217 297.601623 112.441217 296.067565 112.441217 294.983873 111.279391 294.983873 109.771784 294.983873 108.264177 296.067565 107.102351 297.601623 107.102351 298.502354 107.102351 299.304568 107.710927 299.614194 108.443983L301.697135 107.475795C301.077882 106.258645 299.867525 105 297.601623 105 294.716468 105 292.520936 106.922545 292.520936 109.771784 292.520936 112.607192 294.716468 114.543568 297.601623 114.543568zM308.38225 114.377593L308.38225 107.226833 311 107.226833 311 105.152144 303.329711 105.152144 303.329711 107.226833 305.961535 107.226833 305.961535 114.377593 308.38225 114.377593z"/>
    <path fill="#39B1F6" d="M186.514286,115 C189.557143,115 191,113.276878 191,110.832106 L191,105 L188.514286,105 L188.514286,110.758468 C188.514286,111.921944 187.828571,112.761414 186.514286,112.761414 C185.171429,112.761414 184.5,111.921944 184.5,110.758468 L184.5,105 L182,105 L182,110.846834 C182,113.26215 183.442857,115 186.514286,115 Z"/>
    <polygon fill="#39B1F6" points="196 114 196 105 194 105 194 114"/>
    <polygon fill="#39B1F6" points="207 114 203.378 109.21 206.814 105 204.002 105 201.282 108.697 201.282 105 199 105 199 114 201.282 114 201.282 111.369 201.879 110.613 204.201 114"/>
    <polygon fill="#39B1F6" points="212 114 212 105 210 105 210 114"/>
    <polygon fill="#39B1F6" points="219.27 114 219.27 107.024 222 107.024 222 105 214 105 214 107.024 216.745 107.024 216.745 114"/>
    <path fill="#39B1F6" d="M232,115 C234.405797,115 236,113.824383 236,112.12627 C236,110.732946 234.753623,109.934688 233.724638,109.833091 C234.869565,109.644412 235.84058,108.788099 235.84058,107.656023 C235.84058,106.059507 234.463768,105 232,105 C230.217391,105 228.942029,105.65312 228.130435,106.567489 L229.333333,108.134978 C230.014493,107.525399 230.855072,107.206096 231.73913,107.206096 C232.666667,107.206096 233.362319,107.481858 233.362319,108.091437 C233.362319,108.599419 232.797101,108.846154 231.797101,108.846154 C231.434783,108.846154 230.681159,108.846154 230.492754,108.83164 L230.492754,111.05225 C230.637681,111.037736 231.376812,111.037736 231.797101,111.037736 C233.115942,111.037736 233.521739,111.298984 233.521739,111.850508 C233.521739,112.387518 232.971014,112.793904 231.898551,112.793904 C231.057971,112.793904 229.956522,112.460087 229.26087,111.777939 L228,113.476052 C228.753623,114.34688 230.144928,115 232,115 Z"/>
    <path fill="#2C2C2C" d="M279.181716,90 L265.241612,90 L265.241612,58.5539143 L258,58.5539143 L258,46.4800591 L265.241612,46.4800591 L265.241612,44.3175775 C265.241612,35.127031 271.759063,29 280.901599,29 C285.608647,29 290.496735,30.2614476 293.4839,33.3249631 L288.324251,41.254062 C287.238009,40.0827179 285.970727,39.5420975 283.979284,39.5420975 C281.3542,39.5420975 279.181716,41.254062 279.181716,44.3175775 L279.181716,46.4800591 L288.052691,46.4800591 L288.052691,58.5539143 L279.181716,58.5539143 L279.181716,90 Z M310.697816,90 L296.757712,90 L296.757712,58.5539143 L289.5161,58.5539143 L289.5161,46.4800591 L296.757712,46.4800591 L296.757712,44.3175775 C296.757712,35.127031 303.275163,29 312.417699,29 C317.124747,29 322.012835,30.2614476 325,33.3249631 L319.840351,41.254062 C318.754109,40.0827179 317.486827,39.5420975 315.495384,39.5420975 C312.870299,39.5420975 310.697816,41.254062 310.697816,44.3175775 L310.697816,46.4800591 L319.568791,46.4800591 L319.568791,58.5539143 L310.697816,58.5539143 L310.697816,90 Z"/>
  </g>
</svg>
