<svg xmlns="http://www.w3.org/2000/svg" width="359" height="115" viewBox="0 0 359 115"><defs><linearGradient id="a" x1="27.337%" x2="86.222%" y1="16.62%" y2="83.6%"><stop offset="0%" stop-color="#42BEF9"/><stop offset="100%" stop-color="#1F8AF0"/></linearGradient></defs><g fill="none" fill-rule="evenodd"><path fill="#EEF7FF" fill-rule="nonzero" d="M214.11 6.67l-16.94.174-8.142 16.053 16.956-.543 8.126-15.683zm7.89-.432l-8.157 15.718 19.8-.248 13.587 22.611-12.947 23.227-26.358.39-10.604-17.648-17.051 1.298 19.193 31.943 43.768-.027 21.826-39.19-23.03-38.33L222 6.238z"/><path fill="#CCE7FF" fill-rule="nonzero" d="M219.11 6.67l-16.94.174-8.141 16.053 16.956-.543L219.11 6.67zm7.89-.432l-8.157 15.718 19.8-.248 13.587 22.611-12.947 23.227-26.358.39-10.604-17.648-17.051 1.298 19.193 31.943 43.768-.027 21.826-39.19-23.03-38.33L227 6.238z"/><path fill="url(#a)" fill-rule="nonzero" d="M52.14 8.576L37.53 0 22.284 9.567l14.813 8.268L52.14 8.576zm6.986 3.694L44.04 21.54l17.1 9.987v26.379l-23.06 13.24-22.794-13.24v-20.59L0 29.649v37.265l37.53 22.519L76.424 67.08V22.365L59.126 12.27z" transform="rotate(-31 134.689 -302.429)"/><path fill="#2C2C2C" d="M60.9 84L34.692 49.92l24.864-29.952H39.204l-19.68 26.304V19.968H3.012V84h16.512V65.28l4.32-5.376L40.644 84H60.9zm10.824-50.496c4.704 0 8.448-3.84 8.448-8.544 0-4.704-3.744-8.448-8.448-8.448-4.704 0-8.448 3.744-8.448 8.448 0 4.704 3.744 8.544 8.448 8.544zM79.116 84V37.632H64.332V84h14.784zm31.944 1.152c9.984 0 16.224-4.512 19.008-8.544l-9.6-9.024c-1.824 2.592-4.8 4.512-8.736 4.512-6.144 0-10.848-4.32-10.848-11.328 0-7.008 4.704-11.232 10.848-11.232 3.936 0 6.912 1.728 8.736 4.416l9.6-8.928c-2.784-4.128-9.024-8.544-19.008-8.544-14.496 0-25.344 9.792-25.344 24.288 0 14.592 10.848 24.384 25.344 24.384zM183.324 84l-17.952-25.248 17.088-21.12h-17.856L150.492 56.16V19.968h-14.784V84h14.784V72.864l4.416-5.28L165.084 84h18.24zM48.472 108.192c-3.216 0-5.568-2.304-5.568-5.52 0-3.216 2.352-5.52 5.568-5.52 3.232 0 5.584 2.304 5.584 5.52 0 1.504-.512 2.816-1.392 3.776l.784.912-1.584 1.296-.864-.992c-.752.336-1.6.528-2.528.528zm0-2.016c.4 0 .768-.064 1.12-.176l-1.168-1.376 1.568-1.296 1.184 1.392c.352-.576.544-1.28.544-2.048 0-2-1.28-3.504-3.248-3.504-1.968 0-3.232 1.504-3.232 3.504 0 1.984 1.264 3.504 3.232 3.504zm12.68 2.016c3.248 0 4.816-1.808 4.816-4.464v-6.4h-2.32v6.336c0 1.488-.848 2.512-2.496 2.512-1.648 0-2.512-1.024-2.512-2.512v-6.336h-2.304v6.416c0 2.624 1.568 4.448 4.816 4.448zm9.864-.192V97.328h-2.272V108h2.272zm7.96.192c2.352 0 3.696-1.296 4.464-2.624l-1.952-.944c-.448.88-1.408 1.552-2.512 1.552-1.936 0-3.344-1.488-3.344-3.504s1.408-3.504 3.344-3.504c1.104 0 2.064.688 2.512 1.552l1.952-.96c-.752-1.328-2.112-2.608-4.464-2.608-3.2 0-5.68 2.24-5.68 5.52 0 3.28 2.48 5.52 5.68 5.52zm15.64-.192l-4.528-5.664 4.24-5.008h-2.8l-3.776 4.768v-4.768H85.48V108h2.272v-3.28l.832-.992L91.816 108h2.8zm5.512.192c2.88 0 4.272-1.472 4.272-3.424 0-3.984-6.128-2.848-6.128-4.544 0-.64.544-1.072 1.52-1.072 1.088 0 2.24.368 3.104 1.168l1.264-1.664c-1.056-.976-2.464-1.488-4.16-1.488-2.512 0-4.048 1.472-4.048 3.248 0 4.016 6.144 2.72 6.144 4.608 0 .608-.608 1.184-1.856 1.184-1.472 0-2.64-.656-3.392-1.44l-1.232 1.728c.992 1.008 2.464 1.696 4.512 1.696zM111.16 108h-2.288v-8.672h-3.12v-2h8.512v2h-3.104V108zm14.168 0h-2.592l-.656-1.808h-4.576l-.672 1.808h-2.592l4.128-10.672h2.848L125.328 108zm-3.872-3.808l-1.664-4.592-1.664 4.592h3.328zM135.64 108h-2.608l-2.096-3.792h-1.664V108H127V97.328h4.992c2.224 0 3.584 1.456 3.584 3.44 0 1.888-1.184 2.896-2.336 3.168l2.4 4.064zm-3.984-5.792c.912 0 1.6-.544 1.6-1.44 0-.896-.688-1.44-1.6-1.44h-2.384v2.88h2.384zM142.56 108v-8.672h3.104v-2h-8.512v2h3.12V108h2.288zm15.264 0v-4.368l4.08-6.304h-2.592l-2.624 4.288-2.656-4.288h-2.592l4.112 6.304V108h2.272zm10.168.192c-3.216 0-5.568-2.304-5.568-5.52 0-3.216 2.352-5.52 5.568-5.52 3.232 0 5.584 2.304 5.584 5.52 0 3.216-2.352 5.52-5.584 5.52zm0-2.016c1.968 0 3.248-1.52 3.248-3.504 0-2-1.28-3.504-3.248-3.504-1.968 0-3.232 1.504-3.232 3.504 0 1.984 1.264 3.504 3.232 3.504zm12.68 2.016c3.248 0 4.816-1.808 4.816-4.464v-6.4h-2.32v6.336c0 1.488-.848 2.512-2.496 2.512-1.648 0-2.512-1.024-2.512-2.512v-6.336h-2.304v6.416c0 2.624 1.568 4.448 4.816 4.448zm16.232-.192h-2.608l-2.096-3.792h-1.664V108h-2.272V97.328h4.992c2.224 0 3.584 1.456 3.584 3.44 0 1.888-1.184 2.896-2.336 3.168l2.4 4.064zm-3.984-5.792c.912 0 1.6-.544 1.6-1.44 0-.896-.688-1.44-1.6-1.44h-2.384v2.88h2.384zM269.288 108h-2.272V97.328h4.992c2.32 0 3.584 1.568 3.584 3.44 0 1.856-1.28 3.44-3.584 3.44h-2.72V108zm2.416-5.792c.896 0 1.568-.56 1.568-1.44 0-.896-.672-1.44-1.568-1.44h-2.416v2.88h2.416zM286.32 108h-2.608l-2.096-3.792h-1.664V108h-2.272V97.328h4.992c2.224 0 3.584 1.456 3.584 3.44 0 1.888-1.184 2.896-2.336 3.168l2.4 4.064zm-3.984-5.792c.912 0 1.6-.544 1.6-1.44 0-.896-.688-1.44-1.6-1.44h-2.384v2.88h2.384zm11.368 5.984c-3.216 0-5.568-2.304-5.568-5.52 0-3.216 2.352-5.52 5.568-5.52 3.232 0 5.584 2.304 5.584 5.52 0 3.216-2.352 5.52-5.584 5.52zm0-2.016c1.968 0 3.248-1.52 3.248-3.504 0-2-1.28-3.504-3.248-3.504-1.968 0-3.232 1.504-3.232 3.504 0 1.984 1.264 3.504 3.232 3.504zm9.448 2.016c2.192 0 3.76-1.168 3.76-3.696v-7.168h-2.272v7.136c0 1.04-.656 1.712-1.664 1.712-.736 0-1.28-.368-1.696-.768l-.992 1.744c.768.752 1.792 1.04 2.864 1.04zm14.104-.192v-2h-5.28v-2.416h5.168v-2h-5.168v-2.256h5.28v-2h-7.552V108h7.552zm7.624.192c2.352 0 3.696-1.296 4.464-2.624l-1.952-.944c-.448.88-1.408 1.552-2.512 1.552-1.936 0-3.344-1.488-3.344-3.504s1.408-3.504 3.344-3.504c1.104 0 2.064.688 2.512 1.552l1.952-.96c-.752-1.328-2.112-2.608-4.464-2.608-3.2 0-5.68 2.24-5.68 5.52 0 3.28 2.48 5.52 5.68 5.52zm11.256-.192v-8.672h3.104v-2h-8.512v2h3.12V108h2.288z"/><path fill="#36ADF6" d="M208.824 108.192c3.248 0 4.816-1.808 4.816-4.464v-6.4h-2.32v6.336c0 1.488-.848 2.512-2.496 2.512-1.648 0-2.512-1.024-2.512-2.512v-6.336h-2.304v6.416c0 2.624 1.568 4.448 4.816 4.448zM218.688 108V97.328h-2.272V108zM230.616 108l-4.528-5.664 4.24-5.008h-2.8l-3.776 4.768v-4.768h-2.272V108h2.272v-3.28l.832-.992 3.232 4.272zM234.608 108V97.328h-2.272V108zM242.152 108v-8.672h3.104v-2h-8.512v2h3.12V108zM255.64 108.192c2.56 0 4.208-1.296 4.208-3.136 0-1.6-1.408-2.448-2.496-2.56 1.184-.208 2.336-1.088 2.336-2.432 0-1.776-1.536-2.896-4.032-2.896-1.872 0-3.216.72-4.08 1.696l1.136 1.424c.752-.72 1.68-1.104 2.704-1.104 1.12 0 1.984.416 1.984 1.264 0 .784-.784 1.136-1.968 1.136-.4 0-1.136 0-1.328-.016v2.048c.16-.016.88-.032 1.328-.032 1.488 0 2.144.384 2.144 1.232 0 .8-.72 1.36-2.016 1.36-1.04 0-2.208-.448-2.944-1.216l-1.184 1.52c.784.96 2.24 1.712 4.208 1.712z"/><path fill="#2C2C2C" d="M304.864 82H290.08V48.496h-7.68V35.632h7.68v-2.304c0-9.792 6.912-16.32 16.608-16.32 4.992 0 10.176 1.344 13.344 4.608l-5.472 8.448c-1.152-1.248-2.496-1.824-4.608-1.824-2.784 0-5.088 1.824-5.088 5.088v2.304h9.408v12.864h-9.408V82zm35.424 0h-14.784V48.496h-7.68V35.632h7.68v-2.304c0-9.792 6.912-16.32 16.608-16.32 4.992 0 10.176 1.344 13.344 4.608l-5.472 8.448c-1.152-1.248-2.496-1.824-4.608-1.824-2.784 0-5.088 1.824-5.088 5.088v2.304h9.408v12.864h-9.408V82z"/></g></svg>