<svg xmlns="http://www.w3.org/2000/svg" width="174" height="52" viewBox="0 0 174 52">
  <defs>
    <linearGradient id="a" x1="27.337%" x2="86.222%" y1="16.62%" y2="83.6%">
      <stop stop-color="#42BEF9" offset="0%"/>
      <stop stop-color="#1F8AF0" offset="100%"/>
    </linearGradient>
  </defs>
  <g fill="none" fill-rule="evenodd" transform="translate(0 -10)">
    <path fill="url(#a)" fill-rule="nonzero" d="M26.0700019,4.28818089 L18.7651293,1.13686838e-13 L11.1418748,4.78369597 L18.5486953,8.91746193 L26.0700019,4.28818089 Z M29.5632472,6.13482657 L22.0195509,10.770441 L30.5694416,15.7632908 L30.5694416,28.9527985 L19.0390303,35.5733384 L7.6423604,28.9527985 L7.6423604,18.6584199 L0,14.8238328 L0,33.4566174 L18.7651293,44.7159385 L38.211802,33.5401583 L38.211802,11.1822644 L29.5632472,6.13482657 Z" transform="rotate(-31 78.143 -141.146)"/>
    <path fill="#2C2C2C" d="M28.95 49L15.846 31.96 28.278 16.984 18.102 16.984 8.26200003 30.136 8.26200003 16.984.00600003219 16.984.00600003219 49 8.26200003 49 8.26200003 39.64 10.422 36.952 18.822 49 28.95 49zM34.362 23.752C36.714 23.752 38.586 21.832 38.586 19.48 38.586 17.128 36.714 15.256 34.362 15.256 32.01 15.256 30.138 17.128 30.138 19.48 30.138 21.832 32.01 23.752 34.362 23.752zM38.058 49L38.058 25.816 30.666 25.816 30.666 49 38.058 49zM54.03 49.576C59.022 49.576 62.142 47.32 63.534 45.304L58.734 40.792C57.822 42.088 56.334 43.048 54.366 43.048 51.294 43.048 48.942 40.888 48.942 37.384 48.942 33.88 51.294 31.768 54.366 31.768 56.334 31.768 57.822 32.632 58.734 33.976L63.534 29.512C62.142 27.448 59.022 25.24 54.03 25.24 46.782 25.24 41.358 30.136 41.358 37.384 41.358 44.68 46.782 49.576 54.03 49.576zM90.162 49L81.186 36.376 89.73 25.816 80.802 25.816 73.746 35.08 73.746 16.984 66.354 16.984 66.354 49 73.746 49 73.746 43.432 75.954 40.792 81.042 49 90.162 49zM18.8199996 61.09C17.2899996 61.09 16.1424996 60.025 16.1424996 58.5025 16.1424996 56.98 17.2899996 55.915 18.8199996 55.915 20.3499996 55.915 21.4899996 56.98 21.4899996 58.5025 21.4899996 59.1925 21.2574996 59.7925 20.8599996 60.235L21.1749996 60.6175 20.2749996 61.3375 19.9074996 60.8875C19.5774996 61.015 19.2099996 61.09 18.8199996 61.09zM18.8199996 59.95C18.9174996 59.95 19.0149996 59.9425 19.1124996 59.92L18.6549996 59.365 19.5474996 58.645 20.0199996 59.215C20.1174996 59.005 20.1774996 58.765 20.1774996 58.5025 20.1774996 57.685 19.6449996 57.055 18.8199996 57.055 17.9874996 57.055 17.4549996 57.685 17.4549996 58.5025 17.4549996 59.3125 17.9874996 59.95 18.8199996 59.95zM25.1124997 61.09C26.7099997 61.09 27.4674997 60.2125 27.4674997 58.9675L27.4674997 55.9975 26.1624997 55.9975 26.1624997 58.93C26.1624997 59.5225 25.8024997 59.95 25.1124997 59.95 24.4074997 59.95 24.0549997 59.5225 24.0549997 58.93L24.0549997 55.9975 22.7424997 55.9975 22.7424997 58.975C22.7424997 60.205 23.4999997 61.09 25.1124997 61.09zM30.2574997 61L30.2574997 55.9975 28.9674997 55.9975 28.9674997 61 30.2574997 61zM34.2099997 61.09C35.4174997 61.09 36.0699997 60.3925 36.3924997 59.7475L35.2824997 59.2225C35.1174997 59.62 34.6899997 59.95 34.2099997 59.95 33.3924997 59.95 32.8149997 59.32 32.8149997 58.5025 32.8149997 57.685 33.3924997 57.055 34.2099997 57.055 34.6899997 57.055 35.1174997 57.385 35.2824997 57.7825L36.3924997 57.2575C36.0624997 56.5975 35.4174997 55.915 34.2099997 55.915 32.6724997 55.915 31.5024997 56.9575 31.5024997 58.5025 31.5024997 60.04 32.6724997 61.09 34.2099997 61.09zM42.0699997 61L40.0224997 58.3375 41.9649997 55.9975 40.3749997 55.9975 38.8374997 58.0525 38.8374997 55.9975 37.5474997 55.9975 37.5474997 61 38.8374997 61 38.8374997 59.5375 39.1749997 59.1175 40.4874997 61 42.0699997 61zM44.9124998 61.09C46.2549998 61.09 46.9974998 60.4225 46.9974998 59.4175 46.9974998 57.5575 44.1699998 58.0225 44.1699998 57.385 44.1699998 57.175 44.3349998 57.025 44.7099998 57.025 45.2049998 57.025 45.7524998 57.1975 46.1724998 57.5425L46.8774998 56.62C46.3449998 56.1625 45.6474998 55.9225 44.8449998 55.9225 43.5624998 55.9225 42.8499998 56.6725 42.8499998 57.5125 42.8499998 59.44 45.6849998 58.8925 45.6849998 59.575 45.6849998 59.815 45.4149998 59.9875 44.9724998 59.9875 44.2899998 59.9875 43.7349998 59.6875 43.3749998 59.3275L42.6924998 60.295C43.1949998 60.775 43.8999998 61.09 44.9124998 61.09zM50.4774998 61L50.4774998 57.1225 51.8724998 57.1225 51.8724998 55.9975 47.7849998 55.9975 47.7849998 57.1225 49.1874998 57.1225 49.1874998 61 50.4774998 61zM57.4824998 61L56.0199998 61 55.7724998 60.28 53.7999998 60.28 53.5524998 61 52.0899998 61 53.9724998 55.9975 55.5924998 55.9975 57.4824998 61zM55.4199998 59.155L54.7824998 57.2725 54.1449998 59.155 55.4199998 59.155zM62.7174998 61L61.2399998 61 60.3999998 59.32 59.7399998 59.32 59.7399998 61 58.4499998 61 58.4499998 55.9975 60.9549998 55.9975C62.0649998 55.9975 62.6949998 56.7325 62.6949998 57.6625 62.6949998 58.5325 62.1624998 58.9975 61.6974998 59.1625L62.7174998 61zM60.7599998 58.195C61.0974998 58.195 61.3824998 58.0075 61.3824998 57.655 61.3824998 57.3175 61.0974998 57.1225 60.7599998 57.1225L59.7399998 57.1225 59.7399998 58.195 60.7599998 58.195zM66.3399999 61L66.3399999 57.1225 67.7349999 57.1225 67.7349999 55.9975 63.6474999 55.9975 63.6474999 57.1225 65.0499999 57.1225 65.0499999 61 66.3399999 61zM74.1249999 61L74.1249999 58.9825 76.0149999 55.9975 74.5524999 55.9975 73.4799999 57.8425 72.3924999 55.9975 70.9374999 55.9975 72.8349999 58.9825 72.8349999 61 74.1249999 61zM79.1049999 61.09C77.5749999 61.09 76.4274999 60.025 76.4274999 58.5025 76.4274999 56.98 77.5749999 55.915 79.1049999 55.915 80.6349999 55.915 81.7749999 56.98 81.7749999 58.5025 81.7749999 60.025 80.6349999 61.09 79.1049999 61.09zM79.1049999 59.95C79.9299999 59.95 80.4624999 59.3125 80.4624999 58.5025 80.4624999 57.685 79.9299999 57.055 79.1049999 57.055 78.2724999 57.055 77.7399999 57.685 77.7399999 58.5025 77.7399999 59.3125 78.2724999 59.95 79.1049999 59.95zM85.3975 61.09C86.995 61.09 87.7525 60.2125 87.7525 58.9675L87.7525 55.9975 86.4475 55.9975 86.4475 58.93C86.4475 59.5225 86.0875 59.95 85.3975 59.95 84.6925 59.95 84.34 59.5225 84.34 58.93L84.34 55.9975 83.0275 55.9975 83.0275 58.975C83.0275 60.205 83.785 61.09 85.3975 61.09zM93.52 61L92.0425 61 91.2025 59.32 90.5425 59.32 90.5425 61 89.2525 61 89.2525 55.9975 91.7575 55.9975C92.8675 55.9975 93.4975 56.7325 93.4975 57.6625 93.4975 58.5325 92.965 58.9975 92.5 59.1625L93.52 61zM91.5625 58.195C91.9 58.195 92.185 58.0075 92.185 57.655 92.185 57.3175 91.9 57.1225 91.5625 57.1225L90.5425 57.1225 90.5425 58.195 91.5625 58.195zM99.7 61.09C101.2975 61.09 102.055 60.2125 102.055 58.9675L102.055 55.9975 100.75 55.9975 100.75 58.93C100.75 59.5225 100.39 59.95 99.7 59.95 98.995 59.95 98.6425 59.5225 98.6425 58.93L98.6425 55.9975 97.33 55.9975 97.33 58.975C97.33 60.205 98.0875 61.09 99.7 61.09zM104.845 61L104.845 55.9975 103.555 55.9975 103.555 61 104.845 61zM110.8675 61L108.82 58.3375 110.7625 55.9975 109.1725 55.9975 107.635 58.0525 107.635 55.9975 106.345 55.9975 106.345 61 107.635 61 107.635 59.5375 107.9725 59.1175 109.285 61 110.8675 61zM113.14 61L113.14 55.9975 111.85 55.9975 111.85 61 113.14 61zM117.0475 61L117.0475 57.1225 118.4425 57.1225 118.4425 55.9975 114.355 55.9975 114.355 57.1225 115.7575 57.1225 115.7575 61 117.0475 61zM123.9175 61.09C125.1625 61.09 125.9875 60.4825 125.9875 59.605 125.9875 58.885 125.3425 58.4725 124.81 58.42 125.4025 58.3225 125.905 57.88 125.905 57.295 125.905 56.47 125.1925 55.9225 123.9175 55.9225 122.995 55.9225 122.335 56.26 121.915 56.7325L122.5375 57.5425C122.89 57.2275 123.325 57.0625 123.7825 57.0625 124.2625 57.0625 124.6225 57.205 124.6225 57.52 124.6225 57.7825 124.33 57.91 123.8125 57.91 123.625 57.91 123.235 57.91 123.1375 57.9025L123.1375 59.05C123.2125 59.0425 123.595 59.0425 123.8125 59.0425 124.495 59.0425 124.705 59.1775 124.705 59.4625 124.705 59.74 124.42 59.95 123.865 59.95 123.43 59.95 122.86 59.7775 122.5 59.425L121.8475 60.3025C122.2375 60.7525 122.9575 61.09 123.9175 61.09zM131.1025 61L129.8125 61 129.8125 55.9975 132.3175 55.9975C133.4425 55.9975 134.0575 56.755 134.0575 57.6625 134.0575 58.5625 133.4425 59.32 132.3175 59.32L131.1025 59.32 131.1025 61zM132.145 58.195C132.49 58.195 132.745 58 132.745 57.6625 132.745 57.3175 132.49 57.1225 132.145 57.1225L131.1025 57.1225 131.1025 58.195 132.145 58.195zM139.5025 61L138.025 61 137.185 59.32 136.525 59.32 136.525 61 135.235 61 135.235 55.9975 137.74 55.9975C138.85 55.9975 139.48 56.7325 139.48 57.6625 139.48 58.5325 138.9475 58.9975 138.4825 59.1625L139.5025 61zM137.545 58.195C137.8825 58.195 138.1675 58.0075 138.1675 57.655 138.1675 57.3175 137.8825 57.1225 137.545 57.1225L136.525 57.1225 136.525 58.195 137.545 58.195zM143.215 61.09C141.685 61.09 140.5375 60.025 140.5375 58.5025 140.5375 56.98 141.685 55.915 143.215 55.915 144.745 55.915 145.885 56.98 145.885 58.5025 145.885 60.025 144.745 61.09 143.215 61.09zM143.215 59.95C144.04 59.95 144.5725 59.3125 144.5725 58.5025 144.5725 57.685 144.04 57.055 143.215 57.055 142.3825 57.055 141.85 57.685 141.85 58.5025 141.85 59.3125 142.3825 59.95 143.215 59.95zM147.9325 61.09C149.0275 61.09 149.7775 60.52 149.7775 59.2825L149.7775 55.9975 148.4875 55.9975 148.4875 59.2675C148.4875 59.6875 148.225 59.95 147.82 59.95 147.52 59.95 147.28 59.8075 147.1 59.6575L146.56 60.64C146.935 60.97 147.43 61.09 147.9325 61.09zM154.945 61L154.945 59.875 152.5675 59.875 152.5675 59.0275 154.8925 59.0275 154.8925 57.9025 152.5675 57.9025 152.5675 57.1225 154.945 57.1225 154.945 55.9975 151.2775 55.9975 151.2775 61 154.945 61zM158.7475 61.09C159.955 61.09 160.6075 60.3925 160.93 59.7475L159.82 59.2225C159.655 59.62 159.2275 59.95 158.7475 59.95 157.93 59.95 157.3525 59.32 157.3525 58.5025 157.3525 57.685 157.93 57.055 158.7475 57.055 159.2275 57.055 159.655 57.385 159.82 57.7825L160.93 57.2575C160.6 56.5975 159.955 55.915 158.7475 55.915 157.21 55.915 156.04 56.9575 156.04 58.5025 156.04 60.04 157.21 61.09 158.7475 61.09zM164.4925 61L164.4925 57.1225 165.8875 57.1225 165.8875 55.9975 161.8 55.9975 161.8 57.1225 163.2025 57.1225 163.2025 61 164.4925 61zM148.932 48L141.54 48 141.54 31.248 137.7 31.248 137.7 24.816 141.54 24.816 141.54 23.664C141.54 18.768 144.996 15.504 149.844 15.504 152.34 15.504 154.932 16.176 156.516 17.808L153.78 22.032C153.204 21.408 152.532 21.12 151.476 21.12 150.084 21.12 148.932 22.032 148.932 23.664L148.932 24.816 153.636 24.816 153.636 31.248 148.932 31.248 148.932 48zM165.644 48L158.252 48 158.252 31.248 154.412 31.248 154.412 24.816 158.252 24.816 158.252 23.664C158.252 18.768 161.708 15.504 166.556 15.504 169.052 15.504 171.644 16.176 173.228 17.808L170.492 22.032C169.916 21.408 169.244 21.12 168.188 21.12 166.796 21.12 165.644 22.032 165.644 23.664L165.644 24.816 170.348 24.816 170.348 31.248 165.644 31.248 165.644 48z"/>
  </g>
</svg>
