<svg xmlns="http://www.w3.org/2000/svg" width="215" height="47" viewBox="0 0 215 47"><defs><linearGradient id="a" x1="102.454%" x2="-2.592%" y1="69.595%" y2="12.26%"><stop offset="0%" stop-color="#1E87F0"/><stop offset="100%" stop-color="#2AC4EE"/></linearGradient><linearGradient id="b" x1="27.337%" x2="86.222%" y1="25.624%" y2="74.536%"><stop offset="0%" stop-color="#42BEF9"/><stop offset="100%" stop-color="#1F8AF0"/></linearGradient></defs><g fill="none" fill-rule="evenodd"><path fill="url(#a)" fill-rule="nonzero" d="M175.066 251.083L166.08 246l-9.377 5.67 9.11 4.9 9.252-5.487zm4.296 2.188l-9.278 5.495 10.516 5.918v15.633l-14.182 7.847-14.018-7.847v-12.202l-9.4-4.545v22.085L166.08 299 190 285.754v-26.5l-10.638-5.983z" opacity=".139" transform="rotate(-31 -352.432 400.412)"/><path fill="url(#a)" fill-rule="nonzero" d="M179.066 251.083L170.08 246l-9.377 5.67 9.11 4.9 9.252-5.487zm4.296 2.188l-9.278 5.495 10.516 5.918v15.633l-14.182 7.847-14.018-7.847v-12.202l-9.4-4.545v22.085L170.08 299 194 285.754v-26.5l-10.638-5.983z" opacity=".284" transform="rotate(-31 -348.432 400.412)"/><path fill="url(#b)" fill-rule="nonzero" d="M182.066 251.083L173.08 246l-9.377 5.67 9.11 4.9 9.252-5.487zm4.296 2.188l-9.278 5.495 10.516 5.918v15.633l-14.182 7.847-14.018-7.847v-12.202l-9.4-4.545v22.085L173.08 299 197 285.754v-26.5l-10.638-5.983z" transform="rotate(-31 -345.432 400.412)"/><path fill="#FFF" d="M74 33.56V12h2.157v19.658H86.35v1.902H74zm13.37-7.79c0-4.57 3.72-8.004 8.317-8.004 4.595 0 8.316 3.434 8.316 8.004 0 4.662-3.72 8.158-8.316 8.158s-8.316-3.496-8.316-8.158zm2.189 0c0 3.588 2.751 6.287 6.128 6.287 3.376 0 6.127-2.699 6.127-6.287 0-3.496-2.75-6.103-6.127-6.103s-6.128 2.607-6.128 6.103zm18.56 11.286s1.939 1.073 4.252 1.073c3.064 0 5.503-1.41 5.503-4.845v-1.411c0-.583.062-1.104.062-1.104h-.062c-.938 1.717-2.533 2.699-4.971 2.699-4.221 0-7.003-3.282-7.003-7.913 0-4.63 2.594-7.79 6.815-7.79 4.158 0 5.19 2.577 5.19 2.577h.062s-.03-.184-.03-.522v-1.686H120v15.058c0 4.907-3.69 6.808-7.535 6.808-1.813 0-3.627-.46-5.159-1.227l.813-1.717zm5.128-5.46c2.47 0 4.658-1.502 4.658-6.04 0-4.509-2.189-5.889-4.971-5.889-3.064 0-4.846 2.177-4.846 5.858 0 3.68 2.032 6.072 5.159 6.072zm10.775-16.99V12h2.22v2.607h-2.22zm.063 18.954V18.134h2.126V33.56h-2.126zm6.21 0V18.134h2.095v2.3c0 .674-.062 1.226-.062 1.226h.062c.563-1.41 2.564-3.894 6.285-3.894 3.876 0 5.252 2.177 5.252 5.98v9.814H141.8v-9.262c0-2.423-.375-4.57-3.408-4.57-2.689 0-5.002 1.81-5.721 4.355-.188.644-.25 1.35-.25 2.086v7.39h-2.126zm25.491 0V12h7.097c6.597 0 11.036 3.956 11.036 10.765 0 6.87-4.44 10.795-11.036 10.795h-7.097zm2.157-1.902h4.721c5.409 0 9.004-3.128 9.004-8.893 0-5.735-3.626-8.864-9.004-8.864h-4.72v17.757zm18.03-2.3c0-5.213 6.909-5.336 9.629-5.336h.875v-.399c0-2.975-1.657-3.987-3.908-3.987-2.595 0-4.44 1.472-4.44 1.472l-1-1.594s2.063-1.748 5.596-1.748c3.783 0 5.878 2.054 5.878 5.919v9.875h-2.032v-1.687c0-.767.062-1.288.062-1.288h-.062s-1.313 3.343-5.253 3.343c-2.626 0-5.346-1.503-5.346-4.57zm2.188-.123c0 1.442 1.157 2.914 3.501 2.914 3.002 0 4.815-3.067 4.815-5.735v-.675h-.907c-2.47 0-7.41.092-7.41 3.496zm14.308 4.325V18.134h2.095v2.73c0 .674-.063 1.226-.063 1.226h.063c.75-2.331 2.501-4.11 4.97-4.11.439 0 .845.092.845.092v2.055s-.375-.061-.782-.061c-2.22 0-3.876 1.717-4.564 3.987-.313.981-.438 2.024-.438 3.005v6.502h-2.126zm10.088 0V12h2.126v12.022h2.501l4.72-5.888h2.565l-5.472 6.716v.061L215 33.56h-2.532l-5.253-7.729h-2.532v7.729h-2.126z"/></g></svg>