<svg xmlns="http://www.w3.org/2000/svg" width="215" height="47" viewBox="0 0 215 47">
  <defs>
    <linearGradient id="a" x1="102.454%" x2="-2.592%" y1="69.595%" y2="12.26%">
      <stop stop-color="#1E87F0" offset="0%"/>
      <stop stop-color="#2AC4EE" offset="100%"/>
    </linearGradient>
    <linearGradient id="b" x1="27.337%" x2="86.222%" y1="25.624%" y2="74.536%">
      <stop stop-color="#42BEF9" offset="0%"/>
      <stop stop-color="#1F8AF0" offset="100%"/>
    </linearGradient>
  </defs>
  <g fill="none" fill-rule="evenodd" transform="translate(-140 -249)">
    <path fill="url(#a)" fill-rule="nonzero" d="M175.06575,251.082608 L166.080855,246 L156.704355,251.669922 L165.814645,256.569508 L175.06575,251.082608 Z M179.362395,253.271363 L170.08375,258.76577 L180.6,264.683593 L180.6,280.316585 L166.41775,288.163645 L152.4,280.316585 L152.4,268.115073 L143,263.570092 L143,285.65478 L166.080855,299 L190,285.753798 L190,259.253887 L179.362395,253.271363 Z" opacity=".139" transform="rotate(-31 166.5 272.5)"/>
    <path fill="url(#a)" fill-rule="nonzero" d="M179.06575,251.082608 L170.080855,246 L160.704355,251.669922 L169.814645,256.569508 L179.06575,251.082608 Z M183.362395,253.271363 L174.08375,258.76577 L184.6,264.683593 L184.6,280.316585 L170.41775,288.163645 L156.4,280.316585 L156.4,268.115073 L147,263.570092 L147,285.65478 L170.080855,299 L194,285.753798 L194,259.253887 L183.362395,253.271363 Z" opacity=".284" transform="rotate(-31 170.5 272.5)"/>
    <path fill="url(#b)" fill-rule="nonzero" d="M182.06575,251.082608 L173.080855,246 L163.704355,251.669922 L172.814645,256.569508 L182.06575,251.082608 Z M186.362395,253.271363 L177.08375,258.76577 L187.6,264.683593 L187.6,280.316585 L173.41775,288.163645 L159.4,280.316585 L159.4,268.115073 L150,263.570092 L150,285.65478 L173.080855,299 L197,285.753798 L197,259.253887 L186.362395,253.271363 Z" transform="rotate(-31 173.5 272.5)"/>
    <path fill="#FFFFFF" d="M214,282.559693 L214,261 L216.157206,261 L216.157206,280.658269 L226.349223,280.658269 L226.349223,282.559693 L214,282.559693 Z M227.37051,274.769989 C227.37051,270.200438 231.090909,266.765608 235.686696,266.765608 C240.282483,266.765608 244.002882,270.200438 244.002882,274.769989 C244.002882,279.431544 240.282483,282.927711 235.686696,282.927711 C231.090909,282.927711 227.37051,279.431544 227.37051,274.769989 Z M229.55898,274.769989 C229.55898,278.35816 232.310199,281.056955 235.686696,281.056955 C239.063192,281.056955 241.814412,278.35816 241.814412,274.769989 C241.814412,271.273823 239.063192,268.667032 235.686696,268.667032 C232.310199,268.667032 229.55898,271.273823 229.55898,274.769989 Z M248.11929,286.05586 C248.11929,286.05586 250.057649,287.129244 252.371175,287.129244 C255.435033,287.129244 257.873614,285.71851 257.873614,282.28368 L257.873614,280.872946 C257.873614,280.290252 257.936141,279.768894 257.936141,279.768894 L257.873614,279.768894 C256.935698,281.486309 255.341241,282.467689 252.90266,282.467689 C248.68204,282.467689 245.899557,279.186199 245.899557,274.555312 C245.899557,269.924425 248.494457,266.765608 252.715077,266.765608 C256.87317,266.765608 257.904877,269.341731 257.904877,269.341731 L257.967405,269.341731 C257.967405,269.341731 257.936141,269.157722 257.936141,268.820372 L257.936141,267.133625 L259.999556,267.133625 L259.999556,282.191676 C259.999556,287.098576 256.310421,289 252.464966,289 C250.651663,289 248.838359,288.539978 247.30643,287.773275 L248.11929,286.05586 Z M253.246563,280.596933 C255.716408,280.596933 257.904877,279.094195 257.904877,274.555312 C257.904877,270.047097 255.716408,268.667032 252.933924,268.667032 C249.870066,268.667032 248.088026,270.844469 248.088026,274.524644 C248.088026,278.204819 250.120177,280.596933 253.246563,280.596933 Z M264.022173,263.606791 L264.022173,261 L266.241907,261 L266.241907,263.606791 L264.022173,263.606791 Z M264.084701,282.559693 L264.084701,267.133625 L266.210643,267.133625 L266.210643,282.559693 L264.084701,282.559693 Z M270.295787,282.559693 L270.295787,267.133625 L272.390466,267.133625 L272.390466,269.433735 C272.390466,270.108434 272.327938,270.66046 272.327938,270.66046 L272.390466,270.66046 C272.953215,269.249726 274.954102,266.765608 278.674501,266.765608 C282.551219,266.765608 283.926829,268.943045 283.926829,272.745893 L283.926829,282.559693 L281.800887,282.559693 L281.800887,273.297919 C281.800887,270.875137 281.42572,268.728368 278.393126,268.728368 C275.704435,268.728368 273.390909,270.537788 272.671841,273.083242 C272.484257,273.727273 272.42173,274.43264 272.42173,275.168675 L272.42173,282.559693 L270.295787,282.559693 Z M295.786253,282.559693 L295.786253,261 L302.883149,261 C309.479823,261 313.91929,264.956188 313.91929,271.764513 C313.91929,278.634173 309.479823,282.559693 302.883149,282.559693 L295.786253,282.559693 Z M297.943459,280.658269 L302.664302,280.658269 C308.072949,280.658269 311.668293,277.53012 311.668293,271.764513 C311.668293,266.029573 308.041685,262.901424 302.664302,262.901424 L297.943459,262.901424 L297.943459,280.658269 Z M315.972284,278.35816 C315.972284,273.144578 322.881596,273.021906 325.601552,273.021906 L326.47694,273.021906 L326.47694,272.62322 C326.47694,269.648412 324.819956,268.636364 322.568958,268.636364 C319.974058,268.636364 318.12949,270.108434 318.12949,270.108434 L317.129047,268.513691 C317.129047,268.513691 319.192461,266.765608 322.725277,266.765608 C326.508204,266.765608 328.602882,268.820372 328.602882,272.684556 L328.602882,282.559693 L326.570732,282.559693 L326.570732,280.872946 C326.570732,280.106243 326.633259,279.584885 326.633259,279.584885 L326.570732,279.584885 C326.570732,279.584885 325.25765,282.927711 321.318404,282.927711 C318.69224,282.927711 315.972284,281.424973 315.972284,278.35816 Z M318.160754,278.235487 C318.160754,279.676889 319.317517,281.148959 321.662306,281.148959 C324.663636,281.148959 326.47694,278.082147 326.47694,275.41402 L326.47694,274.739321 L325.570288,274.739321 C323.100443,274.739321 318.160754,274.831325 318.160754,278.235487 Z M332.46918,282.559693 L332.46918,267.133625 L334.563858,267.133625 L334.563858,269.863089 C334.563858,270.537788 334.501331,271.089814 334.501331,271.089814 L334.563858,271.089814 C335.314191,268.759036 337.064967,266.980285 339.534812,266.980285 C339.972506,266.980285 340.378936,267.072289 340.378936,267.072289 L340.378936,269.127054 C340.378936,269.127054 340.003769,269.065717 339.597339,269.065717 C337.377605,269.065717 335.720621,270.783133 335.032816,273.052574 C334.720178,274.033954 334.595122,275.07667 334.595122,276.05805 L334.595122,282.559693 L332.46918,282.559693 Z M342.556985,282.559693 L342.556985,261 L344.682927,261 L344.682927,273.021906 L347.184036,273.021906 L351.904878,267.133625 L354.468514,267.133625 L348.99734,273.849945 L348.99734,273.911281 L355,282.559693 L352.467628,282.559693 L347.2153,274.831325 L344.682927,274.831325 L344.682927,282.559693 L342.556985,282.559693 Z"/>
  </g>
</svg>
