<svg xmlns="http://www.w3.org/2000/svg" width="154" height="154" viewBox="0 0 154 154"><path fill="#1E87F0" fill-rule="evenodd" d="M77 154c-42.526 0-77-34.474-77-77S34.474 0 77 0s77 34.474 77 77-34.474 77-77 77zm.168-38.513c4.485 0 9.213-.47 14.186-1.413 4.972-.943 9.766-2.421 14.381-4.436 4.29-1.886 6.435-4.81 6.435-8.776 0-1.235-.26-2.242-.78-3.022-.52-.78-1.3-1.17-2.34-1.17-.65 0-1.462.195-2.438.585-5.265 2.21-10.058 3.851-14.38 4.924-4.323 1.072-8.597 1.608-12.822 1.608-8.515 0-14.95-2.128-19.305-6.386-4.355-4.257-6.532-10.286-6.532-18.086 0-7.475 1.202-13.926 3.607-19.354 2.405-5.427 5.557-9.538 9.458-12.334 3.9-2.795 7.994-4.192 12.284-4.192 6.306 0 9.458 2.957 9.458 8.872 0 1.17-.195 2.73-.585 4.68-.26 1.56-.39 2.633-.39 3.218 0 1.625.52 2.86 1.56 3.705 1.04.845 2.47 1.267 4.29 1.267 2.6 0 4.599-1.202 5.996-3.607 1.398-2.405 2.096-5.59 2.096-9.555 0-5.915-1.82-10.676-5.46-14.284-3.64-3.607-8.97-5.411-15.99-5.411-7.54 0-14.397 2.031-20.572 6.094-6.175 4.062-11.066 9.798-14.674 17.209-3.607 7.41-5.411 15.892-5.411 25.447 0 6.89 1.527 12.935 4.582 18.135 3.056 5.2 7.443 9.214 13.163 12.041 5.72 2.828 12.447 4.242 20.183 4.242z"/></svg>