<svg xmlns="http://www.w3.org/2000/svg" width="918.27" height="752.81" data-name="Layer 1" viewBox="0 0 918.27 752.81"><title>projections</title><path fill="#f2f2f2" d="M648.14 507.68l7.27-1.39 2.08-.44a59.86 59.86 0 0 1 36.14-111.05l-9.13 22.92 22.27-20.19h.16a59.87 59.87 0 0 1 38 75.66c-.36 1.08-.79 2.12-1.2 3.17 6.33-3.33 12.39-7.19 17.3-12.07 9.94-9.89 15.24-23.38 21.12-40 11.67-32.91 22.87-66.28 33.59-99.72a59.84 59.84 0 0 1-29.33-71.92c.58-1.74 1.25-3.42 2-5.07q.25-.62.54-1.23c.73-1.58 1.5-3.13 2.36-4.62.13-.24.29-.47.43-.71.75-1.26 1.53-2.48 2.36-3.66.31-.45.61-.89.93-1.33.94-1.27 1.91-2.52 2.94-3.7.35-.4.71-.77 1.06-1.16.8-.87 1.61-1.71 2.45-2.53.44-.43.87-.86 1.33-1.27.11-.11.22-.23.34-.33a59.84 59.84 0 0 1 76.5-3.16l-11.88 29.83 22-20a59.53 59.53 0 0 1 3.54 70.45h.06c-.23.36-.5.7-.75 1.06-.46.67-.93 1.32-1.41 2-.62.83-1.27 1.64-1.93 2.43-.5.6-1 1.2-1.51 1.78-.75.84-1.55 1.64-2.35 2.44-.47.46-.92.95-1.4 1.4q-1.9 1.76-3.93 3.35c-.48.37-1 .69-1.47 1.05-.95.7-1.91 1.39-2.9 2-.62.4-1.25.76-1.88 1.14-.91.54-1.82 1.06-2.76 1.55-.66.35-1.33.69-2 1-1 .46-1.94.89-2.92 1.3-.66.27-1.32.55-2 .8-1.11.41-2.23.78-3.37 1.12-.57.18-1.13.38-1.71.54-1.69.47-3.41.87-5.15 1.18-.33.06-.67.09-1 .15-1.45.23-2.9.43-4.36.56-.63.06-1.27.08-1.9.11-1.18.07-2.37.12-3.56.11-.7 0-1.4 0-2.1-.05-1.16 0-2.32-.12-3.49-.23-.69-.07-1.38-.14-2.07-.23-1.25-.16-2.5-.39-3.75-.64h-.24q-6.79 21.17-13.85 42.24a59.81 59.81 0 0 1 86.86 5.52l-20.33 23.36 27.8-11.71a59.61 59.61 0 0 1 3.25 45.52 58.55 58.55 0 0 1-7.32 14.85 59.84 59.84 0 0 1-108.6-24.22c-.5 1.42-1 2.85-1.48 4.27-5.2 14.65-11.66 32.88-25.08 46.23-9.1 9-20.39 14.89-31.23 19.86q-10.59 4.85-21.48 9a60 60 0 0 1-26.63 9q-17.21 5.13-34.85 8.6l-7.33 1.41c-6.58 1.25-13.33 2.54-20 4 1 .27 2 .53 2.92.85a59.86 59.86 0 0 1 41.03 57.55l-45.81 15 41.81 5.84a59.89 59.89 0 0 1-99.44 19.59l1.35 4.22c.9 2.79 1.79 5.57 2.65 8.32 11.68 37.5 7.52 67.24-11.73 83.76l-10.83-12.64c18.73-16.08 12.22-48.35 6.68-66.16q-1.28-4.06-2.61-8.18c-7.59-23.61-16.2-50.36-6.17-75.29 15.1-37.57 60.56-46.23 97.1-53.19zM227.63 376.84l-6.28-3.91-1.79-1.15a59.86 59.86 0 0 0 6.05-116.63l.31 24.67-13.56-26.83h-.16a59.86 59.86 0 0 0-62.59 57c-.05 1.14 0 2.27 0 3.39-4.72-5.37-9-11.14-11.83-17.46-5.74-12.8-5.85-27.29-5.39-44.9.9-34.91 2.4-70.08 4.37-105.14a59.83 59.83 0 0 0 53.15-56.64c.09-1.83.06-3.64 0-5.43 0-.45 0-.9-.07-1.34-.11-1.74-.28-3.47-.54-5.16 0-.28-.11-.55-.15-.83-.25-1.43-.55-2.85-.89-4.26-.13-.52-.25-1.05-.4-1.57-.42-1.52-.88-3-1.41-4.51-.18-.5-.39-1-.58-1.46-.43-1.1-.89-2.17-1.38-3.23-.25-.56-.51-1.12-.78-1.67-.07-.15-.13-.29-.2-.43a59.8 59.8 0 0 0-70.37-30.34l.41 32.1-13.41-26.52a59.5 59.5 0 0 0-28.54 64.5h-.07c.09.42.23.83.33 1.25.19.8.39 1.58.61 2.36.28 1 .59 2 .93 3 .25.74.49 1.48.77 2.21.4 1.06.86 2.09 1.32 3.12.28.6.52 1.22.81 1.81q1.14 2.33 2.47 4.53c.31.52.66 1 1 1.51.64 1 1.29 2 2 2.93.44.59.9 1.15 1.35 1.73.65.83 1.32 1.65 2 2.44.5.56 1 1.11 1.52 1.66.73.77 1.49 1.52 2.26 2.26.52.49 1 1 1.57 1.46.89.78 1.81 1.52 2.74 2.26.47.36.92.75 1.4 1.11 1.42 1 2.88 2 4.39 2.95.29.18.59.32.88.49 1.26.74 2.55 1.44 3.87 2.09.56.28 1.15.52 1.73.78 1.08.49 2.17 1 3.28 1.38.65.25 1.31.48 2 .71 1.11.37 2.22.71 3.35 1q1 .28 2 .54c1.23.29 2.48.53 3.73.75h.25q-1.24 22.2-2.21 44.4a59.81 59.81 0 0 0-83.07-26l10.58 29-21.76-20.9a59.67 59.67 0 0 0-19.35 41.33 58.8 58.8 0 0 0 1.52 16.49 59.83 59.83 0 0 0 110.06 16.3c0 1.51-.1 3-.14 4.52-.4 15.54-.9 34.88 6.85 52.15 5.25 11.7 13.7 21.2 22 29.72q8.16 8.32 16.84 16.1a59.86 59.86 0 0 0 21.61 18c9.49 7.31 19.31 14.18 29.46 20.52l6.34 3.94c5.69 3.53 11.53 7.15 17.26 10.93-1-.1-2-.21-3-.26a59.88 59.88 0 0 0-58.93 39l37.39 30.43-41.14-9.54a59.89 59.89 0 0 0 85.84 53.86l-2.78 3.46c-1.84 2.29-3.67 4.56-5.46 6.82-24.34 30.82-31.11 60.09-19.06 82.4l14.66-7.92c-11.73-21.72 5.92-49.51 17.48-64.16 1.75-2.22 3.55-4.45 5.36-6.69 15.54-19.32 33.17-41.22 32.74-68.08-.65-40.46-39.96-64.83-71.55-84.4z"/><ellipse cx="437" cy="702.81" fill="#f2f2f2" rx="437" ry="50"/><rect width="574.09" height="691.34" x="151.95" fill="#3f3d56" rx="19.8"/><path fill="#302f45" d="M177.51 69.74h519.18V621.6H177.51z"/><circle cx="439" cy="657.99" r="20.21" fill="#fff"/><path fill="#fff" d="M439 50.04a9.61 9.61 0 1 1 9.61-9.61 9.62 9.62 0 0 1-9.61 9.61z"/><path fill="#fff" d="M439 31.33a9.11 9.11 0 1 1-9.1 9.1 9.11 9.11 0 0 1 9.1-9.1m0-1a10.11 10.11 0 1 0 10.14 10.08 10.1 10.1 0 0 0-10.11-10.1z"/><path fill="#3f3d56" d="M206.77 225h31v5h-31zM206.77 261h31v5h-31zM206.77 297h31v5h-31zM206.77 333h31v5h-31zM206.77 369h31v5h-31z"/><path fill="#1e87f0" d="M372.27 337.28h23v109.77h-23z" opacity=".3"/><path fill="#3f3d56" d="M206.77 405h31v5h-31zM206.77 441h31v5h-31z"/><path fill="none" stroke="#3f3d56" stroke-miterlimit="10" d="M247.77 443V228M247.27 227.5h419.5M248.27 263.5h418.5M248.27 299.5h418.5M248.27 335.5h418.5M248.27 371.5h418.5M248.27 407.5h418.5M247.27 443.5h419.5"/><path fill="#1e87f0" d="M276.27 408h23v35h-23zM328.77 368.4h23V443h-23zM433.77 299.13h23V443h-23zM486.27 264h23v179h-23zM538.77 299.13h23V443h-23zM591.27 227.81h23V443h-23z"/><path fill="#a0616a" d="M428.19 330.69c-10.59-2.75-21.54-5.53-32.36-3.87a6.19 6.19 0 0 0-3.59 1.45c-1.35 1.38-1.19 3.75-.1 5.34a9.48 9.48 0 0 0 4.72 3.19c5.06 1.84 10.56 2 15.94 2.09s10.54.21 15.62-1.05a6.51 6.51 0 0 0 3.17-1.51c2.88-2.92-.95-5-3.4-5.64z"/><path fill="#e6e6f0" d="M508.03 356.53a51.39 51.39 0 0 1-10.59-.67 72.06 72.06 0 0 1-9.2-2.54l-10.89-3.53a142.51 142.51 0 0 1-17.3-6.45c-9.61-4.55-18.37-11.32-28.79-13.42-1.88-.38-4.26-.39-5.23 1.26a5 5 0 0 0-.48 2.55l-.06 7.68a3 3 0 0 0 .24 1.49 3 3 0 0 0 1.11 1c9.89 6.35 21.08 10.73 30.06 18.31 2.72 2.29 5.21 4.86 8.07 7a32.94 32.94 0 0 0 12.59 5.71c6.37 1.39 13.28.92 19.05 3.94 2.64 1.37 5 3.46 7.93 4 2.51.44 5.05-.34 7.47-1.11 4-1.27 8.11-2.66 10.82-5.8 3.46-4 3.7-9.78 3.76-15.07 0-1.5 1-7.67.07-8.82-1.33-1.58-3.4.76-4.71 1.49-4.13 2.27-9.25 2.98-13.92 2.98z"/><path fill="#a0616a" d="M540.82 317.27s6.67 28.45 11.56 32.9-34.67 14.24-34.67 14.24 8.43-31.14 4.43-36.47 18.68-10.67 18.68-10.67z"/><path d="M540.82 317.27s6.67 28.45 11.56 32.9-34.67 14.24-34.67 14.24 8.43-31.14 4.43-36.47 18.68-10.67 18.68-10.67z" opacity=".1"/><path fill="#3c354c" d="M476.73 688.92c-2.17.33-4.39 0-6.56.26a12.92 12.92 0 0 0-8 4.06 3.42 3.42 0 0 0-1.15 2.53 3.23 3.23 0 0 0 .93 1.75c2 2.22 4.91 3.36 7.82 4a62.14 62.14 0 0 0 13.15 1q16.44.09 32.89.15a26.39 26.39 0 0 0-.34-11.89 6.77 6.77 0 0 0-1.37-2.93 7.75 7.75 0 0 0-2.5-1.62l-6.76-3.23c-5.37-2.57-9.62-4.48-15-1.31-4.36 2.48-8.03 6.45-13.11 7.23z"/><path d="M476.73 688.92c-2.17.33-4.39 0-6.56.26a12.92 12.92 0 0 0-8 4.06 3.42 3.42 0 0 0-1.15 2.53 3.23 3.23 0 0 0 .93 1.75c2 2.22 4.91 3.36 7.82 4a62.14 62.14 0 0 0 13.15 1q16.44.09 32.89.15a26.39 26.39 0 0 0-.34-11.89 6.77 6.77 0 0 0-1.37-2.93 7.75 7.75 0 0 0-2.5-1.62l-6.76-3.23c-5.37-2.57-9.62-4.48-15-1.31-4.36 2.48-8.03 6.45-13.11 7.23z" opacity=".1"/><path fill="#3c354c" d="M546.75 716.28a8.8 8.8 0 0 1-.31 3.58c-.9 2.36-3.59 3.44-6 4.13-11 3.09-22.58 3.34-34 3.57-8.57.17-17.39.3-25.4-2.74a11.38 11.38 0 0 1-4.41-2.64 5 5 0 0 1-1.39-4.75c.63-2.12 2.86-3.26 4.87-4.17l10.95-4.93 21.1-9.5c2.63-1.18 5.37-2.38 8.25-2.3 3.49.11 6.6 2.09 9.72 3.66a46.41 46.41 0 0 0 7 2.84c2.13.66 5.12.74 7 1.88 3.41 2.06 2.44 7.99 2.62 11.37z"/><path fill="#575a89" d="M480.9 507.19c-5.53 15.62-11.09 31.35-13.79 47.7-1 5.85-1.56 11.75-2.63 17.58-1 5.5-2.44 11.1-1.44 16.6.65 3.59 2.3 6.91 3.54 10.33 1.65 4.55 2.59 9.33 4.15 13.91 2.42 7.1 6.29 13.62 8.75 20.7 2.39 6.87 3.45 14.24 6.78 20.7 2 3.84 4.73 7.31 6 11.42a17.7 17.7 0 0 1-4.43 17.52c.59 2.67 3.7 4 6.26 5l9.35 3.45c3.56 1.31 7.57 2.62 11 1.1 5.06-2.21 6-8.89 5.85-14.4-.5-13.42-3.72-26.58-6.93-39.62-3-12-5.91-24-9.45-35.87-1.47-4.9-3-9.78-4.19-14.77a94.75 94.75 0 0 1 4.12-55.86c4-10 .44-22.32.89-33.13l-13.42-2.47c-2.64-.48-5.85-.77-7.52 1.33s-1.94 6.11-2.89 8.78z"/><path d="M480.9 507.19c-5.53 15.62-11.09 31.35-13.79 47.7-1 5.85-1.56 11.75-2.63 17.58-1 5.5-2.44 11.1-1.44 16.6.65 3.59 2.3 6.91 3.54 10.33 1.65 4.55 2.59 9.33 4.15 13.91 2.42 7.1 6.29 13.62 8.75 20.7 2.39 6.87 3.45 14.24 6.78 20.7 2 3.84 4.73 7.31 6 11.42a17.7 17.7 0 0 1-4.43 17.52c.59 2.67 3.7 4 6.26 5l9.35 3.45c3.56 1.31 7.57 2.62 11 1.1 5.06-2.21 6-8.89 5.85-14.4-.5-13.42-3.72-26.58-6.93-39.62-3-12-5.91-24-9.45-35.87-1.47-4.9-3-9.78-4.19-14.77a94.75 94.75 0 0 1 4.12-55.86c4-10 .44-22.32.89-33.13l-13.42-2.47c-2.64-.48-5.85-.77-7.52 1.33s-1.94 6.11-2.89 8.78z" opacity=".1"/><path fill="#575a89" d="M544.45 500.02c-.35 4.81-.74 9.76-2.92 14-1.33 2.62-3.26 4.88-4.77 7.4-4 6.79-4.73 15-4.89 22.93-.16 8.18.13 16.36.43 24.53a37.75 37.75 0 0 0 .77 7.51c.5 2.07 1.34 4.05 1.82 6.12 1.15 5 .09 10.29.78 15.39.53 3.88 2 7.54 3.17 11.29a57.64 57.64 0 0 1 2.41 17.75c-.36 16.26 4.77 31.75 4.89 48 0 5.6-.2 11.21.27 16.8.5 6.08 1.83 12.06 2.49 18.13.15 1.4.17 3-.91 3.93a4.27 4.27 0 0 1-2.73.7 32.67 32.67 0 0 1-10.3-1c-3-.91-5.66-2.51-8.57-3.56-5.43-2-12.16-2.42-15.27-7.28a2.86 2.86 0 0 1-.53-1.4c0-1.38 1.47-2.23 2.17-3.43a5.37 5.37 0 0 0 .58-2.53c.27-6.4-2.6-12.44-4.51-18.55a126 126 0 0 1-3.76-18.19c-2-12.69-4-25.65-1.91-38.33.51-3.12 1.16-6.65-.75-9.16a20.87 20.87 0 0 0-2.88-2.59 11.17 11.17 0 0 1-3.69-8.19c0-10-4.56-20-5-30-.26-5.78.09-11.57-.18-17.35-.72-15.26-5.7-29.94-10.24-44.53a21.85 21.85 0 0 1-1.31-6.51 7.56 7.56 0 0 1 2.5-6c7.62-6.11 18.91-8.16 27.35-3.24 1.68 1 3.23 2.15 5 3 9.18 4.81 21.18-.25 30.49 4.36z"/><circle cx="528.82" cy="321.27" r="21.78" fill="#a0616a"/><path fill="#e6e6f0" d="M480.23 501.08a9 9 0 0 0 3.23 2.09l6.64 3a12.18 12.18 0 0 0 3.34 1.24 13.57 13.57 0 0 0 4.43-.32 118 118 0 0 1 46.2.87c4.89-7.33 5.32-16.8 4-25.5-.71-4.62-1.86-9.39-.58-13.89.54-1.93 1.52-3.71 2.07-5.64 1.5-5.26-.31-10.93.52-16.34 1-6.63 5.83-12 8.48-18.14a58.67 58.67 0 0 0 3.23-11.78q1.47-7.37 3-14.71c1.09-5.41 2.18-10.88 2-16.39-.23-8.41-3.31-16.44-6.35-24.29-1.28-3.3-2.77-6.86-5.85-8.62-3.77-2.15-8.52-.85-12.54.77-5.21 2.09-10.36 4.64-15.92 5.7-2.4.46-5.69-.37-7.86.27-1.86.55-3.13 3.06-4.23 4.59a81.31 81.31 0 0 0-13.13 28.24c-2.53 10.28-3.1 21.21-7.78 30.7a63 63 0 0 1-3.56 6.1c-2.7 4.18-5.62 8.23-7.45 12.84-2.82 7.12-2.8 14.93-2.62 22.64 0 1.27.07 2.52.09 3.78q.3 13.07-.58 26.1c-.19 2.32-.29 4.91 1.22 6.69z"/><path fill="#a0616a" d="M421.39 447.19c-10.94.38-22.23.71-32.43-3.27a6.2 6.2 0 0 1-3.19-2.2c-1-1.64-.34-3.92 1.07-5.23a9.5 9.5 0 0 1 5.3-2.08c5.33-.7 10.73.37 16 1.44s10.33 2.09 15 4.42a6.59 6.59 0 0 1 2.76 2.17c2.24 3.49-1.98 4.66-4.51 4.75z"/><path d="M479.47 464.49c2.42 0 4.83-.12 7.23-.26a34.25 34.25 0 0 0 8.38-1.26c4.1-1.31 7.61-4 10.95-6.69a233.59 233.59 0 0 0 29.11-28.06c2.94-3.37 5.83-6.91 7.4-11.1 1.92-5.11 1.72-10.75 1.32-16.2-.26-3.57-.62-7.25-2.3-10.42a10 10 0 0 0-7-5.39l3.77.14c-3.62-2.25-8.22-1.94-12.47-1.56-2.92.26-5.93.55-8.51 2-3.2 1.74-5.29 5-7 8.16-5.71 10.41-9.36 22.07-16.78 31.34a19 19 0 0 1-3.38 3.44c-.2.15-.41.29-.62.43-2.7 4.18-5.62 8.23-7.45 12.84-2.85 7.07-2.83 14.88-2.65 22.59z" opacity=".1"/><path fill="#e6e6f0" d="M532.96 381.04c3.57-.27 6.89 2.29 8.56 5.46s2 6.84 2.3 10.42c.4 5.45.6 11.09-1.32 16.2-1.57 4.19-4.46 7.73-7.4 11.1a234.29 234.29 0 0 1-29.07 28.06c-3.34 2.71-6.85 5.38-10.95 6.69a34.25 34.25 0 0 1-8.38 1.26c-10.72.63-21.71.35-31.8-3.3-8-2.87-15.37-7.81-23.8-8.33-2.07-.13-4.26 0-6.1-1-3.38-1.81-4-6.39-3.7-10.21a2.74 2.74 0 0 1 2.8-3.26c16.86-2.09 34.46 2.19 50.71-2.78a94.07 94.07 0 0 0 10.81-4.33 24 24 0 0 0 4.54-2.46 18.61 18.61 0 0 0 3.37-3.44c7.42-9.27 11.08-20.93 16.79-31.34 1.75-3.2 3.84-6.42 7-8.16 2.58-1.4 5.59-1.69 8.51-2 4.25-.38 8.84-.69 12.47 1.56"/><path fill="#3f3d56" d="M545.03 325.81c-1 1.23-1.63 2.73-2.73 3.85s-3 1.8-4.26.9c-1.95-1.35-.93-4.66-2.44-6.48-.85-1-2.3-1.33-3.34-2.17-2.46-2-1.8-6.16-4-8.49s-5.65-1.81-8.49-.78-5.75 2.53-8.71 1.93c-4.19-.86-6.37-5.44-7.57-9.55s-2-8.62 0-12.34c1.65-3.09 5-5 8.31-6s6.91-1.18 10.36-1.8c4.59-.83 9-2.41 13.69-2.87s9.74.4 13 3.72c4.82 4.89 4 12.87 6.4 19.3 1.38 3.65 3.85 6.8 5.32 10.41 2.59 6.4 1.31 14.75-4.4 18.64a4.59 4.59 0 0 1-3.13 1c-2.37-.34-3.24-3.34-3.11-5.73.33-4.35-.69-8.84-4.9-3.54z"/><path fill="#1e87f0" d="M381.27 333.28h23v109.77h-23z"/><path fill="none" stroke="#3f3d56" stroke-miterlimit="10" stroke-width="4" d="M84.91 693.23c-3-5.51.4-12.26 4.28-17.18s8.61-10 8.51-16.28c-.14-9-9.69-14.32-17.33-19.09a84 84 0 0 1-15.55-12.51 22.79 22.79 0 0 1-4.79-6.4c-1.57-3.52-1.53-7.52-1.43-11.38q.49-19.26 1.9-38.48"/><path fill="#57b894" d="M46 571.21a14 14 0 0 1 7-11.5l3.14 6.21-.09-7.52a14 14 0 1 1-10 12.81zM71.03 666.2a14 14 0 1 0-.68-11.3l8.76 7.13-9.64-2.23a13.88 13.88 0 0 0 1.56 6.4zM77.95 638.95a14 14 0 0 0 14.68-13.37 13.82 13.82 0 0 0-1.21-6.39 14.06 14.06 0 0 0-9-7.78l.07 5.79-3.18-6.29a14.015 14.015 0 0 0-1.31 28zM43.88 616.28a14 14 0 0 0 14.68-13.37 14 14 0 0 0-13.36-14.68 14.08 14.08 0 0 0-7.52 1.78l2.48 6.8-5.1-4.9a14 14 0 0 0-4.54 9.69 13.69 13.69 0 0 0 .36 3.86 14 14 0 0 0 13 10.82z"/><path d="M47.88 574.95c3.24.35 6.39 1.36 9.64 1.56s6.82-.58 8.88-3.1c1.11-1.36 1.66-3.09 2.6-4.57a10 10 0 0 1 3.53-3.33 14 14 0 1 1-26.24 9.32q.85.03 1.59.12zM43.88 616.28a14 14 0 0 0 14.68-13.37 13.87 13.87 0 0 0-1.33-6.65 10.51 10.51 0 0 0-2.82 2.82c-1 1.51-1.6 3.25-2.78 4.64-2.18 2.57-5.92 3.41-9.31 3.25s-6.65-1.11-10-1.42c-.46 0-.94-.07-1.41-.09a14 14 0 0 0 12.97 10.82zM77.95 638.95a14 14 0 0 0 14.68-13.37 13.82 13.82 0 0 0-1.21-6.39 11.52 11.52 0 0 0-3 2.85c-1.09 1.54-1.77 3.31-3 4.73-2.37 2.64-6.35 3.57-9.94 3.48s-6.82-.93-10.28-1.19a14 14 0 0 0 12.75 9.89zM71.03 666.2a14.013 14.013 0 0 0 25.58-11.45 14.25 14.25 0 0 0-3.08 2.74c-1.33 1.63-2.21 3.47-3.76 5-2.87 2.82-7.5 4-11.62 4.09a62.05 62.05 0 0 1-7.12-.38z" opacity=".1"/><path fill="#656380" d="M106.07 686.89s-11.07-.34-14.41-2.72-17-5.22-17.87-1.4-16.65 19-4.14 19.06 29.06-1.95 32.39-4 4.03-10.94 4.03-10.94z"/><path d="M69.43 700.5c12.5.1 29.06-2 32.39-4 2.53-1.55 3.55-7.1 3.88-9.66h.37s-.7 8.93-4 11-19.88 4.08-32.39 4c-3.61 0-4.86-1.31-4.79-3.22.47 1.14 1.85 1.86 4.54 1.88z" opacity=".2"/></svg>