<svg xmlns="http://www.w3.org/2000/svg" width="256" height="256" preserveAspectRatio="xMidYMid" viewBox="0 0 256 256"><defs><linearGradient id="a" x1="99.687%" x2="39.836%" y1="15.801%" y2="97.438%"><stop offset="0%" stop-color="#0052CC"/><stop offset="92.3%" stop-color="#2684FF"/></linearGradient></defs><path fill="url(#a)" d="M75.793 117.95c-3.82-4.08-9.77-3.85-12.367 1.342L.791 244.565c-1.161 2.321-1.037 5.078.327 7.286 1.364 2.208 3.775 3.552 6.37 3.552h87.228c2.856.066 5.482-1.557 6.699-4.14 18.808-38.89 7.413-98.018-25.622-133.314z"/><path fill="#2681FF" d="M121.756 4.011c-35.033 55.505-32.721 116.979-9.646 163.13l42.06 84.121c1.269 2.537 3.861 4.14 6.697 4.14h87.227c2.596 0 5.006-1.345 6.37-3.552 1.365-2.208 1.488-4.965.327-7.286 0 0-117.346-234.727-120.298-240.6-2.64-5.258-9.344-5.33-12.737.047z"/></svg>