<svg xmlns="http://www.w3.org/2000/svg" width="256" height="256" preserveAspectRatio="xMidYMid" viewBox="0 0 256 256"><path fill="#3B8AF0" d="M128 0C57.302 0 0 57.315 0 128.006 0 198.692 57.302 256 128 256c70.692 0 128-57.302 128-127.994C255.994 57.321 198.692 0 128 0z"/><path fill="#FFF" d="M209.546 93.82c-1.26-.728-2.73-.914-4.098-.556-.429.128-.857.294-1.254.525l-69.436 40.46c-1.681.978-2.717 2.793-2.717 4.743v21.33c0 .978.262 1.918.722 2.73.467.812 1.138 1.503 1.976 1.995 1.669.96 3.708.965 5.377.02.013-.007.032-.014.045-.026l22.826-13.306v.045l.044-.026v49.45c0 .972.256 1.911.723 2.73.467.786 1.125 1.464 1.95 1.963.838.466 1.771.722 2.71.722.94 0 1.874-.256 2.718-.722l13.645-7.954c1.681-.985 2.71-2.794 2.71-4.75v-55.741l22.053-12.84c1.688-.984 2.71-2.8 2.71-4.756V98.558c0-1.956-1.022-3.76-2.704-4.737zm-77.505-17.704c0 1.957 1.036 3.766 2.717 4.75l20.997 12.232c.09.058.167.134.25.192l.607.352c.115.07.18.191.18.326v.716c.012.096.037.185.037.281v14.808c0 1.451 1.362 2.436 2.673 2.11.173-.051.352-.115.518-.211 8.504-4.949 31.361-18.248 39.782-23.133 1.432-.824 1.4-2.858-.02-3.695l-59.615-34.725c-1.675-.984-3.746-.984-5.428 0-1.247.73-2.142 1.925-2.52 3.293-.114.448-.178.914-.178 1.387v21.317zm-9.59-25.99c-1.689-.985-3.754-.985-5.435 0l-59.641 34.75c-1.407.818-1.433 2.813-.045 3.638 8.446 4.904 31.432 18.26 39.884 23.184 1.413.818 3.171-.211 3.171-1.848V94.952c0-.025.007-.038.007-.064v-1.131l.876-.505c.064-.045.108-.103.172-.135L121.39 81.5c1.745-1.023 2.999-2.68 3.516-4.59.167-.634.256-1.292.256-1.964V54.863c0-1.956-1.036-3.765-2.71-4.737zm-1.17 84.122l-42.059-24.507-27.327-15.914c-1.681-.985-3.747-.985-5.428 0-1.682.972-2.718 2.781-2.718 4.731v21.298c0 1.963 1.036 3.772 2.718 4.757l22.052 12.839v55.74c0 1.963 1.036 3.773 2.71 4.75l13.652 7.955c.837.466 1.777.722 2.71.722.94 0 1.874-.256 2.718-.722 1.247-.736 2.129-1.925 2.513-3.287.115-.447.179-.927.179-1.406v-49.456l.019.013v-.026l22.825 13.306c.02.012.032.019.052.025 1.668.946 3.708.94 5.377-.019 1.675-.978 2.717-2.8 2.717-4.75v-21.31c0-1.945-1.042-3.76-2.71-4.739z"/></svg>