<svg xmlns="http://www.w3.org/2000/svg" width="577.914" height="397" viewBox="109.586 8.5 577.914 397"><path fill="#C1C1C1" stroke="#BFBFBF" stroke-width="1.825" stroke-linecap="round" stroke-miterlimit="10" d="M175.676 55.5v303M684.044 358.5H175.887"/><path fill="#C1C1C1" d="M175.676 55.5H681.27"/><g fill="none" stroke="#DDD" stroke-width=".456" stroke-linecap="round" stroke-miterlimit="10"><path d="M175.676 55.5h1.824"/><path stroke-dasharray="3.6638,3.6638" d="M181.164 55.5h496.45"/><path d="M679.446 55.5h1.824"/></g><path fill="#C1C1C1" d="M175.676 74.494H681.27"/><g fill="none" stroke="#DDD" stroke-width=".456" stroke-linecap="round" stroke-miterlimit="10"><path d="M175.676 74.494h1.824"/><path stroke-dasharray="3.6638,3.6638" d="M181.164 74.494h496.45"/><path d="M679.446 74.494h1.824"/></g><path fill="#C1C1C1" d="M175.676 93.474H681.27"/><g fill="none" stroke="#DDD" stroke-width=".456" stroke-linecap="round" stroke-miterlimit="10"><path d="M175.676 93.474h1.824"/><path stroke-dasharray="3.6638,3.6638" d="M181.164 93.474h496.45"/><path d="M679.446 93.474h1.824"/></g><path fill="#C1C1C1" d="M175.676 112.461H681.27"/><g fill="none" stroke="#DDD" stroke-width=".456" stroke-linecap="round" stroke-miterlimit="10"><path d="M175.676 112.461h1.824"/><path stroke-dasharray="3.6638,3.6638" d="M181.164 112.461h496.45"/><path d="M679.446 112.461h1.824"/></g><path fill="#C1C1C1" d="M681.27 131.426H175.676"/><g fill="none" stroke="#DDD" stroke-width=".456" stroke-linecap="round" stroke-miterlimit="10"><path d="M681.27 131.426h-1.824"/><path stroke-dasharray="3.6638,3.6638" d="M675.782 131.426h-496.45"/><path d="M177.5 131.426h-1.824"/></g><path fill="#C1C1C1" d="M175.676 150.421H681.27"/><g fill="none" stroke="#DDD" stroke-width=".456" stroke-linecap="round" stroke-miterlimit="10"><path d="M175.676 150.421h1.824"/><path stroke-dasharray="3.6638,3.6638" d="M181.164 150.421h496.45"/><path d="M679.446 150.421h1.824"/></g><path fill="#C1C1C1" d="M175.676 169.411H681.27"/><g fill="none" stroke="#DDD" stroke-width=".456" stroke-linecap="round" stroke-miterlimit="10"><path d="M175.676 169.411h1.824"/><path stroke-dasharray="3.6638,3.6638" d="M181.164 169.411h496.45"/><path d="M679.446 169.411h1.824"/></g><path fill="#C1C1C1" d="M175.676 188.387H681.27"/><g fill="none" stroke="#DDD" stroke-width=".456" stroke-linecap="round" stroke-miterlimit="10"><path d="M175.676 188.387h1.824"/><path stroke-dasharray="3.6638,3.6638" d="M181.164 188.387h496.45"/><path d="M679.446 188.387h1.824"/></g><g><path fill="#C1C1C1" d="M175.676 207.374H681.27"/><g fill="none" stroke="#DDD" stroke-width=".456" stroke-linecap="round" stroke-miterlimit="10"><path d="M175.676 207.374h1.824"/><path stroke-dasharray="3.6638,3.6638" d="M181.164 207.374h496.45"/><path d="M679.446 207.374h1.824"/></g></g><g><path fill="#C1C1C1" d="M175.676 226.34H681.27"/><g fill="none" stroke="#DDD" stroke-width=".456" stroke-linecap="round" stroke-miterlimit="10"><path d="M175.676 226.34h1.824"/><path stroke-dasharray="3.6638,3.6638" d="M181.164 226.34h496.45"/><path d="M679.446 226.34h1.824"/></g></g><g><path fill="#C1C1C1" d="M175.676 245.338H681.27"/><g fill="none" stroke="#DDD" stroke-width=".456" stroke-linecap="round" stroke-miterlimit="10"><path d="M175.676 245.338h1.824"/><path stroke-dasharray="3.6638,3.6638" d="M181.164 245.338h496.45"/><path d="M679.446 245.338h1.824"/></g></g><g><path fill="#C1C1C1" d="M175.676 264.314H681.27"/><g fill="none" stroke="#DDD" stroke-width=".456" stroke-linecap="round" stroke-miterlimit="10"><path d="M175.676 264.314h1.824"/><path stroke-dasharray="3.6638,3.6638" d="M181.164 264.314h496.45"/><path d="M679.446 264.314h1.824"/></g></g><g><path fill="#C1C1C1" d="M175.676 283.279H681.27"/><g fill="none" stroke="#DDD" stroke-width=".456" stroke-linecap="round" stroke-miterlimit="10"><path d="M175.676 283.279h1.824"/><path stroke-dasharray="3.6638,3.6638" d="M181.164 283.279h496.45"/><path d="M679.446 283.279h1.824"/></g></g><g><path fill="#C1C1C1" d="M175.676 302.259H681.27"/><g fill="none" stroke="#DDD" stroke-width=".456" stroke-linecap="round" stroke-miterlimit="10"><path d="M175.676 302.259h1.824"/><path stroke-dasharray="3.6638,3.6638" d="M181.164 302.259h496.45"/><path d="M679.446 302.259h1.824"/></g></g><g><path fill="#C1C1C1" d="M175.676 321.246H681.27"/><g fill="none" stroke="#DDD" stroke-width=".456" stroke-linecap="round" stroke-miterlimit="10"><path d="M175.676 321.246h1.824"/><path stroke-dasharray="3.6638,3.6638" d="M181.164 321.246h496.45"/><path d="M679.446 321.246h1.824"/></g></g><g><path fill="#C1C1C1" d="M175.676 340.226H681.27"/><g fill="none" stroke="#DDD" stroke-width=".456" stroke-linecap="round" stroke-miterlimit="10"><path d="M175.676 340.226h1.824"/><path stroke-dasharray="3.6638,3.6638" d="M181.164 340.226h496.45"/><path d="M679.446 340.226h1.824"/></g></g><g fill="#C1C1C1"><path d="M118.288 82.175h-2.075V68.863l-3.138.042V67.41l5.213-.569v15.334zM134.211 76.33c0 1.959-.434 3.46-1.3 4.502-.867 1.042-2.056 1.564-3.565 1.564-1.51 0-2.703-.523-3.581-1.569-.877-1.046-1.316-2.545-1.316-4.497v-3.633c0-1.952.437-3.453 1.312-4.502.874-1.05 2.062-1.575 3.564-1.575 1.51 0 2.702.525 3.576 1.575.874 1.049 1.311 2.55 1.311 4.502v3.633zm-2.074-4.079c0-1.326-.24-2.324-.721-2.994-.481-.67-1.178-1.005-2.091-1.005-.913 0-1.607.335-2.085 1.005-.478.67-.716 1.668-.716 2.994v4.493c0 1.326.242 2.327.727 3.004s1.183 1.016 2.096 1.016 1.606-.337 2.08-1.01.711-1.677.711-3.009v-4.494zM146.365 76.33c0 1.959-.434 3.46-1.3 4.502-.867 1.042-2.056 1.564-3.565 1.564-1.51 0-2.703-.523-3.581-1.569-.877-1.046-1.316-2.545-1.316-4.497v-3.633c0-1.952.437-3.453 1.312-4.502.874-1.05 2.062-1.575 3.564-1.575 1.51 0 2.702.525 3.576 1.575.874 1.049 1.311 2.55 1.311 4.502v3.633zm-2.075-4.079c0-1.326-.24-2.324-.721-2.994-.481-.67-1.178-1.005-2.091-1.005-.913 0-1.607.335-2.085 1.005-.478.67-.716 1.668-.716 2.994v4.493c0 1.326.242 2.327.727 3.004s1.183 1.016 2.096 1.016 1.606-.337 2.08-1.01.711-1.677.711-3.009v-4.494zM148.661 69.79c0-.892.288-1.643.864-2.253s1.344-.917 2.306-.917 1.731.304 2.307.911.862 1.36.862 2.259v.811c0 .892-.286 1.64-.858 2.243-.573.604-1.336.906-2.291.906-.969 0-1.743-.302-2.322-.906-.58-.604-.869-1.352-.869-2.243v-.811zm1.537.811c0 .52.142.96.427 1.322.284.362.693.542 1.227.542.513 0 .909-.179 1.19-.537.281-.358.421-.8.421-1.327v-.811c0-.52-.142-.963-.426-1.332s-.687-.553-1.206-.553c-.526 0-.93.184-1.211.553s-.421.812-.421 1.332v.811zm2.191 10.415l-1.148-.706 7.488-11.985 1.148.706-7.488 11.985zm3.696-2.601c0-.892.288-1.641.864-2.249.575-.607 1.344-.911 2.306-.911.955 0 1.722.304 2.301.911.579.607.869 1.357.869 2.249v.821c0 .899-.288 1.65-.863 2.254-.576.604-1.338.906-2.286.906-.969 0-1.743-.302-2.322-.906-.579-.604-.869-1.355-.869-2.254v-.821zm1.538.821c0 .527.142.971.427 1.333.284.362.693.542 1.227.542.513 0 .909-.181 1.19-.542.28-.362.421-.806.421-1.333v-.821c0-.52-.144-.962-.432-1.327-.288-.365-.688-.547-1.201-.547-.52 0-.921.183-1.206.547-.285.365-.427.808-.427 1.327v.821z"/></g><g fill="#C1C1C1"><path d="M145.365 351c0 1.959-.434 3.459-1.3 4.502-.867 1.043-2.056 1.563-3.565 1.563-1.51 0-2.703-.522-3.581-1.568-.877-1.047-1.316-2.545-1.316-4.497v-3.634c0-1.951.437-3.452 1.312-4.502.874-1.05 2.062-1.574 3.564-1.574 1.51 0 2.702.524 3.576 1.574s1.311 2.551 1.311 4.502V351zm-2.075-4.079c0-1.326-.24-2.324-.721-2.994s-1.178-1.005-2.091-1.005c-.913 0-1.607.335-2.085 1.005s-.716 1.668-.716 2.994v4.493c0 1.325.242 2.327.727 3.004s1.183 1.016 2.096 1.016 1.606-.337 2.08-1.011c.474-.673.711-1.676.711-3.009v-4.493zM147.661 344.46c0-.892.288-1.644.864-2.254.576-.611 1.344-.916 2.306-.916s1.731.304 2.307.91c.576.607.863 1.36.863 2.26v.811c0 .892-.286 1.64-.858 2.243-.573.604-1.336.906-2.291.906-.969 0-1.743-.302-2.322-.906-.58-.604-.869-1.352-.869-2.243v-.811zm1.537.811c0 .52.142.96.427 1.321.284.362.693.543 1.227.543.513 0 .909-.179 1.19-.537.281-.358.421-.801.421-1.327v-.811c0-.52-.142-.964-.426-1.333-.284-.368-.687-.553-1.206-.553-.526 0-.93.185-1.211.553-.281.369-.421.813-.421 1.333v.811zm2.191 10.416l-1.148-.706 7.488-11.984 1.148.705-7.488 11.985zm3.696-2.602c0-.892.288-1.641.864-2.248.575-.607 1.344-.911 2.306-.911.955 0 1.722.304 2.301.911s.869 1.356.869 2.248v.821c0 .899-.288 1.65-.863 2.254-.576.604-1.338.905-2.286.905-.969 0-1.743-.302-2.322-.905-.579-.604-.869-1.354-.869-2.254v-.821zm1.538.821c0 .526.142.971.427 1.332.284.362.693.543 1.227.543.513 0 .909-.181 1.19-.543.28-.361.421-.806.421-1.332v-.821c0-.52-.144-.962-.432-1.327-.288-.365-.688-.548-1.201-.548-.52 0-.921.183-1.206.548-.285.365-.427.808-.427 1.327v.821z"/></g><path fill="#22B0EF" d="M194.324 73.817h91.133v284.006h-91.133z"/><path fill="#F3C46B" d="M320.825 185.275h91.119v172.549h-91.119z"/><path fill="#8026EA" d="M447.311 130.746h91.132v227.077h-91.132z"/><path fill="#1E87F0" d="M573.813 264.434h91.132v93.389h-91.132z"/></svg>