<svg xmlns="http://www.w3.org/2000/svg" width="400" height="400" viewBox="0 0 400 400"><g fill="none" stroke-miterlimit="10"><path stroke="#E5E5E5" stroke-width=".899" d="M381.018 197.299c0 49.204-19.944 93.749-52.188 125.994s-76.79 52.188-125.994 52.188c-49.204 0-93.749-19.944-125.993-52.188-32.245-32.245-52.188-76.79-52.188-125.994S44.598 103.55 76.842 71.306s76.79-52.188 125.993-52.188c49.203 0 93.749 19.944 125.994 52.188 32.245 32.244 52.189 76.79 52.189 125.993z"/><path stroke="#E5E5E5" stroke-width=".899" d="M350.618 197.299c0 40.809-16.541 77.755-43.284 104.498s-63.689 43.284-104.498 43.284c-40.809 0-77.754-16.541-104.498-43.284s-43.284-63.689-43.284-104.498 16.541-77.754 43.284-104.497 63.689-43.284 104.498-43.284c40.809 0 77.755 16.541 104.498 43.284s43.284 63.689 43.284 104.497z"/><path stroke="#E5E5E5" stroke-width=".899" d="M320.218 197.299c0 32.414-13.139 61.76-34.38 83.002-21.242 21.242-50.588 34.381-83.002 34.381s-61.76-13.138-83.002-34.381c-21.242-21.242-34.38-50.587-34.38-83.002s13.138-61.76 34.38-83.002c21.242-21.242 50.588-34.38 83.002-34.38s61.76 13.138 83.002 34.38c21.241 21.243 34.38 50.588 34.38 83.002z"/><path stroke="#E5E5E5" stroke-width=".899" d="M289.818 197.299c0 24.02-9.736 45.765-25.477 61.506-15.74 15.741-37.486 25.477-61.506 25.477-24.02 0-45.765-9.736-61.506-25.477-15.74-15.741-25.476-37.486-25.476-61.506s9.736-45.765 25.476-61.506c15.741-15.74 37.486-25.476 61.506-25.476 24.019 0 45.765 9.736 61.506 25.476 15.741 15.741 25.477 37.487 25.477 61.506z"/><path stroke="#E5E5E5" stroke-width=".899" d="M259.418 197.299c0 15.625-6.333 29.771-16.573 40.01s-24.385 16.573-40.01 16.573c-15.625 0-29.77-6.333-40.01-16.573s-16.573-24.385-16.573-40.01 6.333-29.771 16.573-40.01c10.239-10.239 24.385-16.572 40.01-16.572 15.625 0 29.77 6.333 40.01 16.572 10.24 10.24 16.573 24.386 16.573 40.01z"/><path stroke="#2433ED" stroke-width="4.497" stroke-linecap="round" d="M202.836 19.118c24.602 0 48.039 4.986 69.357 14.002 21.317 9.017 40.515 22.064 56.637 38.186s29.17 35.32 38.186 56.637c9.016 21.317 14.003 44.755 14.003 69.356s-4.986 48.039-14.003 69.356c-9.016 21.318-22.064 40.515-38.186 56.637s-35.32 29.17-56.637 38.186c-21.318 9.016-44.755 14.003-69.357 14.003-24.602 0-48.039-4.986-69.356-14.003-21.317-9.016-40.515-22.064-56.637-38.186"/><path stroke="#F3C46B" stroke-width="4.497" stroke-linecap="round" d="M307.333 92.802c26.743 26.743 43.284 63.689 43.284 104.497s-16.541 77.755-43.284 104.498-63.689 43.284-104.498 43.284c-40.809 0-77.754-16.541-104.498-43.284s-43.284-63.689-43.284-104.498"/><path stroke="#1E87F0" stroke-width="4.497" stroke-linecap="round" d="M202.836 79.917c32.414 0 61.76 13.138 83.002 34.38 21.242 21.242 34.38 50.587 34.38 83.002s-13.139 61.76-34.38 83.002c-21.242 21.242-50.588 34.381-83.002 34.381s-61.76-13.138-83.002-34.381"/><path stroke="#BABCBE" stroke-width="4.497" stroke-linecap="round" d="M264.341 135.794c15.741 15.741 25.477 37.486 25.477 61.506s-9.736 45.765-25.477 61.506c-15.74 15.741-37.486 25.477-61.506 25.477-24.02 0-45.765-9.736-61.506-25.477-15.74-15.741-25.476-37.486-25.476-61.506"/><path stroke="#22B9FC" stroke-width="4.497" stroke-linecap="round" d="M162.826 157.289c10.239-10.239 24.385-16.572 40.01-16.572 15.625 0 29.77 6.333 40.01 16.572 10.239 10.239 16.573 24.385 16.573 40.01s-6.333 29.771-16.573 40.01-24.385 16.573-40.01 16.573"/></g></svg>