<svg xmlns="http://www.w3.org/2000/svg" width="400" height="400" viewBox="0 0 400 400"><path d="M21.096 330.971h376.358M21.096 301.676h376.358M21.096 272.38h376.358M21.096 243.084h376.358M21.096 213.788h376.358M21.096 184.493h376.358M21.096 155.197h376.358M21.096 125.901h376.358M21.096 96.605h376.358M21.096 67.309h376.358" fill="none" stroke="#9FA7AA" stroke-width=".5" stroke-miterlimit="10"/><path d="M6.25 304.016h-.021l-1.241.8-.188-.879 1.56-.997h.824v8.529H6.25v-7.453zm8.283 3.096c0 2.899-.901 4.501-2.483 4.501-1.395 0-2.34-1.562-2.362-4.383 0-2.861 1.033-4.436 2.483-4.436 1.505.001 2.362 1.602 2.362 4.318zm-3.878.131c0 2.218.571 3.478 1.45 3.478.989 0 1.461-1.378 1.461-3.557 0-2.1-.451-3.477-1.45-3.477-.846.001-1.461 1.234-1.461 3.556zM4.152 287.449v-.709l.758-.879c1.824-2.073 2.647-3.176 2.659-4.462 0-.866-.352-1.666-1.417-1.666-.648 0-1.187.394-1.516.722l-.308-.813c.494-.499 1.197-.866 2.021-.866 1.538 0 2.186 1.26 2.186 2.48 0 1.574-.956 2.847-2.461 4.579l-.571.63v.026h3.208v.958H4.152zm10.381-4.356c0 2.899-.901 4.501-2.483 4.501-1.395 0-2.34-1.562-2.362-4.383 0-2.861 1.033-4.436 2.483-4.436 1.505 0 2.362 1.601 2.362 4.318zm-3.878.131c0 2.218.571 3.478 1.45 3.478.989 0 1.461-1.378 1.461-3.557 0-2.1-.451-3.477-1.45-3.477-.846 0-1.461 1.233-1.461 3.556zM4.383 262.107c.274.21.912.538 1.582.538 1.241 0 1.626-.945 1.615-1.653-.011-1.194-.912-1.706-1.846-1.706h-.538v-.866h.539c.703 0 1.593-.434 1.593-1.443 0-.683-.362-1.286-1.252-1.286-.571 0-1.121.302-1.428.564l-.253-.84c.374-.328 1.099-.656 1.868-.656 1.406 0 2.043.997 2.043 2.034 0 .879-.439 1.627-1.318 2.008v.025c.879.21 1.593.998 1.593 2.191 0 1.365-.89 2.56-2.604 2.56-.802 0-1.505-.302-1.856-.577l.262-.893zm10.15-3.031c0 2.899-.901 4.501-2.483 4.501-1.395 0-2.34-1.562-2.362-4.383 0-2.861 1.033-4.436 2.483-4.436 1.505.001 2.362 1.601 2.362 4.318zm-3.878.131c0 2.218.571 3.478 1.45 3.478.989 0 1.461-1.378 1.461-3.556 0-2.1-.451-3.478-1.45-3.478-.846 0-1.461 1.234-1.461 3.556zM7.141 239.412v-2.322H3.822v-.762l3.187-5.445h1.043v5.301h1v.906h-1v2.322h-.911zm0-3.228v-2.848c0-.445.011-.892.033-1.338h-.033c-.22.498-.396.866-.594 1.26l-1.747 2.9v.025h2.341zm7.392-1.128c0 2.899-.901 4.501-2.483 4.501-1.395 0-2.34-1.562-2.362-4.383 0-2.861 1.033-4.436 2.483-4.436 1.505 0 2.362 1.601 2.362 4.318zm-3.878.131c0 2.218.571 3.478 1.45 3.478.989 0 1.461-1.378 1.461-3.557 0-2.1-.451-3.477-1.45-3.477-.846 0-1.461 1.233-1.461 3.556zM8.415 207.839H5.69l-.275 2.191c.165-.026.319-.053.583-.053.549 0 1.099.145 1.538.46.56.38 1.021 1.115 1.021 2.191 0 1.666-1.109 2.913-2.659 2.913-.78 0-1.439-.263-1.78-.525l.242-.879c.296.21.879.473 1.527.473.912 0 1.692-.709 1.692-1.851-.011-1.103-.626-1.89-2.055-1.89-.406 0-.725.053-.989.092l.461-4.094h3.417v.972zm6.118 3.202c0 2.899-.901 4.501-2.483 4.501-1.395 0-2.34-1.562-2.362-4.383 0-2.861 1.033-4.436 2.483-4.436 1.505.001 2.362 1.601 2.362 4.318zm-3.878.131c0 2.218.571 3.478 1.45 3.478.989 0 1.461-1.378 1.461-3.556 0-2.1-.451-3.478-1.45-3.478-.846 0-1.461 1.234-1.461 3.556zM8.228 183.66c-.198-.013-.451 0-.725.052-1.516.302-2.318 1.627-2.483 3.031h.033c.341-.538.934-.984 1.725-.984 1.263 0 2.153 1.089 2.153 2.755 0 1.562-.89 3.005-2.373 3.005-1.527 0-2.527-1.417-2.527-3.635 0-1.68.505-3.005 1.208-3.845a3.652 3.652 0 0 1 2.285-1.26c.286-.053.527-.066.703-.066v.947zm-.275 4.921c0-1.221-.582-1.956-1.472-1.956-.583 0-1.121.433-1.385 1.05a1.147 1.147 0 0 0-.109.512c.021 1.404.56 2.441 1.571 2.441.835 0 1.395-.827 1.395-2.047zm6.58-1.561c0 2.9-.901 4.501-2.483 4.501-1.395 0-2.34-1.562-2.362-4.383 0-2.86 1.033-4.435 2.483-4.435 1.505-.001 2.362 1.6 2.362 4.317zm-3.878.13c0 2.218.571 3.478 1.45 3.478.989 0 1.461-1.378 1.461-3.556 0-2.1-.451-3.478-1.45-3.478-.846 0-1.461 1.234-1.461 3.556zM8.788 158.829v.761l-3.109 7.769h-1l3.098-7.545v-.026H4.284v-.958h4.504zm5.745 4.173c0 2.9-.901 4.501-2.483 4.501-1.395 0-2.34-1.562-2.362-4.383 0-2.86 1.033-4.435 2.483-4.435 1.505 0 2.362 1.6 2.362 4.317zm-3.878.131c0 2.218.571 3.478 1.45 3.478.989 0 1.461-1.378 1.461-3.556 0-2.1-.451-3.478-1.45-3.478-.846 0-1.461 1.233-1.461 3.556zM4.064 141.175c0-1.076.538-1.837 1.417-2.284l-.011-.039a2.144 2.144 0 0 1-1.132-1.916c0-1.352.956-2.27 2.208-2.27 1.385 0 2.077 1.037 2.077 2.1 0 .722-.296 1.496-1.175 1.995v.039c.89.42 1.439 1.168 1.439 2.205 0 1.483-1.066 2.48-2.428 2.48-1.494-.001-2.395-1.064-2.395-2.31zm3.845-.053c0-1.037-.604-1.535-1.571-1.863-.835.289-1.286.945-1.286 1.758-.033.866.517 1.627 1.429 1.627.868.001 1.428-.643 1.428-1.522zm-2.658-4.265c0 .853.538 1.312 1.362 1.575.615-.25 1.087-.774 1.087-1.548 0-.683-.34-1.391-1.208-1.391-.802 0-1.241.63-1.241 1.364zm9.282 2.126c0 2.9-.901 4.501-2.483 4.501-1.395 0-2.34-1.562-2.362-4.383 0-2.86 1.033-4.435 2.483-4.435 1.505 0 2.362 1.601 2.362 4.317zm-3.878.131c0 2.218.571 3.478 1.45 3.478.989 0 1.461-1.378 1.461-3.556 0-2.1-.451-3.478-1.45-3.478-.846 0-1.461 1.234-1.461 3.556zM4.712 118.51c.208.026.451 0 .78-.04a2.522 2.522 0 0 0 1.494-.827c.473-.512.813-1.26.945-2.27h-.033c-.396.577-.967.918-1.681.918-1.286 0-2.109-1.155-2.109-2.611 0-1.614.978-3.031 2.438-3.031 1.461 0 2.362 1.417 2.362 3.595 0 1.876-.527 3.189-1.23 4.002a3.35 3.35 0 0 1-2.076 1.142c-.352.066-.659.079-.89.066v-.944zm.352-4.908c0 1.063.539 1.811 1.374 1.811.648 0 1.153-.38 1.406-.892a.878.878 0 0 0 .088-.42c0-1.457-.451-2.572-1.461-2.572-.825-.001-1.407.866-1.407 2.073zm9.469 1.365c0 2.9-.901 4.501-2.483 4.501-1.395 0-2.34-1.562-2.362-4.383 0-2.86 1.033-4.435 2.483-4.435 1.505-.001 2.362 1.6 2.362 4.317zm-3.878.131c0 2.218.571 3.478 1.45 3.478.989 0 1.461-1.378 1.461-3.556 0-2.1-.451-3.478-1.45-3.478-.846 0-1.461 1.233-1.461 3.556zM49.462 350.47v-.607l.649-.753c1.563-1.777 2.269-2.722 2.278-3.824 0-.742-.301-1.428-1.214-1.428-.556 0-1.017.337-1.299.618l-.264-.697a2.442 2.442 0 0 1 1.732-.742c1.318 0 1.874 1.08 1.874 2.126 0 1.35-.819 2.44-2.109 3.925l-.49.539v.022h2.749v.821h-3.906zm8.897-3.734c0 2.485-.772 3.857-2.127 3.857-1.196 0-2.005-1.339-2.024-3.757 0-2.451.885-3.801 2.128-3.801 1.289.001 2.023 1.373 2.023 3.701zm-3.323.113c0 1.9.49 2.98 1.243 2.98.847 0 1.252-1.182 1.252-3.048 0-1.8-.386-2.98-1.243-2.98-.725 0-1.252 1.057-1.252 3.048zm5.883-2.767H60.9l-1.064.687-.16-.754 1.337-.854h.706v7.31h-.8v-6.389zm4.83 0h-.019l-1.064.687-.16-.754 1.337-.854h.706v7.31h-.8v-6.389zM110.196 350.47v-.607l.649-.753c1.563-1.777 2.269-2.722 2.278-3.824 0-.742-.301-1.428-1.214-1.428-.556 0-1.017.337-1.299.618l-.264-.697a2.442 2.442 0 0 1 1.732-.742c1.318 0 1.874 1.08 1.874 2.126 0 1.35-.819 2.44-2.109 3.925l-.49.539v.022h2.749v.821h-3.906zm8.896-3.734c0 2.485-.772 3.857-2.127 3.857-1.196 0-2.005-1.339-2.024-3.757 0-2.451.885-3.801 2.128-3.801 1.289.001 2.023 1.373 2.023 3.701zm-3.323.113c0 1.9.49 2.98 1.243 2.98.847 0 1.252-1.182 1.252-3.048 0-1.8-.386-2.98-1.243-2.98-.725 0-1.252 1.057-1.252 3.048zm5.884-2.767h-.019l-1.064.687-.16-.754 1.337-.854h.706v7.31h-.8v-6.389zm3.033 6.388v-.607l.649-.753c1.563-1.777 2.269-2.722 2.278-3.824 0-.742-.301-1.428-1.214-1.428-.556 0-1.017.337-1.299.618l-.264-.697a2.442 2.442 0 0 1 1.732-.742c1.318 0 1.874 1.08 1.874 2.126 0 1.35-.819 2.44-2.109 3.925l-.49.539v.022h2.749v.821h-3.906zM170.93 350.474v-.607l.649-.753c1.563-1.777 2.269-2.722 2.278-3.824 0-.742-.301-1.428-1.214-1.428-.556 0-1.017.337-1.299.618l-.264-.697a2.442 2.442 0 0 1 1.732-.742c1.318 0 1.874 1.08 1.874 2.126 0 1.35-.819 2.44-2.109 3.925l-.49.539v.022h2.749v.821h-3.906zm8.897-3.734c0 2.485-.772 3.857-2.127 3.857-1.196 0-2.005-1.339-2.024-3.757 0-2.451.885-3.801 2.128-3.801 1.288.001 2.023 1.373 2.023 3.701zm-3.324.113c0 1.9.49 2.98 1.243 2.98.847 0 1.252-1.182 1.252-3.048 0-1.8-.386-2.98-1.243-2.98-.724 0-1.252 1.057-1.252 3.048zm5.884-2.767h-.019l-1.064.687-.16-.754 1.337-.854h.706v7.31h-.8v-6.389zm3.23 5.252c.235.18.781.461 1.355.461 1.064 0 1.394-.81 1.384-1.417-.009-1.023-.781-1.462-1.582-1.462h-.461v-.742h.461c.603 0 1.365-.371 1.365-1.237 0-.585-.311-1.102-1.073-1.102-.49 0-.96.259-1.224.483l-.216-.72c.32-.281.941-.562 1.601-.562 1.205 0 1.751.854 1.751 1.743 0 .754-.376 1.395-1.13 1.721v.022c.753.18 1.365.854 1.365 1.878 0 1.17-.763 2.193-2.231 2.193-.687 0-1.29-.259-1.591-.495l.226-.764zM231.666 350.474v-.607l.649-.753c1.563-1.777 2.269-2.722 2.278-3.824 0-.742-.301-1.428-1.214-1.428-.556 0-1.017.337-1.299.618l-.264-.697a2.442 2.442 0 0 1 1.732-.742c1.318 0 1.874 1.08 1.874 2.126 0 1.35-.819 2.44-2.109 3.925l-.49.539v.022h2.749v.821h-3.906zm8.896-3.734c0 2.485-.772 3.857-2.127 3.857-1.196 0-2.005-1.339-2.024-3.757 0-2.451.885-3.801 2.128-3.801 1.289.001 2.023 1.373 2.023 3.701zm-3.323.113c0 1.9.49 2.98 1.243 2.98.847 0 1.252-1.182 1.252-3.048 0-1.8-.386-2.98-1.243-2.98-.725 0-1.252 1.057-1.252 3.048zm5.884-2.767h-.019l-1.064.687-.16-.754 1.337-.854h.706v7.31h-.8v-6.389zm5.593 6.388v-1.99h-2.843v-.652l2.73-4.667h.894v4.543h.857v.776h-.857v1.99h-.781zm0-2.767v-2.44c0-.382.009-.765.028-1.146h-.028c-.188.427-.339.742-.508 1.079l-1.497 2.485v.022h2.005zM292.402 350.474v-.607l.649-.753c1.563-1.777 2.269-2.722 2.278-3.824 0-.742-.301-1.428-1.214-1.428-.556 0-1.017.337-1.299.618l-.264-.697a2.442 2.442 0 0 1 1.732-.742c1.318 0 1.874 1.08 1.874 2.126 0 1.35-.819 2.44-2.109 3.925l-.49.539v.022h2.749v.821h-3.906zm8.896-3.734c0 2.485-.772 3.857-2.127 3.857-1.196 0-2.005-1.339-2.024-3.757 0-2.451.885-3.801 2.128-3.801 1.289.001 2.023 1.373 2.023 3.701zm-3.323.113c0 1.9.49 2.98 1.243 2.98.847 0 1.252-1.182 1.252-3.048 0-1.8-.386-2.98-1.243-2.98-.725 0-1.252 1.057-1.252 3.048zm5.884-2.767h-.019l-1.064.687-.16-.754 1.337-.854h.706v7.31h-.8v-6.389zm6.685-.09h-2.335l-.235 1.878c.141-.022.273-.045.499-.045.471 0 .941.124 1.318.394.48.326.875.956.875 1.878 0 1.429-.951 2.497-2.278 2.497-.668 0-1.233-.226-1.525-.45l.207-.753c.254.18.753.404 1.309.404.781 0 1.45-.607 1.45-1.586-.009-.944-.537-1.619-1.76-1.619-.349 0-.622.045-.848.079l.396-3.509h2.928v.832zM353.137 350.476v-.607l.649-.753c1.563-1.777 2.269-2.722 2.278-3.824 0-.742-.301-1.428-1.214-1.428-.556 0-1.017.337-1.299.618l-.264-.697a2.442 2.442 0 0 1 1.732-.742c1.318 0 1.874 1.08 1.874 2.126 0 1.35-.819 2.44-2.109 3.925l-.49.539v.022h2.749v.821h-3.906zm8.897-3.734c0 2.485-.772 3.857-2.127 3.857-1.196 0-2.005-1.339-2.024-3.757 0-2.451.885-3.801 2.128-3.801 1.288.001 2.023 1.373 2.023 3.701zm-3.324.112c0 1.9.49 2.98 1.243 2.98.847 0 1.252-1.182 1.252-3.048 0-1.8-.386-2.98-1.243-2.98-.724.001-1.252 1.058-1.252 3.048zm5.885-2.766h-.019l-1.064.687-.16-.754 1.337-.854h.706v7.31h-.8v-6.389zm6.525-.225c-.169-.012-.386 0-.622.045-1.299.259-1.986 1.395-2.127 2.598h.028c.292-.461.8-.844 1.478-.844 1.083 0 1.845.934 1.845 2.362 0 1.338-.763 2.575-2.034 2.575-1.309 0-2.165-1.215-2.165-3.115 0-1.439.433-2.575 1.035-3.295a3.127 3.127 0 0 1 1.958-1.08c.245-.045.452-.056.603-.056v.81zm-.236 4.217c0-1.046-.499-1.676-1.262-1.676-.499 0-.96.371-1.186.9a.961.961 0 0 0-.094.438c.019 1.203.48 2.092 1.346 2.092.716.001 1.196-.708 1.196-1.754z" fill="#9FA7AA"/><path fill="none" stroke="#CFD8DC" stroke-width=".422" stroke-miterlimit="10" d="M87.501 330.971v8.942m61.373-8.942v8.942m61.372-8.942v8.942m61.373-8.942v8.942m61.373-8.942v8.942"/><path fill="#22B9FC" d="M142.164 67.309h-.953c-4.14 0-7.495 4.053-7.495 9.053v95.142h15.943V76.363c0-5-3.356-9.054-7.495-9.054z"/><path fill="#F3C46B" d="M176.546 125.901h-.953c-4.139 0-7.495 4.053-7.495 9.053v49.658h15.943v-49.658c0-5-3.355-9.053-7.495-9.053z"/><path fill="#2433ED" d="M42.102 259.976h15.943v70.995H42.102zm34.382-41.505h15.943v112.5H76.484zm57.231-46.966h15.943v159.466h-15.943zm34.383 13.107h15.943v146.359h-15.943zm57.231 53.52h15.943v92.84h-15.943zm34.383-19.661h15.943v112.5h-15.943zm57.231-7.372h15.943v119.873h-15.943zm34.383 27.033h15.943v92.84h-15.943z"/><path fill="#F3C46B" d="M50.55 213.788h-.953c-4.139 0-7.495 4.053-7.495 9.053v37.135h15.943v-37.135c0-4.999-3.356-9.053-7.495-9.053z"/><path fill="#22B9FC" d="M84.932 184.612h-.953c-4.139 0-7.495 4.053-7.495 9.053v24.806h15.943v-24.806c0-5-3.355-9.053-7.495-9.053z"/><path fill="#F3C46B" d="M233.777 155.256h-.953c-4.14 0-7.495 4.053-7.495 9.053v73.822h15.943V164.31c.001-5-3.355-9.054-7.495-9.054z"/><path fill="#22B9FC" d="M268.16 96.34h-.953c-4.14 0-7.495 4.053-7.495 9.053v113.078h15.943V105.394c0-5-3.356-9.054-7.495-9.054z"/><path fill="#F3C46B" d="M325.391 125.764h-.953c-4.139 0-7.495 4.053-7.495 9.053v76.282h15.943v-76.282c0-5-3.355-9.053-7.495-9.053z"/><path fill="#22B9FC" d="M359.774 96.605h-.953c-4.14 0-7.495 4.053-7.495 9.053v132.473h15.943V105.659c0-5.001-3.356-9.054-7.495-9.054z"/><path d="M80.419 123.568H77.63l-.281 2.268c.168-.027.326-.055.596-.055.562 0 1.125.149 1.574.476.574.394 1.046 1.154 1.046 2.268 0 1.725-1.136 3.015-2.722 3.015-.798 0-1.473-.271-1.822-.543l.248-.91c.304.217.899.489 1.563.489.934 0 1.732-.733 1.732-1.915-.011-1.141-.641-1.956-2.103-1.956-.416 0-.742.054-1.012.095l.473-4.237h3.498v1.005zm6.308 3.313c0 3.001-.922 4.658-2.542 4.658-1.428 0-2.396-1.616-2.418-4.536 0-2.961 1.057-4.59 2.542-4.59 1.54.001 2.418 1.657 2.418 4.468zm-3.97.136c0 2.295.585 3.599 1.484 3.599 1.012 0 1.496-1.426 1.496-3.681 0-2.173-.461-3.599-1.484-3.599-.866.001-1.496 1.278-1.496 3.681zm8.219-1.969c0 1.86-.81 2.784-1.754 2.784-.911 0-1.698-.883-1.709-2.662 0-1.766.798-2.757 1.766-2.757 1.022.001 1.697.951 1.697 2.635zm-2.677.081c-.022 1.127.326 1.983.945 1.983.652 0 .944-.842.944-2.01 0-1.073-.258-1.969-.944-1.969-.619 0-.945.883-.945 1.996zm.854 6.411l4.296-9.126h.63l-4.296 9.126h-.63zm6.579-2.839c0 1.86-.81 2.784-1.743 2.784-.911 0-1.698-.883-1.709-2.648 0-1.779.798-2.771 1.766-2.771 1.023 0 1.686.951 1.686 2.635zm-2.676.082c-.011 1.127.349 1.983.956 1.983.652 0 .945-.842.945-2.01 0-1.073-.259-1.969-.945-1.969-.619 0-.956.882-.956 1.996z" fill="#F2F2F2"/></svg>