<?xml version="1.0" encoding="utf-8"?>
<!-- Generator: Adobe Illustrator 17.0.0, SVG Export Plug-In . SVG Version: 6.00 Build 0)  -->
<!DOCTYPE svg PUBLIC "-//W3C//DTD SVG 1.1//EN" "http://www.w3.org/Graphics/SVG/1.1/DTD/svg11.dtd">
<svg version="1.1" xmlns="http://www.w3.org/2000/svg" xmlns:xlink="http://www.w3.org/1999/xlink" x="0px" y="0px"
	 width="577.914px" height="397px" viewBox="109.586 8.5 577.914 397" enable-background="new 109.586 8.5 577.914 397"
	 xml:space="preserve">
<g id="Capa_1" display="none">
	<g display="inline">
		<g>
			<g>
				
					<line fill="#C1C1C1" stroke="#BFBFBF" stroke-width="1.8245" stroke-linecap="round" stroke-miterlimit="10" x1="175.676" y1="77.208" x2="175.676" y2="323.844"/>
				
					<line fill="#C1C1C1" stroke="#BFBFBF" stroke-width="1.8245" stroke-linecap="round" stroke-miterlimit="10" x1="684.044" y1="323.844" x2="175.887" y2="323.844"/>
				<g>
					<line fill="#C1C1C1" x1="175.676" y1="77.208" x2="681.27" y2="77.208"/>
					<g>
						
							<line fill="none" stroke="#DDDDDD" stroke-width="0.4561" stroke-linecap="round" stroke-miterlimit="10" x1="175.676" y1="77.208" x2="177.5" y2="77.208"/>
						
							<line fill="none" stroke="#DDDDDD" stroke-width="0.4561" stroke-linecap="round" stroke-miterlimit="10" stroke-dasharray="3.6638,3.6638" x1="181.164" y1="77.208" x2="677.614" y2="77.208"/>
						
							<line fill="none" stroke="#DDDDDD" stroke-width="0.4561" stroke-linecap="round" stroke-miterlimit="10" x1="679.446" y1="77.208" x2="681.27" y2="77.208"/>
					</g>
				</g>
				<g>
					<line fill="#C1C1C1" x1="175.676" y1="92.669" x2="681.27" y2="92.669"/>
					<g>
						
							<line fill="none" stroke="#DDDDDD" stroke-width="0.4561" stroke-linecap="round" stroke-miterlimit="10" x1="175.676" y1="92.669" x2="177.5" y2="92.669"/>
						
							<line fill="none" stroke="#DDDDDD" stroke-width="0.4561" stroke-linecap="round" stroke-miterlimit="10" stroke-dasharray="3.6638,3.6638" x1="181.164" y1="92.669" x2="677.614" y2="92.669"/>
						
							<line fill="none" stroke="#DDDDDD" stroke-width="0.4561" stroke-linecap="round" stroke-miterlimit="10" x1="679.446" y1="92.669" x2="681.27" y2="92.669"/>
					</g>
				</g>
				<g>
					<line fill="#C1C1C1" x1="175.676" y1="108.118" x2="681.27" y2="108.118"/>
					<g>
						
							<line fill="none" stroke="#DDDDDD" stroke-width="0.4561" stroke-linecap="round" stroke-miterlimit="10" x1="175.676" y1="108.118" x2="177.5" y2="108.118"/>
						
							<line fill="none" stroke="#DDDDDD" stroke-width="0.4561" stroke-linecap="round" stroke-miterlimit="10" stroke-dasharray="3.6638,3.6638" x1="181.164" y1="108.118" x2="677.614" y2="108.118"/>
						
							<line fill="none" stroke="#DDDDDD" stroke-width="0.4561" stroke-linecap="round" stroke-miterlimit="10" x1="679.446" y1="108.118" x2="681.27" y2="108.118"/>
					</g>
				</g>
				<g>
					<line fill="#C1C1C1" x1="175.676" y1="123.573" x2="681.27" y2="123.573"/>
					<g>
						
							<line fill="none" stroke="#DDDDDD" stroke-width="0.4561" stroke-linecap="round" stroke-miterlimit="10" x1="175.676" y1="123.573" x2="177.5" y2="123.573"/>
						
							<line fill="none" stroke="#DDDDDD" stroke-width="0.4561" stroke-linecap="round" stroke-miterlimit="10" stroke-dasharray="3.6638,3.6638" x1="181.164" y1="123.573" x2="677.614" y2="123.573"/>
						
							<line fill="none" stroke="#DDDDDD" stroke-width="0.4561" stroke-linecap="round" stroke-miterlimit="10" x1="679.446" y1="123.573" x2="681.27" y2="123.573"/>
					</g>
				</g>
				<g>
					<line fill="#C1C1C1" x1="681.27" y1="139.011" x2="175.676" y2="139.011"/>
					<g>
						
							<line fill="none" stroke="#DDDDDD" stroke-width="0.4561" stroke-linecap="round" stroke-miterlimit="10" x1="681.27" y1="139.011" x2="679.446" y2="139.011"/>
						
							<line fill="none" stroke="#DDDDDD" stroke-width="0.4561" stroke-linecap="round" stroke-miterlimit="10" stroke-dasharray="3.6638,3.6638" x1="675.782" y1="139.011" x2="179.332" y2="139.011"/>
						
							<line fill="none" stroke="#DDDDDD" stroke-width="0.4561" stroke-linecap="round" stroke-miterlimit="10" x1="177.5" y1="139.011" x2="175.676" y2="139.011"/>
					</g>
				</g>
				<g>
					<line fill="#C1C1C1" x1="175.676" y1="154.472" x2="681.27" y2="154.472"/>
					<g>
						
							<line fill="none" stroke="#DDDDDD" stroke-width="0.4561" stroke-linecap="round" stroke-miterlimit="10" x1="175.676" y1="154.472" x2="177.5" y2="154.472"/>
						
							<line fill="none" stroke="#DDDDDD" stroke-width="0.4561" stroke-linecap="round" stroke-miterlimit="10" stroke-dasharray="3.6638,3.6638" x1="181.164" y1="154.472" x2="677.614" y2="154.472"/>
						
							<line fill="none" stroke="#DDDDDD" stroke-width="0.4561" stroke-linecap="round" stroke-miterlimit="10" x1="679.446" y1="154.472" x2="681.27" y2="154.472"/>
					</g>
				</g>
				<g>
					<line fill="#C1C1C1" x1="175.676" y1="169.93" x2="681.27" y2="169.93"/>
					<g>
						
							<line fill="none" stroke="#DDDDDD" stroke-width="0.4561" stroke-linecap="round" stroke-miterlimit="10" x1="175.676" y1="169.93" x2="177.5" y2="169.93"/>
						
							<line fill="none" stroke="#DDDDDD" stroke-width="0.4561" stroke-linecap="round" stroke-miterlimit="10" stroke-dasharray="3.6638,3.6638" x1="181.164" y1="169.93" x2="677.614" y2="169.93"/>
						
							<line fill="none" stroke="#DDDDDD" stroke-width="0.4561" stroke-linecap="round" stroke-miterlimit="10" x1="679.446" y1="169.93" x2="681.27" y2="169.93"/>
					</g>
				</g>
				<g>
					<line fill="#C1C1C1" x1="175.676" y1="185.376" x2="681.27" y2="185.376"/>
					<g>
						
							<line fill="none" stroke="#DDDDDD" stroke-width="0.4561" stroke-linecap="round" stroke-miterlimit="10" x1="175.676" y1="185.376" x2="177.5" y2="185.376"/>
						
							<line fill="none" stroke="#DDDDDD" stroke-width="0.4561" stroke-linecap="round" stroke-miterlimit="10" stroke-dasharray="3.6638,3.6638" x1="181.164" y1="185.376" x2="677.614" y2="185.376"/>
						
							<line fill="none" stroke="#DDDDDD" stroke-width="0.4561" stroke-linecap="round" stroke-miterlimit="10" x1="679.446" y1="185.376" x2="681.27" y2="185.376"/>
					</g>
				</g>
				<g>
					<line fill="#C1C1C1" x1="175.676" y1="200.831" x2="681.27" y2="200.831"/>
					<g>
						
							<line fill="none" stroke="#DDDDDD" stroke-width="0.4561" stroke-linecap="round" stroke-miterlimit="10" x1="175.676" y1="200.831" x2="177.5" y2="200.831"/>
						
							<line fill="none" stroke="#DDDDDD" stroke-width="0.4561" stroke-linecap="round" stroke-miterlimit="10" stroke-dasharray="3.6638,3.6638" x1="181.164" y1="200.831" x2="677.614" y2="200.831"/>
						
							<line fill="none" stroke="#DDDDDD" stroke-width="0.4561" stroke-linecap="round" stroke-miterlimit="10" x1="679.446" y1="200.831" x2="681.27" y2="200.831"/>
					</g>
				</g>
				<g>
					<line fill="#C1C1C1" x1="175.676" y1="216.268" x2="681.27" y2="216.268"/>
					<g>
						
							<line fill="none" stroke="#DDDDDD" stroke-width="0.4561" stroke-linecap="round" stroke-miterlimit="10" x1="175.676" y1="216.268" x2="177.5" y2="216.268"/>
						
							<line fill="none" stroke="#DDDDDD" stroke-width="0.4561" stroke-linecap="round" stroke-miterlimit="10" stroke-dasharray="3.6638,3.6638" x1="181.164" y1="216.268" x2="677.614" y2="216.268"/>
						
							<line fill="none" stroke="#DDDDDD" stroke-width="0.4561" stroke-linecap="round" stroke-miterlimit="10" x1="679.446" y1="216.268" x2="681.27" y2="216.268"/>
					</g>
				</g>
				<g>
					<line fill="#C1C1C1" x1="175.676" y1="231.732" x2="681.27" y2="231.732"/>
					<g>
						
							<line fill="none" stroke="#DDDDDD" stroke-width="0.4561" stroke-linecap="round" stroke-miterlimit="10" x1="175.676" y1="231.732" x2="177.5" y2="231.732"/>
						
							<line fill="none" stroke="#DDDDDD" stroke-width="0.4561" stroke-linecap="round" stroke-miterlimit="10" stroke-dasharray="3.6638,3.6638" x1="181.164" y1="231.732" x2="677.614" y2="231.732"/>
						
							<line fill="none" stroke="#DDDDDD" stroke-width="0.4561" stroke-linecap="round" stroke-miterlimit="10" x1="679.446" y1="231.732" x2="681.27" y2="231.732"/>
					</g>
				</g>
				<g>
					<line fill="#C1C1C1" x1="175.676" y1="247.178" x2="681.27" y2="247.178"/>
					<g>
						
							<line fill="none" stroke="#DDDDDD" stroke-width="0.4561" stroke-linecap="round" stroke-miterlimit="10" x1="175.676" y1="247.178" x2="177.5" y2="247.178"/>
						
							<line fill="none" stroke="#DDDDDD" stroke-width="0.4561" stroke-linecap="round" stroke-miterlimit="10" stroke-dasharray="3.6638,3.6638" x1="181.164" y1="247.178" x2="677.614" y2="247.178"/>
						
							<line fill="none" stroke="#DDDDDD" stroke-width="0.4561" stroke-linecap="round" stroke-miterlimit="10" x1="679.446" y1="247.178" x2="681.27" y2="247.178"/>
					</g>
				</g>
				<g>
					<line fill="#C1C1C1" x1="175.676" y1="262.616" x2="681.27" y2="262.616"/>
					<g>
						
							<line fill="none" stroke="#DDDDDD" stroke-width="0.4561" stroke-linecap="round" stroke-miterlimit="10" x1="175.676" y1="262.616" x2="177.5" y2="262.616"/>
						
							<line fill="none" stroke="#DDDDDD" stroke-width="0.4561" stroke-linecap="round" stroke-miterlimit="10" stroke-dasharray="3.6638,3.6638" x1="181.164" y1="262.616" x2="677.614" y2="262.616"/>
						
							<line fill="none" stroke="#DDDDDD" stroke-width="0.4561" stroke-linecap="round" stroke-miterlimit="10" x1="679.446" y1="262.616" x2="681.27" y2="262.616"/>
					</g>
				</g>
				<g>
					<line fill="#C1C1C1" x1="175.676" y1="278.065" x2="681.27" y2="278.065"/>
					<g>
						
							<line fill="none" stroke="#DDDDDD" stroke-width="0.4561" stroke-linecap="round" stroke-miterlimit="10" x1="175.676" y1="278.065" x2="177.5" y2="278.065"/>
						
							<line fill="none" stroke="#DDDDDD" stroke-width="0.4561" stroke-linecap="round" stroke-miterlimit="10" stroke-dasharray="3.6638,3.6638" x1="181.164" y1="278.065" x2="677.614" y2="278.065"/>
						
							<line fill="none" stroke="#DDDDDD" stroke-width="0.4561" stroke-linecap="round" stroke-miterlimit="10" x1="679.446" y1="278.065" x2="681.27" y2="278.065"/>
					</g>
				</g>
				<g>
					<line fill="#C1C1C1" x1="175.676" y1="293.52" x2="681.27" y2="293.52"/>
					<g>
						
							<line fill="none" stroke="#DDDDDD" stroke-width="0.4561" stroke-linecap="round" stroke-miterlimit="10" x1="175.676" y1="293.52" x2="177.5" y2="293.52"/>
						
							<line fill="none" stroke="#DDDDDD" stroke-width="0.4561" stroke-linecap="round" stroke-miterlimit="10" stroke-dasharray="3.6638,3.6638" x1="181.164" y1="293.52" x2="677.614" y2="293.52"/>
						
							<line fill="none" stroke="#DDDDDD" stroke-width="0.4561" stroke-linecap="round" stroke-miterlimit="10" x1="679.446" y1="293.52" x2="681.27" y2="293.52"/>
					</g>
				</g>
				<g>
					<line fill="#C1C1C1" x1="175.676" y1="308.969" x2="681.27" y2="308.969"/>
					<g>
						
							<line fill="none" stroke="#DDDDDD" stroke-width="0.4561" stroke-linecap="round" stroke-miterlimit="10" x1="175.676" y1="308.969" x2="177.5" y2="308.969"/>
						
							<line fill="none" stroke="#DDDDDD" stroke-width="0.4561" stroke-linecap="round" stroke-miterlimit="10" stroke-dasharray="3.6638,3.6638" x1="181.164" y1="308.969" x2="677.614" y2="308.969"/>
						
							<line fill="none" stroke="#DDDDDD" stroke-width="0.4561" stroke-linecap="round" stroke-miterlimit="10" x1="679.446" y1="308.969" x2="681.27" y2="308.969"/>
					</g>
				</g>
			</g>
			<g>
				<path fill="#C1C1C1" d="M117.288,88.175h-2.075V74.863l-3.138,0.042V73.41l5.213-0.569V88.175z"/>
				<path fill="#C1C1C1" d="M133.211,82.33c0,1.959-0.434,3.46-1.3,4.502c-0.867,1.042-2.056,1.564-3.565,1.564
					c-1.51,0-2.703-0.523-3.581-1.569c-0.877-1.046-1.316-2.545-1.316-4.497v-3.633c0-1.952,0.437-3.453,1.312-4.502
					c0.874-1.05,2.062-1.575,3.564-1.575c1.51,0,2.702,0.525,3.576,1.575c0.874,1.049,1.311,2.55,1.311,4.502V82.33z
					 M131.137,78.251c0-1.326-0.24-2.324-0.721-2.994c-0.481-0.67-1.178-1.005-2.091-1.005c-0.913,0-1.607,0.335-2.085,1.005
					c-0.478,0.67-0.716,1.668-0.716,2.994v4.493c0,1.326,0.242,2.327,0.727,3.004c0.485,0.677,1.183,1.016,2.096,1.016
					c0.913,0,1.606-0.337,2.08-1.01c0.474-0.673,0.711-1.677,0.711-3.009V78.251z"/>
				<path fill="#C1C1C1" d="M145.365,82.33c0,1.959-0.434,3.46-1.3,4.502c-0.867,1.042-2.056,1.564-3.565,1.564
					c-1.51,0-2.703-0.523-3.581-1.569c-0.877-1.046-1.316-2.545-1.316-4.497v-3.633c0-1.952,0.437-3.453,1.312-4.502
					c0.874-1.05,2.062-1.575,3.564-1.575c1.51,0,2.702,0.525,3.576,1.575c0.874,1.049,1.311,2.55,1.311,4.502V82.33z M143.29,78.251
					c0-1.326-0.24-2.324-0.721-2.994c-0.481-0.67-1.178-1.005-2.091-1.005c-0.913,0-1.607,0.335-2.085,1.005
					c-0.478,0.67-0.716,1.668-0.716,2.994v4.493c0,1.326,0.242,2.327,0.727,3.004c0.485,0.677,1.183,1.016,2.096,1.016
					c0.913,0,1.606-0.337,2.08-1.01c0.474-0.673,0.711-1.677,0.711-3.009V78.251z"/>
				<path fill="#C1C1C1" d="M147.661,75.79c0-0.892,0.288-1.643,0.864-2.253s1.344-0.917,2.306-0.917s1.731,0.304,2.307,0.911
					S154,74.891,154,75.79v0.811c0,0.892-0.286,1.64-0.858,2.243c-0.573,0.604-1.336,0.906-2.291,0.906
					c-0.969,0-1.743-0.302-2.322-0.906c-0.58-0.604-0.869-1.352-0.869-2.243V75.79z M149.198,76.601c0,0.52,0.142,0.96,0.427,1.322
					c0.284,0.362,0.693,0.542,1.227,0.542c0.513,0,0.909-0.179,1.19-0.537c0.281-0.358,0.421-0.8,0.421-1.327V75.79
					c0-0.52-0.142-0.963-0.426-1.332s-0.687-0.553-1.206-0.553c-0.526,0-0.93,0.184-1.211,0.553s-0.421,0.812-0.421,1.332V76.601z
					 M151.389,87.016l-1.148-0.706l7.488-11.985l1.148,0.706L151.389,87.016z M155.085,84.415c0-0.892,0.288-1.641,0.864-2.249
					c0.575-0.607,1.344-0.911,2.306-0.911c0.955,0,1.722,0.304,2.301,0.911c0.579,0.607,0.869,1.357,0.869,2.249v0.821
					c0,0.899-0.288,1.65-0.863,2.254c-0.576,0.604-1.338,0.906-2.286,0.906c-0.969,0-1.743-0.302-2.322-0.906
					c-0.579-0.604-0.869-1.355-0.869-2.254V84.415z M156.623,85.236c0,0.527,0.142,0.971,0.427,1.333
					c0.284,0.362,0.693,0.542,1.227,0.542c0.513,0,0.909-0.181,1.19-0.542c0.28-0.362,0.421-0.806,0.421-1.333v-0.821
					c0-0.52-0.144-0.962-0.432-1.327c-0.288-0.365-0.688-0.547-1.201-0.547c-0.52,0-0.921,0.183-1.206,0.547
					c-0.285,0.365-0.427,0.808-0.427,1.327V85.236z"/>
			</g>
			<g>
				<path fill="#C1C1C1" d="M145.365,318c0,1.959-0.434,3.459-1.3,4.502c-0.867,1.043-2.056,1.563-3.565,1.563
					c-1.51,0-2.703-0.522-3.581-1.568c-0.877-1.047-1.316-2.545-1.316-4.497v-3.634c0-1.951,0.437-3.452,1.312-4.502
					c0.874-1.05,2.062-1.574,3.564-1.574c1.51,0,2.702,0.524,3.576,1.574s1.311,2.551,1.311,4.502V318z M143.29,313.921
					c0-1.326-0.24-2.324-0.721-2.994s-1.178-1.005-2.091-1.005c-0.913,0-1.607,0.335-2.085,1.005s-0.716,1.668-0.716,2.994v4.493
					c0,1.325,0.242,2.327,0.727,3.004c0.485,0.677,1.183,1.016,2.096,1.016c0.913,0,1.606-0.337,2.08-1.011
					c0.474-0.673,0.711-1.676,0.711-3.009V313.921z"/>
				<path fill="#C1C1C1" d="M147.661,311.46c0-0.892,0.288-1.644,0.864-2.254c0.576-0.611,1.344-0.916,2.306-0.916
					s1.731,0.304,2.307,0.91c0.576,0.607,0.863,1.36,0.863,2.26v0.811c0,0.892-0.286,1.64-0.858,2.243
					c-0.573,0.604-1.336,0.906-2.291,0.906c-0.969,0-1.743-0.302-2.322-0.906c-0.58-0.604-0.869-1.352-0.869-2.243V311.46z
					 M149.198,312.271c0,0.52,0.142,0.96,0.427,1.321c0.284,0.362,0.693,0.543,1.227,0.543c0.513,0,0.909-0.179,1.19-0.537
					c0.281-0.358,0.421-0.801,0.421-1.327v-0.811c0-0.52-0.142-0.964-0.426-1.333c-0.284-0.368-0.687-0.553-1.206-0.553
					c-0.526,0-0.93,0.185-1.211,0.553c-0.281,0.369-0.421,0.813-0.421,1.333V312.271z M151.389,322.687l-1.148-0.706l7.488-11.984
					l1.148,0.705L151.389,322.687z M155.085,320.085c0-0.892,0.288-1.641,0.864-2.248c0.575-0.607,1.344-0.911,2.306-0.911
					c0.955,0,1.722,0.304,2.301,0.911s0.869,1.356,0.869,2.248v0.821c0,0.899-0.288,1.65-0.863,2.254
					c-0.576,0.604-1.338,0.905-2.286,0.905c-0.969,0-1.743-0.302-2.322-0.905c-0.579-0.604-0.869-1.354-0.869-2.254V320.085z
					 M156.623,320.906c0,0.526,0.142,0.971,0.427,1.332c0.284,0.362,0.693,0.543,1.227,0.543c0.513,0,0.909-0.181,1.19-0.543
					c0.28-0.361,0.421-0.806,0.421-1.332v-0.821c0-0.52-0.144-0.962-0.432-1.327c-0.288-0.365-0.688-0.548-1.201-0.548
					c-0.52,0-0.921,0.183-1.206,0.548c-0.285,0.365-0.427,0.808-0.427,1.327V320.906z"/>
			</g>
		</g>
		<rect x="194.324" y="89.676" fill="#22B0EF" width="91.133" height="231.175"/>
		<rect x="320.825" y="180.4" fill="#F3C46B" width="91.119" height="140.451"/>
		<rect x="447.311" y="136.015" fill="#8026EA" width="91.132" height="184.836"/>
		<rect x="573.813" y="244.835" fill="#1E87F0" width="91.132" height="76.017"/>
	</g>
</g>
<g id="Capa_2">
	<g>
		<g>
			<path fill="none" d="M215.359,380.154"/>
		</g>
		<g>
			<path fill="none" d="M355.538,380.154"/>
		</g>
		<g>
			<path fill="none" d="M484.365,380.154"/>
		</g>
		<g>
			<path fill="none" d="M602.978,380.154"/>
		</g>
		<g>
			<path fill="#8026EA" d="M143.252,390.01h509.195V12.93C652.448,12.93,633.036,288.358,143.252,390.01z"/>
			<path fill="#22B0EF" d="M277.644,354.336v35.674h374.804V12.93C652.448,12.93,636.681,235.512,277.644,354.336z"/>
			<path fill="#F3C46B" d="M426.968,289.509V390.01h225.479V12.93C652.448,12.93,641.342,168.976,426.968,289.509z"/>
			<path fill="#F04946" d="M543.442,204.429v185.58h109.006V12.93C652.448,12.93,645.716,106.333,543.442,204.429z"/>
		</g>
	</g>
</g>
</svg>
