<svg xmlns="http://www.w3.org/2000/svg" width="256" height="47" viewBox="0 0 256 47">
  <g fill="#FFFFFF" transform="translate(-141 -249)">
    <path fill-opacity=".234" d="M175.06575,251.082608 L166.080855,246 L156.704355,251.669922 L165.814645,256.569508 L175.06575,251.082608 Z M179.362395,253.271363 L170.08375,258.76577 L180.6,264.683593 L180.6,280.316585 L166.41775,288.163645 L152.4,280.316585 L152.4,268.115073 L143,263.570092 L143,285.65478 L166.080855,299 L190,285.753798 L190,259.253887 L179.362395,253.271363 Z" opacity=".259" transform="rotate(-31 166.5 272.5)"/>
    <path fill-opacity=".188" d="M179.06575,251.082608 L170.080855,246 L160.704355,251.669922 L169.814645,256.569508 L179.06575,251.082608 Z M183.362395,253.271363 L174.08375,258.76577 L184.6,264.683593 L184.6,280.316585 L170.41775,288.163645 L156.4,280.316585 L156.4,268.115073 L147,263.570092 L147,285.65478 L170.080855,299 L194,285.753798 L194,259.253887 L183.362395,253.271363 Z" opacity=".597" transform="rotate(-31 170.5 272.5)"/>
    <path d="M183.06575,251.082608 L174.080855,246 L164.704355,251.669922 L173.814645,256.569508 L183.06575,251.082608 Z M187.362395,253.271363 L178.08375,258.76577 L188.6,264.683593 L188.6,280.316585 L174.41775,288.163645 L160.4,280.316585 L160.4,268.115073 L151,263.570092 L151,285.65478 L174.080855,299 L198,285.753798 L198,259.253887 L187.362395,253.271363 Z" transform="rotate(-31 174.5 272.5)"/>
    <path d="M212,281.608696 L213.716108,260.304348 L215.003188,260.304348 L221.254723,273.695652 C221.745039,274.730435 222.296645,276.1 222.296645,276.1 L222.357935,276.1 C222.357935,276.1 222.909541,274.730435 223.399857,273.695652 L229.651392,260.304348 L230.938473,260.304348 L232.65458,281.608696 L231.336855,281.608696 L230.019129,265.356522 C229.927195,264.321739 229.927195,262.526087 229.927195,262.526087 L229.865905,262.526087 C229.865905,262.526087 229.25301,264.321739 228.762693,265.356522 L223.001475,277.5 L221.653105,277.5 L215.922532,265.356522 C215.46286,264.352174 214.788675,262.465217 214.788675,262.465217 L214.727385,262.465217 C214.727385,262.465217 214.727385,264.321739 214.635451,265.356522 L213.317725,281.608696 L212,281.608696 Z M235.040495,277.56087 C235.040495,272.386957 241.812991,272.326087 244.540376,272.326087 L245.551654,272.326087 L245.551654,271.808696 C245.551654,268.430435 243.804901,267.273913 241.353319,267.273913 C238.687223,267.273913 236.971116,268.734783 236.971116,268.734783 L236.235641,267.7 C236.235641,267.7 238.074328,266.026087 241.414609,266.026087 C244.938758,266.026087 246.838734,267.973913 246.838734,271.778261 L246.838734,281.608696 L245.551654,281.608696 L245.551654,279.6 C245.551654,278.778261 245.674233,278.230435 245.674233,278.230435 L245.612943,278.230435 C245.643588,278.230435 244.233928,281.973913 240.250107,281.973913 C237.76788,281.973913 235.040495,280.604348 235.040495,277.56087 Z M236.388865,277.469565 C236.388865,279.082609 237.706591,280.786957 240.311397,280.786957 C243.651677,280.786957 245.551654,277.347826 245.551654,274.334783 L245.551654,273.513043 L244.571021,273.513043 C241.966215,273.513043 236.388865,273.513043 236.388865,277.469565 Z M250.266571,281.608696 L250.266571,266.391304 L251.553652,266.391304 L251.553652,269.282609 C251.553652,269.982609 251.431073,270.530435 251.431073,270.530435 L251.492363,270.530435 C252.258482,268.186957 253.97459,266.269565 256.395527,266.269565 C256.855199,266.269565 257.284226,266.36087 257.284226,266.36087 L257.284226,267.63913 C257.284226,267.63913 256.916488,267.578261 256.579396,267.578261 C254.189103,267.578261 252.687509,269.586957 252.013324,271.83913 C251.676231,272.904348 251.553652,274.030435 251.553652,275.034783 L251.553652,281.608696 L250.266571,281.608696 Z M258.873376,281.608696 L258.873376,260.304348 L260.160457,260.304348 L260.160457,272.386957 L262.887842,272.386957 L267.852296,266.391304 L269.537759,266.391304 L263.991054,272.934783 L263.991054,272.995652 L270.05872,281.608696 L268.434547,281.608696 L262.887842,273.573913 L260.160457,273.573913 L260.160457,281.608696 L258.873376,281.608696 Z M270.514014,274.030435 C270.514014,268.886957 274.038163,266.026087 277.960695,266.026087 C282.128384,266.026087 284.212229,269.282609 284.212229,272.965217 C284.212229,273.3 284.15094,273.786957 284.15094,273.786957 L271.862384,273.786957 C271.862384,278.2 274.865572,280.726087 278.420366,280.726087 C281.362265,280.726087 283.170307,278.808696 283.170307,278.808696 L283.875137,279.873913 C283.875137,279.873913 281.730002,281.973913 278.420366,281.973913 C274.099453,281.973913 270.514014,278.869565 270.514014,274.030435 Z M271.954318,272.6 L282.863859,272.6 C282.710635,268.886957 280.473567,267.213043 277.93005,267.213043 C275.11073,267.213043 272.505924,269.03913 271.954318,272.6 Z M287.272329,276.1 L287.272329,267.63913 L285.249774,267.63913 L285.249774,266.482609 L287.272329,266.482609 L287.272329,262.16087 L288.55941,262.16087 L288.55941,266.482609 L292.573876,266.482609 L292.573876,267.63913 L288.55941,267.63913 L288.55941,276.008696 C288.55941,280.026087 290.980347,280.543478 292.206138,280.543478 C292.635165,280.543478 292.910968,280.482609 292.910968,280.482609 L292.910968,281.669565 C292.910968,281.669565 292.604521,281.730435 292.144849,281.730435 C290.55132,281.730435 287.272329,281.152174 287.272329,276.1 Z M294.530764,262.526087 L294.530764,260.304348 L296.063003,260.304348 L296.063003,262.526087 L294.530764,262.526087 Z M294.653343,281.608696 L294.653343,266.391304 L295.940424,266.391304 L295.940424,281.608696 L294.653343,281.608696 Z M299.582774,281.608696 L299.582774,266.391304 L300.869855,266.391304 L300.869855,269.069565 C300.869855,269.769565 300.747276,270.317391 300.747276,270.317391 L300.808565,270.317391 C301.329527,268.886957 303.474661,266.026087 307.305258,266.026087 C311.289079,266.026087 312.361646,268.369565 312.361646,271.96087 L312.361646,281.608696 L311.074566,281.608696 L311.074566,272.417391 C311.074566,269.769565 310.737473,267.273913 307.305258,267.273913 C304.424649,267.273913 301.881133,269.282609 301.115013,272.113043 C300.931144,272.752174 300.869855,273.452174 300.869855,274.182609 L300.869855,281.608696 L299.582774,281.608696 Z M316.739472,285.686957 C316.739472,285.686957 318.639448,286.752174 320.845872,286.752174 C324.124863,286.752174 326.66838,285.2 326.66838,281.517391 L326.66838,279.752174 C326.66838,279.052174 326.790959,278.504348 326.790959,278.504348 L326.729669,278.504348 C325.810326,280.36087 324.124863,281.608696 321.581347,281.608696 C317.597526,281.608696 314.778206,278.504348 314.778206,273.756522 C314.778206,269.008696 317.383012,266.026087 321.366833,266.026087 C325.718392,266.026087 326.699025,269.008696 326.699025,269.008696 L326.760314,269.008696 C326.760314,269.008696 326.66838,268.795652 326.66838,268.430435 L326.66838,266.391304 L327.95546,266.391304 L327.95546,281.517391 C327.95546,286.173913 324.584535,288 320.937806,288 C319.252344,288 317.62817,287.573913 316.126576,286.813043 L316.739472,285.686957 Z M321.673281,280.36087 C324.370021,280.36087 326.699025,278.686957 326.699025,273.756522 C326.699025,268.856522 324.370021,267.273913 321.366833,267.273913 C318.087842,267.273913 316.126576,269.647826 316.126576,273.756522 C316.126576,277.865217 318.39429,280.36087 321.673281,280.36087 Z M331.659101,281.608696 L331.659101,260 L335.612277,260 L335.612277,278.230435 L345.020224,278.230435 L345.020224,281.608696 L331.659101,281.608696 Z M344.648108,273.847826 C344.648108,269.1 348.478706,265.721739 353.228646,265.721739 C358.009231,265.721739 361.839829,269.1 361.839829,273.847826 C361.839829,278.626087 358.009231,281.973913 353.259291,281.973913 C348.478706,281.973913 344.648108,278.626087 344.648108,273.847826 Z M348.601285,273.847826 C348.601285,276.73913 350.715774,278.686957 353.259291,278.686957 C355.772163,278.686957 357.886652,276.73913 357.886652,273.847826 C357.886652,270.986957 355.772163,269.008696 353.259291,269.008696 C350.715774,269.008696 348.601285,270.986957 348.601285,273.847826 Z M364.807994,283.708696 C364.807994,283.708696 366.76926,284.713043 369.128908,284.713043 C371.519201,284.713043 373.541756,283.708696 373.541756,280.93913 L373.541756,280.026087 C373.541756,279.66087 373.603045,279.204348 373.603045,279.204348 L373.541756,279.204348 C372.622413,280.573913 371.274042,281.304348 369.190197,281.304348 C364.71606,281.304348 362.172543,277.713043 362.172543,273.452174 C362.172543,269.191304 364.593481,265.721739 369.098263,265.721739 C372.499833,265.721739 373.725625,267.7 373.725625,267.7 L373.817559,267.7 C373.817559,267.7 373.786914,267.517391 373.786914,267.273913 L373.786914,266.086957 L377.433643,266.086957 L377.433643,280.665217 C377.433643,285.991304 373.265953,288 369.190197,288 C367.228932,288 365.145087,287.452174 363.643493,286.66087 L364.807994,283.708696 Z M370.017606,278.047826 C371.886938,278.047826 373.63369,276.982609 373.63369,273.482609 C373.63369,269.952174 371.886938,269.008696 369.772448,269.008696 C367.4128,269.008696 366.095075,270.713043 366.095075,273.330435 C366.095075,276.03913 367.504735,278.047826 370.017606,278.047826 Z M378.80828,273.847826 C378.80828,269.1 382.638877,265.721739 387.388818,265.721739 C392.169403,265.721739 396,269.1 396,273.847826 C396,278.626087 392.169403,281.973913 387.419462,281.973913 C382.638877,281.973913 378.80828,278.626087 378.80828,273.847826 Z M382.761456,273.847826 C382.761456,276.73913 384.875946,278.686957 387.419462,278.686957 C389.932334,278.686957 392.046824,276.73913 392.046824,273.847826 C392.046824,270.986957 389.932334,269.008696 387.419462,269.008696 C384.875946,269.008696 382.761456,270.986957 382.761456,273.847826 Z"/>
  </g>
</svg>
