<svg xmlns="http://www.w3.org/2000/svg" width="256" height="47" viewBox="0 0 256 47"><g fill="#FFF"><path fill-opacity=".234" d="M21.812.73L11.492 1l-5.117 9.69 10.333-.492L21.812.73zm4.81-.337l-5.124 9.489 12.062-.344 8.052 13.4-8.115 14.03-16.057.494-6.284-10.459-10.399.946 11.375 18.93 26.657-.448 13.68-23.674L38.822.042l-12.2.351z" opacity=".259"/><path fill-opacity=".188" d="M25.812.73L15.492 1l-5.117 9.69 10.333-.492L25.812.73zm4.81-.337l-5.124 9.489 12.062-.344 8.052 13.4-8.115 14.03-16.057.494-6.284-10.459-10.399.946 11.375 18.93 26.657-.448 13.68-23.674L42.822.042l-12.2.351z" opacity=".597"/><path d="M29.812.73L19.492 1l-5.117 9.69 10.333-.492L29.812.73zm4.81-.337l-5.124 9.489 12.062-.344 8.052 13.4-8.115 14.03-16.057.494-6.284-10.459-10.399.946 11.375 18.93 26.657-.448 13.68-23.674L46.822.042l-12.2.351zM71 32.609l1.716-21.305h1.287l6.252 13.392c.49 1.034 1.042 2.404 1.042 2.404h.06s.553-1.37 1.043-2.404l6.251-13.392h1.287l1.717 21.305h-1.318l-1.318-16.252c-.092-1.035-.092-2.83-.092-2.83h-.061s-.613 1.795-1.103 2.83L82 28.5h-1.348l-5.73-12.143c-.46-1.005-1.134-2.892-1.134-2.892h-.062s0 1.857-.092 2.892l-1.317 16.252H71zm23.04-4.048c0-5.174 6.773-5.235 9.5-5.235h1.012v-.517c0-3.379-1.747-4.535-4.199-4.535-2.666 0-4.382 1.46-4.382 1.46l-.735-1.034s1.838-1.674 5.179-1.674c3.524 0 5.424 1.948 5.424 5.752v9.83h-1.287V30.6c0-.822.122-1.37.122-1.37h-.061c.03 0-1.38 3.744-5.363 3.744-2.482 0-5.21-1.37-5.21-4.413zm1.349-.091c0 1.613 1.318 3.317 3.922 3.317 3.34 0 5.24-3.44 5.24-6.452v-.822h-.98c-2.605 0-8.182 0-8.182 3.957zm13.878 4.139V17.39h1.287v2.892c0 .7-.123 1.247-.123 1.247h.061c.766-2.343 2.483-4.26 4.904-4.26.46 0 .888.09.888.09v1.28s-.368-.062-.705-.062c-2.39 0-3.891 2.009-4.566 4.261-.337 1.065-.46 2.191-.46 3.196v6.574h-1.286zm8.606 0V11.304h1.287v12.083h2.728l4.964-5.996h1.686l-5.547 6.544v.06l6.068 8.614h-1.624l-5.547-8.035h-2.728v8.035h-1.287zm11.641-7.579c0-5.143 3.524-8.004 7.447-8.004 4.167 0 6.251 3.257 6.251 6.94 0 .334-.061.821-.061.821h-12.289c0 4.413 3.004 6.94 6.558 6.94 2.942 0 4.75-1.918 4.75-1.918l.705 1.065s-2.145 2.1-5.455 2.1c-4.32 0-7.906-3.104-7.906-7.944zm1.44-1.43h10.91c-.153-3.713-2.39-5.387-4.934-5.387-2.82 0-5.424 1.826-5.976 5.387zm15.318 3.5v-8.46h-2.022v-1.157h2.022V13.16h1.287v4.322h4.015v1.156h-4.015v8.37c0 4.017 2.421 4.534 3.647 4.534.43 0 .705-.06.705-.06v1.187s-.306.06-.766.06c-1.594 0-4.873-.578-4.873-5.63zm7.259-13.574v-2.222h1.532v2.222h-1.532zm.122 19.083V17.39h1.287V32.61h-1.287zm4.93 0V17.39h1.287v2.679c0 .7-.123 1.247-.123 1.247h.062c.52-1.43 2.666-4.29 6.496-4.29 3.984 0 5.057 2.343 5.057 5.934v9.648h-1.287v-9.192c0-2.647-.338-5.143-3.77-5.143-2.88 0-5.424 2.009-6.19 4.839-.184.64-.245 1.34-.245 2.07v7.426h-1.287zm17.156 4.078s1.9 1.065 4.107 1.065c3.279 0 5.822-1.552 5.822-5.235v-1.765c0-.7.123-1.248.123-1.248h-.061c-.92 1.857-2.605 3.105-5.149 3.105-3.983 0-6.803-3.105-6.803-7.852 0-4.748 2.605-7.73 6.589-7.73 4.351 0 5.332 2.982 5.332 2.982h.061s-.092-.213-.092-.579v-2.039h1.287v15.126c0 4.657-3.37 6.483-7.017 6.483-1.686 0-3.31-.426-4.811-1.187l.612-1.126zm4.934-5.326c2.697 0 5.026-1.674 5.026-6.604 0-4.9-2.329-6.483-5.332-6.483-3.28 0-5.24 2.374-5.24 6.483 0 4.108 2.267 6.604 5.546 6.604zm9.986 1.248V11h3.953v18.23h9.408v3.379h-13.36zm12.99-7.761c0-4.748 3.83-8.126 8.58-8.126 4.78 0 8.61 3.378 8.61 8.126 0 4.778-3.83 8.126-8.58 8.126-4.78 0-8.61-3.348-8.61-8.126zm3.952 0c0 2.891 2.115 4.839 4.658 4.839 2.513 0 4.628-1.948 4.628-4.84 0-2.86-2.115-4.838-4.628-4.838-2.543 0-4.658 1.978-4.658 4.839zm16.207 9.86s1.961 1.005 4.32 1.005c2.391 0 4.414-1.004 4.414-3.774v-.913c0-.365.061-.822.061-.822h-.061c-.92 1.37-2.268 2.1-4.352 2.1-4.474 0-7.017-3.591-7.017-7.852 0-4.26 2.42-7.73 6.925-7.73 3.402 0 4.628 1.978 4.628 1.978h.092s-.031-.183-.031-.426v-1.187h3.647v14.578c0 5.326-4.168 7.335-8.244 7.335-1.961 0-4.045-.548-5.547-1.34l1.165-2.951zm5.21-5.66c1.869 0 3.616-1.065 3.616-4.565 0-3.53-1.747-4.474-3.862-4.474-2.36 0-3.677 1.704-3.677 4.321 0 2.71 1.41 4.718 3.923 4.718zm8.79-4.2c0-4.748 3.83-8.126 8.58-8.126 4.781 0 8.612 3.378 8.612 8.126 0 4.778-3.83 8.126-8.58 8.126-4.781 0-8.612-3.348-8.612-8.126zm3.953 0c0 2.891 2.115 4.839 4.658 4.839 2.513 0 4.628-1.948 4.628-4.84 0-2.86-2.115-4.838-4.628-4.838-2.543 0-4.658 1.978-4.658 4.839z"/></g></svg>